  0
SECTION
  2
HEADER
  9
$ACADVER
  1
AC1027
  9
$ACADMAINTVER
 70
   125
  9
$DWGCODEPAGE
  3
ANSI_1252
  9
$LASTSAVEDBY
  1
jaswalh
  9
$REQUIREDVERSIONS
160
                 0
  9
$INSBASE
 10
0.0
 20
0.0
 30
0.0
  9
$EXTMIN
 10
100.439441
 20
62.606559
 30
0.0
  9
$EXTMAX
 10
301.121291
 20
252.606559
 30
0.0
  9
$LIMMIN
 10
0.0
 20
0.0
  9
$LIMMAX
 10
420.0
 20
297.0
  9
$ORTHOMODE
 70
     0
  9
$REGENMODE
 70
     1
  9
$FILLMODE
 70
     1
  9
$QTEXTMODE
 70
     0
  9
$MIRRTEXT
 70
     0
  9
$LTSCALE
 40
0.75
  9
$ATTMODE
 70
     1
  9
$TEXTSIZE
 40
3.5
  9
$TRACEWID
 40
1.0
  9
$TEXTSTYLE
  7
Standard
  9
$CLAYER
  8
0
  9
$CELTYPE
  6
ByLayer
  9
$CECOLOR
 62
   256
  9
$CELTSCALE
 40
1.0
  9
$DISPSILH
 70
     0
  9
$DIMSCALE
 40
1.0
  9
$DIMASZ
 40
3.5
  9
$DIMEXO
 40
2.1
  9
$DIMDLI
 40
10.5
  9
$DIMRND
 40
0.0
  9
$DIMDLE
 40
0.0
  9
$DIMEXE
 40
2.1
  9
$DIMTP
 40
0.1
  9
$DIMTM
 40
0.1
  9
$DIMTXT
 40
3.5
  9
$DIMCEN
 40
0.0
  9
$DIMTSZ
 40
0.0
  9
$DIMTOL
 70
     0
  9
$DIMLIM
 70
     0
  9
$DIMTIH
 70
     0
  9
$DIMTOH
 70
     0
  9
$DIMSE1
 70
     0
  9
$DIMSE2
 70
     0
  9
$DIMTAD
 70
     1
  9
$DIMZIN
 70
    12
  9
$DIMBLK
  1

  9
$DIMASO
 70
     1
  9
$DIMSHO
 70
     1
  9
$DIMPOST
  1

  9
$DIMAPOST
  1

  9
$DIMALT
 70
     0
  9
$DIMALTD
 70
     2
  9
$DIMALTF
 40
0.03937
  9
$DIMLFAC
 40
1.0
  9
$DIMTOFL
 70
     1
  9
$DIMTVP
 40
0.0
  9
$DIMTIX
 70
     0
  9
$DIMSOXD
 70
     0
  9
$DIMSAH
 70
     0
  9
$DIMBLK1
  1

  9
$DIMBLK2
  1

  9
$DIMSTYLE
  2
Dim-ISO-25
  9
$DIMCLRD
 70
     0
  9
$DIMCLRE
 70
     0
  9
$DIMCLRT
 70
     0
  9
$DIMTFAC
 40
0.714286
  9
$DIMGAP
 40
1.4
  9
$DIMJUST
 70
     0
  9
$DIMSD1
 70
     0
  9
$DIMSD2
 70
     0
  9
$DIMTOLJ
 70
     0
  9
$DIMTZIN
 70
    12
  9
$DIMALTZ
 70
    12
  9
$DIMALTTZ
 70
    12
  9
$DIMUPT
 70
     0
  9
$DIMDEC
 70
     2
  9
$DIMTDEC
 70
     2
  9
$DIMALTU
 70
     2
  9
$DIMALTTD
 70
     2
  9
$DIMTXSTY
  7
Standard
  9
$DIMAUNIT
 70
     0
  9
$DIMADEC
 70
     2
  9
$DIMALTRND
 40
0.0
  9
$DIMAZIN
 70
     3
  9
$DIMDSEP
 70
    46
  9
$DIMATFIT
 70
     3
  9
$DIMFRAC
 70
     0
  9
$DIMLDRBLK
  1

  9
$DIMLUNIT
 70
     2
  9
$DIMLWD
 70
    -2
  9
$DIMLWE
 70
    -2
  9
$DIMTMOVE
 70
     0
  9
$DIMFXL
 40
1.0
  9
$DIMFXLON
 70
     0
  9
$DIMJOGANG
 40
0.785398
  9
$DIMTFILL
 70
     0
  9
$DIMTFILLCLR
 70
     0
  9
$DIMARCSYM
 70
     0
  9
$DIMLTYPE
  6

  9
$DIMLTEX1
  6

  9
$DIMLTEX2
  6

  9
$DIMTXTDIRECTION
 70
     0
  9
$LUNITS
 70
     2
  9
$LUPREC
 70
     4
  9
$SKETCHINC
 40
1.0
  9
$FILLETRAD
 40
0.0
  9
$AUNITS
 70
     0
  9
$AUPREC
 70
     0
  9
$MENU
  1
.
  9
$ELEVATION
 40
0.0
  9
$PELEVATION
 40
0.0
  9
$THICKNESS
 40
0.0
  9
$LIMCHECK
 70
     0
  9
$CHAMFERA
 40
0.0
  9
$CHAMFERB
 40
0.0
  9
$CHAMFERC
 40
0.0
  9
$CHAMFERD
 40
0.0
  9
$SKPOLY
 70
     0
  9
$TDCREATE
 40
2461006.642789352
  9
$TDUCREATE
 40
2461006.601122686
  9
$TDUPDATE
 40
2461006.642789352
  9
$TDUUPDATE
 40
2461006.601122686
  9
$TDINDWG
 40
0.0000000000
  9
$TDUSRTIMER
 40
0.0000000000
  9
$USRTIMER
 70
     1
  9
$ANGBASE
 50
0.0
  9
$ANGDIR
 70
     0
  9
$PDMODE
 70
     0
  9
$PDSIZE
 40
0.0
  9
$PLINEWID
 40
0.0
  9
$SPLFRAME
 70
     0
  9
$SPLINETYPE
 70
     6
  9
$SPLINESEGS
 70
     8
  9
$HANDSEED
  5
22B
  9
$SURFTAB1
 70
     6
  9
$SURFTAB2
 70
     6
  9
$SURFTYPE
 70
     6
  9
$SURFU
 70
     6
  9
$SURFV
 70
     6
  9
$UCSBASE
  2

  9
$UCSNAME
  2

  9
$UCSORG
 10
0.0
 20
0.0
 30
0.0
  9
$UCSXDIR
 10
1.0
 20
0.0
 30
0.0
  9
$UCSYDIR
 10
0.0
 20
1.0
 30
0.0
  9
$UCSORTHOREF
  2

  9
$UCSORTHOVIEW
 70
     0
  9
$UCSORGTOP
 10
0.0
 20
0.0
 30
0.0
  9
$UCSORGBOTTOM
 10
0.0
 20
0.0
 30
0.0
  9
$UCSORGLEFT
 10
0.0
 20
0.0
 30
0.0
  9
$UCSORGRIGHT
 10
0.0
 20
0.0
 30
0.0
  9
$UCSORGFRONT
 10
0.0
 20
0.0
 30
0.0
  9
$UCSORGBACK
 10
0.0
 20
0.0
 30
0.0
  9
$PUCSBASE
  2

  9
$PUCSNAME
  2

  9
$PUCSORG
 10
0.0
 20
0.0
 30
0.0
  9
$PUCSXDIR
 10
1.0
 20
0.0
 30
0.0
  9
$PUCSYDIR
 10
0.0
 20
1.0
 30
0.0
  9
$PUCSORTHOREF
  2

  9
$PUCSORTHOVIEW
 70
     0
  9
$PUCSORGTOP
 10
0.0
 20
0.0
 30
0.0
  9
$PUCSORGBOTTOM
 10
0.0
 20
0.0
 30
0.0
  9
$PUCSORGLEFT
 10
0.0
 20
0.0
 30
0.0
  9
$PUCSORGRIGHT
 10
0.0
 20
0.0
 30
0.0
  9
$PUCSORGFRONT
 10
0.0
 20
0.0
 30
0.0
  9
$PUCSORGBACK
 10
0.0
 20
0.0
 30
0.0
  9
$USERI1
 70
     0
  9
$USERI2
 70
     0
  9
$USERI3
 70
     0
  9
$USERI4
 70
     0
  9
$USERI5
 70
     0
  9
$USERR1
 40
0.0
  9
$USERR2
 40
0.0
  9
$USERR3
 40
0.0
  9
$USERR4
 40
0.0
  9
$USERR5
 40
0.0
  9
$WORLDVIEW
 70
     1
  9
$SHADEDGE
 70
     3
  9
$SHADEDIF
 70
    70
  9
$TILEMODE
 70
     1
  9
$MAXACTVP
 70
    64
  9
$PINSBASE
 10
0.0
 20
0.0
 30
0.0
  9
$PLIMCHECK
 70
     0
  9
$PEXTMIN
 10
1.000000E+20
 20
1.000000E+20
 30
1.000000E+20
  9
$PEXTMAX
 10
-1.000000E+20
 20
-1.000000E+20
 30
-1.000000E+20
  9
$PLIMMIN
 10
0.0
 20
0.0
  9
$PLIMMAX
 10
12.0
 20
9.0
  9
$UNITMODE
 70
     0
  9
$VISRETAIN
 70
     1
  9
$PLINEGEN
 70
     0
  9
$PSLTSCALE
 70
     1
  9
$TREEDEPTH
 70
  3020
  9
$CMLSTYLE
  2
Standard
  9
$CMLJUST
 70
     0
  9
$CMLSCALE
 40
20.0
  9
$PROXYGRAPHICS
 70
     1
  9
$MEASUREMENT
 70
     1
  9
$CELWEIGHT
370
    -1
  9
$ENDCAPS
280
     0
  9
$JOINSTYLE
280
     0
  9
$LWDISPLAY
290
     0
  9
$INSUNITS
 70
     4
  9
$HYPERLINKBASE
  1

  9
$STYLESHEET
  1

  9
$XEDIT
290
     1
  9
$CEPSNTYPE
380
     0
  9
$PSTYLEMODE
290
     1
  9
$FINGERPRINTGUID
  2
{3C0A2C3D-43B2-FA4A-BED5-07399947D1FE}
  9
$VERSIONGUID
  2
{0D34C44C-1DDB-4E48-8E72-3CD3DBBB45E4}
  9
$EXTNAMES
290
     1
  9
$PSVPSCALE
 40
0.0
  9
$OLESTARTUP
290
     0
  9
$SORTENTS
280
   127
  9
$INDEXCTL
280
     0
  9
$HIDETEXT
280
     1
  9
$XCLIPFRAME
280
     0
  9
$HALOGAP
280
     0
  9
$OBSCOLOR
 70
   257
  9
$OBSLTYPE
280
     0
  9
$INTERSECTIONDISPLAY
280
     0
  9
$INTERSECTIONCOLOR
 70
   257
  9
$DIMASSOC
280
     2
  9
$PROJECTNAME
  1

  9
$CAMERADISPLAY
290
     0
  9
$LENSLENGTH
 40
50.0
  9
$CAMERAHEIGHT
 40
0.0
  9
$STEPSPERSEC
 40
2.0
  9
$STEPSIZE
 40
6.0
  9
$3DDWFPREC
 40
2.0
  9
$PSOLWIDTH
 40
5.0
  9
$PSOLHEIGHT
 40
80.0
  9
$LOFTANG1
 40
1.570796
  9
$LOFTANG2
 40
1.570796
  9
$LOFTMAG1
 40
0.0
  9
$LOFTMAG2
 40
0.0
  9
$LOFTPARAM
 70
     7
  9
$LOFTNORMALS
280
     1
  9
$LATITUDE
 40
37.795
  9
$LONGITUDE
 40
-122.394
  9
$NORTHDIRECTION
 40
0.0
  9
$TIMEZONE
 70
 -8000
  9
$LIGHTGLYPHDISPLAY
280
     1
  9
$TILEMODELIGHTSYNCH
280
     1
  9
$CMATERIAL
347
11
  9
$SOLIDHIST
280
     0
  9
$SHOWHIST
280
     1
  9
$DWFFRAME
280
     2
  9
$DGNFRAME
280
     0
  9
$REALWORLDSCALE
290
     1
  9
$INTERFERECOLOR
 62
     1
  9
$INTERFEREOBJVS
345
33
  9
$INTERFEREVPVS
346
30
  9
$CSHADOW
280
     0
  9
$SHADOWPLANELOCATION
 40
0.0
  0
ENDSEC
  0
SECTION
  2
CLASSES
  0
CLASS
  1
ACDBDICTIONARYWDFLT
  2
AcDbDictionaryWithDefault
  3
ObjectDBX Classes
 90
        0
 91
        1
280
     0
281
     0
  0
CLASS
  1
MATERIAL
  2
AcDbMaterial
  3
ObjectDBX Classes
 90
     1153
 91
        3
280
     0
281
     0
  0
CLASS
  1
VISUALSTYLE
  2
AcDbVisualStyle
  3
ObjectDBX Classes
 90
     4095
 91
       24
280
     0
281
     0
  0
CLASS
  1
SCALE
  2
AcDbScale
  3
ObjectDBX Classes
 90
     1153
 91
       17
280
     0
281
     0
  0
CLASS
  1
TABLESTYLE
  2
AcDbTableStyle
  3
ObjectDBX Classes
 90
     4095
 91
        1
280
     0
281
     0
  0
CLASS
  1
MLEADERSTYLE
  2
AcDbMLeaderStyle
  3
ACDB_MLEADERSTYLE_CLASS
 90
     4095
 91
        1
280
     0
281
     0
  0
CLASS
  1
ACDBSECTIONVIEWSTYLE
  2
AcDbSectionViewStyle
  3
ObjectDBX Classes
 90
     1025
 91
        1
280
     0
281
     0
  0
CLASS
  1
ACDBDETAILVIEWSTYLE
  2
AcDbDetailViewStyle
  3
ObjectDBX Classes
 90
     1025
 91
        1
280
     0
281
     0
  0
CLASS
  1
ACMESCOPE
  2
AcMeScope
  3
AcMeServices
 90
     1024
 91
        1
280
     0
281
     0
  0
CLASS
  1
ACMECOMMANDHISTORY
  2
AcMeCommandHistory
  3
AcMeServices
 90
     1024
 91
        1
280
     0
281
     0
  0
CLASS
  1
ACIMSYSVARMAN
  2
AcImSysVarManager
  3
AcMeServices
 90
     1024
 91
        1
280
     0
281
     0
  0
CLASS
  1
ACIMINTSYSVAR
  2
AcImIntSysVar
  3
AcMeServices
 90
     1024
 91
        1
280
     0
281
     0
  0
CLASS
  1
ACMESTATEMGR
  2
AcMeStateMgr
  3
AcMeServices
 90
     1024
 91
        1
280
     0
281
     0
  0
CLASS
  1
ACGREFMASTER
  2
AcGrefMaster
  3
AcAttribServices
 90
     1024
 91
        1
280
     0
281
     0
  0
CLASS
  1
SORTENTSTABLE
  2
AcDbSortentsTable
  3
ObjectDBX Classes
 90
        0
 91
        1
280
     0
281
     0
  0
CLASS
  1
DICTIONARYVAR
  2
AcDbDictionaryVar
  3
ObjectDBX Classes
 90
        0
 91
        6
280
     0
281
     0
  0
CLASS
  1
CELLSTYLEMAP
  2
AcDbCellStyleMap
  3
ObjectDBX Classes
 90
     1152
 91
        1
280
     0
281
     0
  0
ENDSEC
  0
SECTION
  2
TABLES
  0
TABLE
  2
VPORT
  5
8
330
0
100
AcDbSymbolTable
 70
     1
1001
ACAD
1000
DbSaveVer
1071
      428
  0
VPORT
  5
57
330
8
100
AcDbSymbolTableRecord
100
AcDbViewportTableRecord
  2
*Active
 70
     0
 10
0.0
 20
0.0
 11
1.0
 21
1.0
 12
200.780366
 22
157.606559
 13
0.0
 23
0.0
 14
0.5
 24
0.5
 15
0.0
 25
0.0
 16
0.0
 26
0.0
 36
1.0
 17
0.0
 27
0.0
 37
0.0
 40
190.0
 41
2.362546
 42
50.0
 43
0.0
 44
0.0
 50
0.0
 51
0.0
 71
     0
 72
 20000
 73
     1
 74
     0
 75
     0
 76
     0
 77
     0
 78
     0
281
     0
 65
     1
110
0.0
120
0.0
130
0.0
111
1.0
121
0.0
131
0.0
112
0.0
122
1.0
132
0.0
 79
     0
146
0.0
348
2F
 60
     3
 61
     5
292
     1
282
     1
141
0.0
142
0.0
 63
   250
421
  3355443
  0
ENDTAB
  0
TABLE
  2
LTYPE
  5
5
330
0
100
AcDbSymbolTable
 70
    14
  0
LTYPE
  5
5B
330
5
100
AcDbSymbolTableRecord
100
AcDbLinetypeTableRecord
  2
ByBlock
 70
     0
  3

 72
    65
 73
     0
 40
0.0
  0
LTYPE
  5
5C
330
5
100
AcDbSymbolTableRecord
100
AcDbLinetypeTableRecord
  2
ByLayer
 70
     0
  3

 72
    65
 73
     0
 40
0.0
  0
LTYPE
  5
5D
330
5
100
AcDbSymbolTableRecord
100
AcDbLinetypeTableRecord
  2
Continuous
 70
     0
  3
Solid line
 72
    65
 73
     0
 40
0.0
  0
LTYPE
  5
80
330
5
100
AcDbSymbolTableRecord
100
AcDbLinetypeTableRecord
  2
HIDDEN
 70
     0
  3
Hidden __ __ __ __ __ __ __ __ __ __ __ __ __ _
 72
    65
 73
     2
 40
9.525
 49
6.35
 74
     0
 49
-3.175
 74
     0
  0
LTYPE
  5
81
330
5
100
AcDbSymbolTableRecord
100
AcDbLinetypeTableRecord
  2
PHANTOM2
 70
     0
  3
Phantom (.5x) ___ _ _ ___ _ _ ___ _ _ ___ _ _
 72
    65
 73
     6
 40
31.75
 49
15.875
 74
     0
 49
-3.175
 74
     0
 49
3.175
 74
     0
 49
-3.175
 74
     0
 49
3.175
 74
     0
 49
-3.175
 74
     0
  0
LTYPE
  5
82
330
5
100
AcDbSymbolTableRecord
100
AcDbLinetypeTableRecord
  2
CENTER
 70
     0
  3
Center ____ _ ____ _ ____ _ ____ _ ____ _ ____
 72
    65
 73
     4
 40
50.8
 49
31.75
 74
     0
 49
-6.35
 74
     0
 49
6.35
 74
     0
 49
-6.35
 74
     0
  0
LTYPE
  5
90
330
5
100
AcDbSymbolTableRecord
100
AcDbLinetypeTableRecord
  2
AM_ISO02W050
 70
     0
  3
__ __ __ __ __ __ __ __ __ __ __ __ __ __ __
 72
    65
 73
     2
 40
7.5
 49
6.0
 74
     0
 49
-1.5
 74
     0
  0
LTYPE
  5
91
330
5
100
AcDbSymbolTableRecord
100
AcDbLinetypeTableRecord
  2
AM_ISO08W050
 70
     0
  3
____ . ____ . ____ . ____ . ____ . ____ . ____
 72
    65
 73
     4
 40
18.0
 49
12.0
 74
     0
 49
-1.5
 74
     0
 49
3.0
 74
     0
 49
-1.5
 74
     0
  0
LTYPE
  5
92
330
5
100
AcDbSymbolTableRecord
100
AcDbLinetypeTableRecord
  2
AM_ISO09W050
 70
     0
  3
_____ . . _____ . . _____ . . ____ .. ____
 72
    65
 73
     6
 40
22.5
 49
12.0
 74
     0
 49
-1.5
 74
     0
 49
3.0
 74
     0
 49
-1.5
 74
     0
 49
3.0
 74
     0
 49
-1.5
 74
     0
  0
LTYPE
  5
93
330
5
100
AcDbSymbolTableRecord
100
AcDbLinetypeTableRecord
  2
Amconstr
 70
     0
  3
_______________________
 72
    65
 73
     2
 40
9999.0
 49
9999.0
 74
     0
 49
0.0
 74
     0
  0
LTYPE
  5
94
330
5
100
AcDbSymbolTableRecord
100
AcDbLinetypeTableRecord
  2
AM_ISO08W050x2
 70
     0
  3
__ . __ . __ . __ . __ . __
 72
    65
 73
     4
 40
9.0
 49
6.0
 74
     0
 49
-0.75
 74
     0
 49
1.5
 74
     0
 49
-0.75
 74
     0
  0
LTYPE
  5
95
330
5
100
AcDbSymbolTableRecord
100
AcDbLinetypeTableRecord
  2
AM_ISO02W050x2
 70
     0
  3
 _ _ _ _ _ _ _ _ _ _ _ _
 72
    65
 73
     2
 40
3.75
 49
3.0
 74
     0
 49
-0.75
 74
     0
  0
LTYPE
  5
96
330
5
100
AcDbSymbolTableRecord
100
AcDbLinetypeTableRecord
  2
Amzigzag
 70
     0
  3
/\/-/\/-/\/-/\/-/\/-/\/
 72
    65
 73
     2
 40
11.0001
 49
0.0001
 74
     4
 75
   136
340
8D
 46
0.04
 50
0.0
 44
0.0
 45
0.0
 49
-11.0
 74
     0
  0
LTYPE
  5
97
330
5
100
AcDbSymbolTableRecord
100
AcDbLinetypeTableRecord
  2
ACISOWELD
 70
     0
  3
_ _ _ _ _
 72
    65
 73
     2
 40
2.0
 49
2.0
 74
     0
 49
-1.0
 74
     0
  0
LTYPE
  5
98
330
5
100
AcDbSymbolTableRecord
100
AcDbLinetypeTableRecord
  2
ACISOTGL
 70
     0
  3
_ _ _ _ _
 72
    65
 73
     2
 40
3.0
 49
2.0
 74
     0
 49
-1.0
 74
     0
  0
LTYPE
  5
99
330
5
100
AcDbSymbolTableRecord
100
AcDbLinetypeTableRecord
  2
ACISOTGB
 70
     0
  3
__ . . __ . .
 72
    65
 73
     6
 40
9.0
 49
4.0
 74
     0
 49
-1.0
 74
     0
 49
1.0
 74
     0
 49
-1.0
 74
     0
 49
1.0
 74
     0
 49
-1.0
 74
     0
  0
ENDTAB
  0
TABLE
  2
LAYER
  5
2
330
0
100
AcDbSymbolTable
 70
     3
  0
LAYER
  5
54
330
2
100
AcDbSymbolTableRecord
100
AcDbLayerTableRecord
  2
0
 70
     0
 62
     7
  6
Continuous
370
    -3
390
F
347
21
348
0
1001
AcAecLayerStandard
1000

1000

  0
LAYER
  5
A5
330
2
100
AcDbSymbolTableRecord
100
AcDbLayerTableRecord
  2
Visible
 70
     0
 62
     7
  6
Continuous
370
    50
390
F
347
21
348
0
  0
ENDTAB
  0
TABLE
  2
STYLE
  5
3
330
0
100
AcDbSymbolTable
 70
     4
  0
STYLE
  5
55
330
3
100
AcDbSymbolTableRecord
100
AcDbTextStyleTableRecord
  2
Standard
 70
     0
 40
0.0
 41
1.0
 50
0.0
 71
     0
 42
3.5
  3
arial.ttf
  4

1001
ACAD
1000
Arial
1071
       34
  0
STYLE
  5
5A
330
3
100
AcDbSymbolTableRecord
100
AcDbTextStyleTableRecord
  2
Annotative
 70
     0
 40
0.0
 41
1.0
 50
0.0
 71
     0
 42
0.2
  3
txt
  4

1001
AcadAnnotative
1000
AnnotativeData
1002
{
1070
     1
1070
     1
1002
}
  0
STYLE
  5
8D
330
3
100
AcDbSymbolTableRecord
100
AcDbTextStyleTableRecord
  2

 70
     1
 40
0.0
 41
1.0
 50
0.0
 71
     0
 42
10.0
  3
genltshp.shx
  4

  0
STYLE
  5
8E
330
3
100
AcDbSymbolTableRecord
100
AcDbTextStyleTableRecord
  2
ACISOGDT
 70
     0
 40
0.0
 41
1.0
 50
0.0
 71
     0
 42
10.0
  3
amgdt.shx
  4

  0
ENDTAB
  0
TABLE
  2
VIEW
  5
6
330
0
100
AcDbSymbolTable
 70
     0
  0
ENDTAB
  0
TABLE
  2
UCS
  5
7
330
0
100
AcDbSymbolTable
 70
     0
  0
ENDTAB
  0
TABLE
  2
APPID
  5
9
330
0
100
AcDbSymbolTable
 70
    16
  0
APPID
  5
56
330
9
100
AcDbSymbolTableRecord
100
AcDbRegAppTableRecord
  2
ACAD
 70
     0
  0
APPID
  5
5E
330
9
100
AcDbSymbolTableRecord
100
AcDbRegAppTableRecord
  2
AcadAnnotative
 70
     0
  0
APPID
  5
78
330
9
100
AcDbSymbolTableRecord
100
AcDbRegAppTableRecord
  2
ACAD_PSEXT
 70
     0
  0
APPID
  5
79
330
9
100
AcDbSymbolTableRecord
100
AcDbRegAppTableRecord
  2
MCAD_NO_VIS
 70
     0
  0
APPID
  5
7A
330
9
100
AcDbSymbolTableRecord
100
AcDbRegAppTableRecord
  2
ACAD_TEMP_GRAPHIC
 70
     0
  0
APPID
  5
83
330
9
100
AcDbSymbolTableRecord
100
AcDbRegAppTableRecord
  2
ACAD_DSTYLE_DIMJAG
 70
     0
  0
APPID
  5
84
330
9
100
AcDbSymbolTableRecord
100
AcDbRegAppTableRecord
  2
ACAD_DSTYLE_DIMTALN
 70
     0
  0
APPID
  5
85
330
9
100
AcDbSymbolTableRecord
100
AcDbRegAppTableRecord
  2
ACAD_NAV_VCDISPLAY
 70
     0
  0
APPID
  5
86
330
9
100
AcDbSymbolTableRecord
100
AcDbRegAppTableRecord
  2
ACAD_DSTYLE_DIMBREAK
 70
     0
  0
APPID
  5
87
330
9
100
AcDbSymbolTableRecord
100
AcDbRegAppTableRecord
  2
FUSIONCURRENTTITLEBLOCK
 70
     0
  0
APPID
  5
88
330
9
100
AcDbSymbolTableRecord
100
AcDbRegAppTableRecord
  2
AcSynergy
 70
     0
  0
APPID
  5
89
330
9
100
AcDbSymbolTableRecord
100
AcDbRegAppTableRecord
  2
GENIUS_GENSCREG_15
 70
     0
  0
APPID
  5
8A
330
9
100
AcDbSymbolTableRecord
100
AcDbRegAppTableRecord
  2
GENIUS_GENOBJ-N-SDF_13
 70
     0
  0
APPID
  5
8B
330
9
100
AcDbSymbolTableRecord
100
AcDbRegAppTableRecord
  2
GENIUS_GENODEF_13
 70
     0
  0
APPID
  5
8C
330
9
100
AcDbSymbolTableRecord
100
AcDbRegAppTableRecord
  2
ACATTRIBSERVICES
 70
     0
  0
APPID
  5
21C
330
9
100
AcDbSymbolTableRecord
100
AcDbRegAppTableRecord
  2
AcAecLayerStandard
 70
     0
  0
ENDTAB
  0
TABLE
  2
DIMSTYLE
  5
A
330
0
100
AcDbSymbolTable
 70
     4
100
AcDbDimStyleTable
 71
     1
340
9D
  0
DIMSTYLE
105
58
330
A
100
AcDbSymbolTableRecord
100
AcDbDimStyleTableRecord
  2
Standard
 70
     0
 41
3.5
 42
2.1
 43
10.5
 44
2.1
 78
    12
 79
     3
140
3.5
143
0.03937
146
0.714286
147
1.4
179
     2
271
     2
272
     2
284
    12
340
55
  0
DIMSTYLE
105
59
330
A
100
AcDbSymbolTableRecord
100
AcDbDimStyleTableRecord
  2
Annotative
 70
     0
 40
0.0
 41
3.5
 42
2.1
 43
10.5
 44
2.1
 73
     0
 74
     0
 77
     1
 78
    12
 79
     3
140
3.5
141
2.5
143
0.03937
146
0.714286
147
1.4
171
     3
172
     1
179
     2
271
     2
272
     2
274
     3
278
    44
283
     0
284
    12
340
55
1001
AcadAnnotative
1000
AnnotativeData
1002
{
1070
     1
1070
     1
1002
}
  0
DIMSTYLE
105
9C
330
A
100
AcDbSymbolTableRecord
100
AcDbDimStyleTableRecord
  2
ISO-25
 70
     0
  4
in
 41
3.5
 42
2.1
 43
10.5
 44
2.1
 47
0.1
 48
0.1
 73
     0
 74
     0
 77
     1
 78
    12
 79
     3
140
3.5
141
0.0
143
0.03937
146
0.714286
147
1.4
171
     4
172
     1
176
   256
177
   256
178
   256
179
     2
271
     2
272
     2
274
     4
283
     0
284
    12
285
     8
340
55
1001
ACAD_DSTYLE_DIMJAG
1070
   388
1040
1.5
1001
ACAD_DSTYLE_DIMTALN
1070
   392
1070
     1
1001
ACAD_DSTYLE_DIMBREAK
1070
   391
1040
3.5
  0
DIMSTYLE
105
9D
330
A
100
AcDbSymbolTableRecord
100
AcDbDimStyleTableRecord
  2
Dim-ISO-25
 70
     0
 41
3.5
 42
2.1
 43
10.5
 44
2.1
 47
0.1
 48
0.1
 73
     0
 74
     0
 77
     1
 78
    12
 79
     3
140
3.5
141
0.0
143
0.03937
146
0.714286
147
1.4
172
     1
179
     2
271
     2
272
     2
283
     0
284
    12
285
    12
286
    12
340
55
1001
ACAD_DSTYLE_DIMJAG
1070
   388
1040
1.5
1001
ACAD_DSTYLE_DIMTALN
1070
   392
1070
     1
1001
ACAD_DSTYLE_DIMBREAK
1070
   391
1040
3.5
  0
ENDTAB
  0
TABLE
  2
BLOCK_RECORD
  5
1
330
0
100
AcDbSymbolTable
 70
     2
  0
BLOCK_RECORD
  5
70
102
{ACAD_XDICTIONARY
360
9E
102
}
330
1
100
AcDbSymbolTableRecord
100
AcDbBlockTableRecord
  2
*Model_Space
340
73
 70
     0
280
     1
281
     0
  0
BLOCK_RECORD
  5
6C
330
1
100
AcDbSymbolTableRecord
100
AcDbBlockTableRecord
  2
*Paper_Space
340
6F
 70
     0
280
     1
281
     0
  0
BLOCK_RECORD
  5
74
330
1
100
AcDbSymbolTableRecord
100
AcDbBlockTableRecord
  2
*Paper_Space0
340
77
 70
     0
280
     1
281
     0
  0
ENDTAB
  0
ENDSEC
  0
SECTION
  2
BLOCKS
  0
BLOCK
  5
71
330
70
100
AcDbEntity
  8
0
100
AcDbBlockBegin
  2
*Model_Space
 70
     0
 10
0.0
 20
0.0
 30
0.0
  3
*Model_Space
  1

  0
ENDBLK
  5
72
330
70
100
AcDbEntity
  8
0
100
AcDbBlockEnd
  0
BLOCK
  5
6D
330
6C
100
AcDbEntity
 67
     1
  8
0
100
AcDbBlockBegin
  2
*Paper_Space
 70
     0
 10
0.0
 20
0.0
 30
0.0
  3
*Paper_Space
  1

  0
ENDBLK
  5
6E
330
6C
100
AcDbEntity
 67
     1
  8
0
100
AcDbBlockEnd
  0
BLOCK
  5
75
330
74
100
AcDbEntity
 67
     1
  8
0
100
AcDbBlockBegin
  2
*Paper_Space0
 70
     0
 10
0.0
 20
0.0
 30
0.0
  3
*Paper_Space0
  1

  0
ENDBLK
  5
76
330
74
100
AcDbEntity
 67
     1
  8
0
100
AcDbBlockEnd
  0
ENDSEC
  0
SECTION
  2
ENTITIES
  0
LINE
  5
161
330
70
100
AcDbEntity
  8
Visible
100
AcDbLine
 10
160.628079
 20
84.314608
 30
0.0
 11
159.347042
 21
84.314608
 31
0.0
210
0.0
220
0.0
230
-1.0
  0
SPLINE
  5
162
330
70
100
AcDbEntity
  8
Visible
100
AcDbSpline
210
0.0
220
0.0
230
1.0
 70
     8
 71
     3
 72
     9
 73
     5
 74
     0
 42
0.000000001
 43
0.0000000001
 40
-0.0940287947370047
 40
-0.0940287947370047
 40
-0.0940287947370047
 40
-0.0940287947370047
 40
-0.0530222225815203
 40
0.0
 40
0.0
 40
0.0
 40
0.0
 10
161.5591840982615
 20
84.42511302122875
 30
0.0
 10
161.4258910621938
 20
84.39301559820341
 30
0.0
 10
161.1202477745591
 20
84.31941563988766
 30
0.0
 10
160.8055404713104
 20
84.31634136273897
 30
0.0
 10
160.6280790805995
 20
84.31460779795452
 30
0.0
  0
SPLINE
  5
163
330
70
100
AcDbEntity
  8
Visible
100
AcDbSpline
210
0.0
220
0.0
230
1.0
 70
     8
 71
     3
 72
     9
 73
     5
 74
     0
 42
0.000000001
 43
0.0000000001
 40
-0.0625939100313645
 40
-0.0625939100313645
 40
-0.0625939100313645
 40
-0.0625939100313645
 40
-0.0331255700028803
 40
0.0
 40
0.0
 40
0.0
 40
0.0
 10
162.0973833441912
 20
84.73616343626781
 30
0.0
 10
162.0218600683274
 20
84.67213347065262
 30
0.0
 10
161.8614405424869
 20
84.53612696661549
 30
0.0
 10
161.6637857634432
 20
84.46353153559902
 30
0.0
 10
161.5591840982615
 20
84.42511302122875
 30
0.0
  0
SPLINE
  5
164
330
70
100
AcDbEntity
  8
Visible
100
AcDbSpline
210
0.0
220
0.0
230
1.0
 70
     8
 71
     3
 72
     9
 73
     5
 74
     0
 42
0.000000001
 43
0.0000000001
 40
-0.0883496778758863
 40
-0.0883496778758863
 40
-0.0883496778758863
 40
-0.0883496778758863
 40
-0.0415524829310103
 40
0.0
 40
0.0
 40
0.0
 40
0.0
 10
162.5373562216937
 20
85.49537163862988
 30
0.0
 10
162.482738731589
 20
85.34774351006854
 30
0.0
 10
162.3796249090046
 20
85.06903241169675
 30
0.0
 10
162.1876654282714
 20
84.8426399747168
 30
0.0
 10
162.0973833441912
 20
84.73616343626781
 30
0.0
  0
SPLINE
  5
165
330
70
100
AcDbEntity
  8
Visible
100
AcDbSpline
210
0.0
220
0.0
230
1.0
 70
     8
 71
     3
 72
     9
 73
     5
 74
     0
 42
0.000000001
 43
0.0000000001
 40
-0.117051725051238
 40
-0.117051725051238
 40
-0.117051725051238
 40
-0.117051725051238
 40
-0.0540532921435376
 40
0.0
 40
0.0
 40
0.0
 40
0.0
 10
162.6949276566683
 20
86.65157896170422
 30
0.0
 10
162.6906182976363
 20
86.44073854560337
 30
0.0
 10
162.682611465003
 20
86.04899492158073
 30
0.0
 10
162.5832433863761
 20
85.67026517209525
 30
0.0
 10
162.5373562216937
 20
85.49537163862988
 30
0.0
  0
SPLINE
  5
166
330
70
100
AcDbEntity
  8
Visible
100
AcDbSpline
210
0.0
220
0.0
230
1.0
 70
     8
 71
     3
 72
     9
 73
     5
 74
     0
 42
0.000000001
 43
0.0000000001
 40
-0.1492625678106199
 40
-0.1492625678106199
 40
-0.1492625678106199
 40
-0.1492625678106199
 40
-0.0835944331729583
 40
0.0
 40
0.0
 40
0.0
 40
0.0
 10
162.3859237671076
 20
88.09837353119656
 30
0.0
 10
162.4757183428974
 20
87.89645665702483
 30
0.0
 10
162.6798199064924
 20
87.43750299114982
 30
0.0
 10
162.6895040541694
 20
86.93372153625023
 30
0.0
 10
162.6949276566683
 20
86.65157896170422
 30
0.0
  0
SPLINE
  5
167
330
70
100
AcDbEntity
  8
Visible
100
AcDbSpline
210
0.0
220
0.0
230
1.0
 70
     8
 71
     3
 72
     9
 73
     5
 74
     0
 42
0.000000001
 43
0.0000000001
 40
-0.1025331529945723
 40
-0.1025331529945723
 40
-0.1025331529945723
 40
-0.1025331529945723
 40
-0.0543397480291184
 40
0.0
 40
0.0
 40
0.0
 40
0.0
 10
161.6349004745661
 20
88.7757269729118
 30
0.0
 10
161.7793983229112
 20
88.69995677699989
 30
0.0
 10
162.0868225441773
 20
88.53875303770109
 30
0.0
 10
162.2823170575793
 20
88.25091811515267
 30
0.0
 10
162.3859237671076
 20
88.09837353119656
 30
0.0
  0
SPLINE
  5
168
330
70
100
AcDbEntity
  8
Visible
100
AcDbSpline
210
0.0
220
0.0
230
1.0
 70
     8
 71
     3
 72
     9
 73
     5
 74
     0
 42
0.000000001
 43
0.0000000001
 40
-0.1038115944418884
 40
-0.1038115944418884
 40
-0.1038115944418884
 40
-0.1038115944418884
 40
-0.0426499196058596
 40
0.0
 40
0.0
 40
0.0
 40
0.0
 10
160.6076153159319
 20
88.89850956091686
 30
0.0
 10
160.8125715433561
 20
88.89823054173758
 30
0.0
 10
161.1604500606918
 20
88.89775695389289
 30
0.0
 10
161.4967394556788
 20
88.81126237558964
 30
0.0
 10
161.6349004745661
 20
88.7757269729118
 30
0.0
  0
LINE
  5
169
330
70
100
AcDbEntity
  8
Visible
100
AcDbLine
 10
159.347042
 20
88.89851
 30
0.0
 11
160.607615
 21
88.89851
 31
0.0
210
0.0
220
0.0
230
-1.0
  0
LINE
  5
16A
330
70
100
AcDbEntity
  8
Visible
100
AcDbLine
 10
159.347042
 20
84.314608
 30
0.0
 11
159.347042
 21
88.89851
 31
0.0
210
0.0
220
0.0
230
-1.0
  0
LINE
  5
16B
330
70
100
AcDbEntity
  8
Visible
100
AcDbLine
 10
158.553045
 20
89.606559
 30
0.0
 11
158.553045
 21
83.606559
 31
0.0
210
0.0
220
0.0
230
-1.0
  0
LINE
  5
16C
330
70
100
AcDbEntity
  8
Visible
100
AcDbLine
 10
160.619894
 20
89.606559
 30
0.0
 11
158.553045
 21
89.606559
 31
0.0
210
0.0
220
0.0
230
-1.0
  0
ARC
  5
16D
330
70
100
AcDbEntity
  8
Visible
100
AcDbCircle
 10
-160.754228
 20
84.594986
 30
0.0
 40
5.013373155675319
210
0.0
220
0.0
230
-1.0
100
AcDbArc
 50
88.464563
 51
100.735622
  0
SPLINE
  5
16E
330
70
100
AcDbEntity
  8
Visible
100
AcDbSpline
210
0.0
220
0.0
230
1.0
 70
     8
 71
     3
 72
     9
 73
     5
 74
     0
 42
0.000000001
 43
0.0000000001
 40
-0.0986563548096346
 40
-0.0986563548096346
 40
-0.0986563548096346
 40
-0.0986563548096346
 40
-0.0506100808056193
 40
0.0
 40
0.0
 40
0.0
 40
0.0
 10
162.5680520177066
 20
89.09086984286114
 30
0.0
 10
162.4381947469865
 20
89.18701580838023
 30
0.0
 10
162.171550865849
 20
89.38443820344401
 30
0.0
 10
161.8520225492484
 20
89.47444042262032
 30
0.0
 10
161.6881065607249
 20
89.52061098704144
 30
0.0
  0
SPLINE
  5
16F
330
70
100
AcDbEntity
  8
Visible
100
AcDbSpline
210
0.0
220
0.0
230
1.0
 70
     8
 71
     3
 72
     9
 73
     5
 74
     0
 42
0.000000001
 43
0.0000000001
 40
-0.1257607046871719
 40
-0.1257607046871719
 40
-0.1257607046871719
 40
-0.1257607046871719
 40
-0.0617140492196095
 40
0.0
 40
0.0
 40
0.0
 40
0.0
 10
163.2781474828898
 20
88.06563120970531
 30
0.0
 10
163.1912426714207
 20
88.26309303956259
 30
0.0
 10
163.0205981584295
 20
88.65082505601639
 30
0.0
 10
162.7170238350882
 20
88.94601329514989
 30
0.0
 10
162.5680520177066
 20
89.09086984286114
 30
0.0
  0
SPLINE
  5
170
330
70
100
AcDbEntity
  8
Visible
100
AcDbSpline
210
0.0
220
0.0
230
1.0
 70
     8
 71
     3
 72
     9
 73
     5
 74
     0
 42
0.000000001
 43
0.0000000001
 40
-0.1451513600451546
 40
-0.1451513600451546
 40
-0.1451513600451546
 40
-0.1451513600451546
 40
-0.0691558850162437
 40
0.0
 40
0.0
 40
0.0
 40
0.0
 10
163.5134815216242
 20
86.63930100092693
 30
0.0
 10
163.5056612755852
 20
86.89385610918362
 30
0.0
 10
163.4907246053717
 20
87.38005637513015
 30
0.0
 10
163.34674506593
 20
87.84439961104363
 30
0.0
 10
163.2781474828898
 20
88.06563120970531
 30
0.0
  0
ARC
  5
171
330
70
100
AcDbEntity
  8
Visible
100
AcDbCircle
 10
-159.323122
 20
86.575165
 30
0.0
 40
4.190850691089341
210
0.0
220
0.0
230
-1.0
100
AcDbArc
 50
179.123121
 51
195.888647
  0
SPLINE
  5
172
330
70
100
AcDbEntity
  8
Visible
100
AcDbSpline
210
0.0
220
0.0
230
1.0
 70
     8
 71
     3
 72
     9
 73
     5
 74
     0
 42
0.000000001
 43
0.0000000001
 40
-0.0968181712064549
 40
-0.0968181712064549
 40
-0.0968181712064549
 40
-0.0968181712064549
 40
-0.0515668826690192
 40
0.0
 40
0.0
 40
0.0
 40
0.0
 10
162.9445867777049
 20
84.55403488764568
 30
0.0
 10
163.0255475121885
 20
84.68200094682471
 30
0.0
 10
163.1987684414853
 20
84.95579292549882
 30
0.0
 10
163.2999645970594
 20
85.2637947448602
 30
0.0
 10
163.353863263148
 20
85.4278413642387
 30
0.0
  0
SPLINE
  5
173
330
70
100
AcDbEntity
  8
Visible
100
AcDbSpline
210
0.0
220
0.0
230
1.0
 70
     8
 71
     3
 72
     9
 73
     5
 74
     0
 42
0.000000001
 43
0.0000000001
 40
-0.0774327882366405
 40
-0.0774327882366405
 40
-0.0774327882366405
 40
-0.0774327882366405
 40
-0.0404755445856752
 40
0.0
 40
0.0
 40
0.0
 40
0.0
 10
162.3982020259082
 20
84.00969666132732
 30
0.0
 10
162.4968680352285
 20
84.08441773056438
 30
0.0
 10
162.703592981441
 20
84.24097325688308
 30
0.0
 10
162.8618584843589
 20
84.44656716513055
 30
0.0
 10
162.9445867777049
 20
84.55403488764568
 30
0.0
  0
SPLINE
  5
174
330
70
100
AcDbEntity
  8
Visible
100
AcDbSpline
210
0.0
220
0.0
230
1.0
 70
     8
 71
     3
 72
     9
 73
     5
 74
     0
 42
0.000000001
 43
0.0000000001
 40
-0.0779829615542299
 40
-0.0779829615542299
 40
-0.0779829615542299
 40
-0.0779829615542299
 40
-0.037099776442086
 40
0.0
 40
0.0
 40
0.0
 40
0.0
 10
161.681967282313
 20
83.7088779796104
 30
0.0
 10
161.8140182515417
 20
83.74524295418632
 30
0.0
 10
162.0658999390471
 20
83.81460761857125
 30
0.0
 10
162.2910762019273
 20
83.9468048671406
 30
0.0
 10
162.3982020259082
 20
84.00969666132732
 30
0.0
  0
ARC
  5
175
330
70
100
AcDbEntity
  8
Visible
100
AcDbCircle
 10
-160.771559
 20
87.69405
 30
0.0
 40
4.087840614199018
210
0.0
220
0.0
230
-1.0
100
AcDbArc
 50
257.131667
 51
270.749029
  0
LINE
  5
176
330
70
100
AcDbEntity
  8
Visible
100
AcDbLine
 10
158.553045
 20
83.606559
 30
0.0
 11
160.71812
 21
83.606559
 31
0.0
210
0.0
220
0.0
230
-1.0
  0
ARC
  5
177
330
70
100
AcDbEntity
  8
Visible
100
AcDbCircle
 10
-206.121291
 20
157.606559
 30
0.0
 40
94.99999999999998
210
0.0
220
0.0
230
-1.0
100
AcDbArc
 50
298.323324
 51
308.856951
  0
CIRCLE
  5
178
330
70
100
AcDbEntity
  8
Visible
100
AcDbCircle
 10
152.520366
 20
95.979552
 30
0.0
 40
1.500000000000001
  0
CIRCLE
  5
179
330
70
100
AcDbEntity
  8
Visible
100
AcDbCircle
 10
188.520367
 20
76.979552
 30
0.0
 40
1.499999999999999
  0
LINE
  5
17A
330
70
100
AcDbEntity
  8
Visible
100
AcDbLine
 10
184.578965
 20
85.509697
 30
0.0
 11
183.784967
 21
85.710242
 31
0.0
210
0.0
220
0.0
230
-1.0
  0
SPLINE
  5
17B
330
70
100
AcDbEntity
  8
Visible
100
AcDbSpline
210
0.0
220
0.0
230
1.0
 70
     8
 71
     3
 72
     9
 73
     5
 74
     0
 42
0.000000001
 43
0.0000000001
 40
-0.1765602805931428
 40
-0.1765602805931428
 40
-0.1765602805931428
 40
-0.1765602805931428
 40
-0.0930165349245068
 40
0.0
 40
0.0
 40
0.0
 40
0.0
 10
183.6806016206919
 20
84.01788216719433
 30
0.0
 10
183.8821244488772
 20
84.2164132192811
 30
0.0
 10
184.3080202093024
 20
84.63598619847289
 30
0.0
 10
184.4854765881864
 20
85.20822616401165
 30
0.0
 10
184.5789652109324
 20
85.50969701895519
 30
0.0
  0
SPLINE
  5
17C
330
70
100
AcDbEntity
  8
Visible
100
AcDbSpline
210
0.0
220
0.0
230
1.0
 70
     8
 71
     3
 72
     9
 73
     5
 74
     0
 42
0.000000001
 43
0.0000000001
 40
-0.1691907979976162
 40
-0.1691907979976162
 40
-0.1691907979976162
 40
-0.1691907979976162
 40
-0.0817320780004673
 40
0.0
 40
0.0
 40
0.0
 40
0.0
 10
182.0946531534373
 20
83.50423973688885
 30
0.0
 10
182.391100869796
 20
83.52259159967799
 30
0.0
 10
182.964585431393
 20
83.55809367780421
 30
0.0
 10
183.4473766076244
 20
83.86811715063776
 30
0.0
 10
183.6806016206919
 20
84.01788216719433
 30
0.0
  0
SPLINE
  5
17D
330
70
100
AcDbEntity
  8
Visible
100
AcDbSpline
210
0.0
220
0.0
230
1.0
 70
     8
 71
     3
 72
     9
 73
     5
 74
     0
 42
0.000000001
 43
0.0000000001
 40
-0.1643513161069225
 40
-0.1643513161069225
 40
-0.1643513161069225
 40
-0.1643513161069225
 40
-0.0884958689168856
 40
0.0
 40
0.0
 40
0.0
 40
0.0
 10
180.516891980189
 20
83.89919203409954
 30
0.0
 10
180.7453994560001
 20
83.78417839822759
 30
0.0
 10
181.2404925018036
 20
83.53498545129879
 30
0.0
 10
181.795699107126
 20
83.515000658399
 30
0.0
 10
182.0946531534373
 20
83.50423973688885
 30
0.0
  0
SPLINE
  5
17E
330
70
100
AcDbEntity
  8
Visible
100
AcDbSpline
210
0.0
220
0.0
230
1.0
 70
     8
 71
     3
 72
     9
 73
     5
 74
     0
 42
0.000000001
 43
0.0000000001
 40
-0.1488114710035775
 40
-0.1488114710035775
 40
-0.1488114710035775
 40
-0.1488114710035775
 40
-0.0721177445377466
 40
0.0
 40
0.0
 40
0.0
 40
0.0
 10
179.5919256448924
 20
85.04312080035015
 30
0.0
 10
179.7064741331924
 20
84.81039449650234
 30
0.0
 10
179.9287364984557
 20
84.3588276576902
 30
0.0
 10
180.3249008635939
 20
84.04923051769946
 30
0.0
 10
180.516891980189
 20
83.89919203409954
 30
0.0
  0
SPLINE
  5
17F
330
70
100
AcDbEntity
  8
Visible
100
AcDbSpline
210
0.0
220
0.0
230
1.0
 70
     8
 71
     3
 72
     9
 73
     5
 74
     0
 42
0.000000001
 43
0.0000000001
 40
-0.1647848864058492
 40
-0.1647848864058492
 40
-0.1647848864058492
 40
-0.1647848864058492
 40
-0.0812222268122129
 40
0.0
 40
0.0
 40
0.0
 40
0.0
 10
179.2747359514414
 20
86.65157955775066
 30
0.0
 10
179.2871854242567
 20
86.37151594025089
 30
0.0
 10
179.3117356835919
 20
85.81923275993359
 30
0.0
 10
179.4994175369375
 20
85.29936356011603
 30
0.0
 10
179.5919256448924
 20
85.04312080035015
 30
0.0
  0
SPLINE
  5
180
330
70
100
AcDbEntity
  8
Visible
100
AcDbSpline
210
0.0
220
0.0
230
1.0
 70
     8
 71
     3
 72
     9
 73
     5
 74
     0
 42
0.000000001
 43
0.0000000001
 40
-0.1685814673601575
 40
-0.1685814673601575
 40
-0.1685814673601575
 40
-0.1685814673601575
 40
-0.0881943560145876
 40
0.0
 40
0.0
 40
0.0
 40
0.0
 10
179.632852578181
 20
88.28664106020733
 30
0.0
 10
179.5284633573883
 20
88.03742450703248
 30
0.0
 10
179.3095465718088
 20
87.51478733894328
 30
0.0
 10
179.2866922961057
 20
86.94806406851421
 30
0.0
 10
179.2747359514414
 20
86.65157955775066
 30
0.0
  0
SPLINE
  5
181
330
70
100
AcDbEntity
  8
Visible
100
AcDbSpline
210
0.0
220
0.0
230
1.0
 70
     8
 71
     3
 72
     9
 73
     5
 74
     0
 42
0.000000001
 43
0.0000000001
 40
-0.1487636489782004
 40
-0.1487636489782004
 40
-0.1487636489782004
 40
-0.1487636489782004
 40
-0.0751735116704427
 40
0.0
 40
0.0
 40
0.0
 40
0.0
 10
180.6519537210643
 20
89.34666794428631
 30
0.0
 10
180.4436271654758
 20
89.21073280021664
 30
0.0
 10
180.0224916747411
 20
88.93593771495217
 30
0.0
 10
179.763650606912
 20
88.50460358822966
 30
0.0
 10
179.632852578181
 20
88.28664106020733
 30
0.0
  0
SPLINE
  5
182
330
70
100
AcDbEntity
  8
Visible
100
AcDbSpline
210
0.0
220
0.0
230
1.0
 70
     8
 71
     3
 72
     9
 73
     5
 74
     0
 42
0.000000001
 43
0.0000000001
 40
-0.1511606462464768
 40
-0.1511606462464768
 40
-0.1511606462464768
 40
-0.1511606462464768
 40
-0.0745494856696445
 40
0.0
 40
0.0
 40
0.0
 40
0.0
 10
182.106931710261
 20
89.70887821802898
 30
0.0
 10
181.8493554262058
 20
89.69462656319047
 30
0.0
 10
181.3411344664601
 20
89.6665067783033
 30
0.0
 10
180.8795822713037
 20
89.45230706810798
 30
0.0
 10
180.6519537210643
 20
89.34666794428631
 30
0.0
  0
SPLINE
  5
183
330
70
100
AcDbEntity
  8
Visible
100
AcDbSpline
210
0.0
220
0.0
230
1.0
 70
     8
 71
     3
 72
     9
 73
     5
 74
     0
 42
0.000000001
 43
0.0000000001
 40
-0.1603585382052477
 40
-0.1603585382052477
 40
-0.1603585382052477
 40
-0.1603585382052477
 40
-0.0836671175313475
 40
0.0
 40
0.0
 40
0.0
 40
0.0
 10
183.6212568521678
 20
89.25048810133739
 30
0.0
 10
183.3986539091984
 20
89.38411594757054
 30
0.0
 10
182.9332005087908
 20
89.66352615926188
 30
0.0
 10
182.3902278598816
 20
89.69332872172889
 30
0.0
 10
182.106931710261
 20
89.70887821802898
 30
0.0
  0
SPLINE
  5
184
330
70
100
AcDbEntity
  8
Visible
100
AcDbSpline
210
0.0
220
0.0
230
1.0
 70
     8
 71
     3
 72
     9
 73
     5
 74
     0
 42
0.000000001
 43
0.0000000001
 40
-0.1568594546218347
 40
-0.1568594546218347
 40
-0.1568594546218347
 40
-0.1568594546218347
 40
-0.0758546074647251
 40
0.0
 40
0.0
 40
0.0
 40
0.0
 10
184.4766454935252
 20
87.9612658608894
 30
0.0
 10
184.3841897297279
 20
88.21997815531904
 30
0.0
 10
184.2051564842513
 20
88.72095397136581
 30
0.0
 10
183.8115825978202
 20
89.07788313192577
 30
0.0
 10
183.6212568521678
 20
89.25048810133739
 30
0.0
  0
LINE
  5
185
330
70
100
AcDbEntity
  8
Visible
100
AcDbLine
 10
183.694928
 20
87.777091
 30
0.0
 11
184.476645
 21
87.961266
 31
0.0
210
0.0
220
0.0
230
-1.0
  0
SPLINE
  5
186
330
70
100
AcDbEntity
  8
Visible
100
AcDbSpline
210
0.0
220
0.0
230
1.0
 70
     8
 71
     3
 72
     9
 73
     5
 74
     0
 42
0.000000001
 43
0.0000000001
 40
-0.1143294618078514
 40
-0.1143294618078514
 40
-0.1143294618078514
 40
-0.1143294618078514
 40
-0.0620960004902343
 40
0.0
 40
0.0
 40
0.0
 40
0.0
 10
183.0891971826731
 20
88.73070639262005
 30
0.0
 10
183.2161023665667
 20
88.60815639405519
 30
0.0
 10
183.4938745265808
 20
88.33991693553434
 30
0.0
 10
183.6241638691135
 20
87.97518740178929
 30
0.0
 10
183.6949281931102
 20
87.77709108481213
 30
0.0
  0
SPLINE
  5
187
330
70
100
AcDbEntity
  8
Visible
100
AcDbSpline
210
0.0
220
0.0
230
1.0
 70
     8
 71
     3
 72
     9
 73
     5
 74
     0
 42
0.000000001
 43
0.0000000001
 40
-0.1056577751816606
 40
-0.1056577751816606
 40
-0.1056577751816606
 40
-0.1056577751816606
 40
-0.0501055905110417
 40
0.0
 40
0.0
 40
0.0
 40
0.0
 10
182.0905618906199
 20
89.02947884688183
 30
0.0
 10
182.2787516566895
 20
89.01980626781005
 30
0.0
 10
182.6366801902441
 20
89.00140945423663
 30
0.0
 10
182.9436325884489
 20
88.81778551225215
 30
0.0
 10
183.0891971826731
 20
88.73070639262005
 30
0.0
  0
SPLINE
  5
188
330
70
100
AcDbEntity
  8
Visible
100
AcDbSpline
210
0.0
220
0.0
230
1.0
 70
     8
 71
     3
 72
     9
 73
     5
 74
     0
 42
0.000000001
 43
0.0000000001
 40
-0.1217851779773478
 40
-0.1217851779773478
 40
-0.1217851779773478
 40
-0.1217851779773478
 40
-0.0640278592350027
 40
0.0
 40
0.0
 40
0.0
 40
0.0
 10
180.9343533754527
 20
88.69796436915203
 30
0.0
 10
181.1040629514009
 20
88.79458651122332
 30
0.0
 10
181.4619069677355
 20
88.99832077425344
 30
0.0
 10
181.8739386142679
 20
89.01874233065973
 30
0.0
 10
182.0905618906199
 20
89.02947884688183
 30
0.0
  0
SPLINE
  5
189
330
70
100
AcDbEntity
  8
Visible
100
AcDbSpline
210
0.0
220
0.0
230
1.0
 70
     8
 71
     3
 72
     9
 73
     5
 74
     0
 42
0.000000001
 43
0.0000000001
 40
-0.1118232090602299
 40
-0.1118232090602299
 40
-0.1118232090602299
 40
-0.1118232090602299
 40
-0.0554228057958357
 40
0.0
 40
0.0
 40
0.0
 40
0.0
 10
180.2815561533152
 20
87.807786880825
 30
0.0
 10
180.3551367336713
 20
87.98405034660026
 30
0.0
 10
180.5010225100796
 20
88.33352207449934
 30
0.0
 10
180.790754065074
 20
88.57719369166989
 30
0.0
 10
180.9343533754527
 20
88.69796436915203
 30
0.0
  0
ARC
  5
18A
330
70
100
AcDbEntity
  8
Visible
100
AcDbCircle
 10
-183.677025
 20
86.661493
 30
0.0
 40
3.583740652977669
210
0.0
220
0.0
230
-1.0
100
AcDbArc
 50
359.906944
 51
18.654433
  0
SPLINE
  5
18B
330
70
100
AcDbEntity
  8
Visible
100
AcDbSpline
210
0.0
220
0.0
230
1.0
 70
     8
 71
     3
 72
     9
 73
     5
 74
     0
 42
0.000000001
 43
0.0000000001
 40
-0.1360645171069217
 40
-0.1360645171069217
 40
-0.1360645171069217
 40
-0.1360645171069217
 40
-0.0718913012741491
 40
0.0
 40
0.0
 40
0.0
 40
0.0
 10
180.3163461923777
 20
85.31938296446606
 30
0.0
 10
180.2513441328465
 20
85.52430490380174
 30
0.0
 10
180.113522243666
 20
85.95879465717189
 30
0.0
 10
180.1002836763636
 20
86.41475863402229
 30
0.0
 10
180.0932889223277
 20
86.65567260870739
 30
0.0
  0
SPLINE
  5
18C
330
70
100
AcDbEntity
  8
Visible
100
AcDbSpline
210
0.0
220
0.0
230
1.0
 70
     8
 71
     3
 72
     9
 73
     5
 74
     0
 42
0.000000001
 43
0.0000000001
 40
-0.1115560617003017
 40
-0.1115560617003017
 40
-0.1115560617003017
 40
-0.1115560617003017
 40
-0.0574463802069715
 40
0.0
 40
0.0
 40
0.0
 40
0.0
 10
181.0100703478038
 20
84.46604055056377
 30
0.0
 10
180.862468127807
 20
84.57489853092011
 30
0.0
 10
180.5581617281641
 20
84.79932726969854
 30
0.0
 10
180.3985427988409
 20
85.14260849403035
 30
0.0
 10
180.3163461923777
 20
85.31938296446606
 30
0.0
  0
SPLINE
  5
18D
330
70
100
AcDbEntity
  8
Visible
100
AcDbSpline
210
0.0
220
0.0
230
1.0
 70
     8
 71
     3
 72
     9
 73
     5
 74
     0
 42
0.000000001
 43
0.0000000001
 40
-0.1067596331950015
 40
-0.1067596331950015
 40
-0.1067596331950015
 40
-0.1067596331950015
 40
-0.0533917006045711
 40
0.0
 40
0.0
 40
0.0
 40
0.0
 10
182.0291691065013
 20
84.183639108036
 30
0.0
 10
181.8495821277429
 20
84.19541638436204
 30
0.0
 10
181.4903281891293
 20
84.21897618215552
 30
0.0
 10
181.1701800532228
 20
84.38367353884315
 30
0.0
 10
181.0100703478038
 20
84.46604055056377
 30
0.0
  0
SPLINE
  5
18E
330
70
100
AcDbEntity
  8
Visible
100
AcDbSpline
210
0.0
220
0.0
230
1.0
 70
     8
 71
     3
 72
     9
 73
     5
 74
     0
 42
0.000000001
 43
0.0000000001
 40
-0.1212565334984217
 40
-0.1212565334984217
 40
-0.1212565334984217
 40
-0.1212565334984217
 40
-0.0623425464651908
 40
0.0
 40
0.0
 40
0.0
 40
0.0
 10
183.1587748766123
 20
84.56835967192455
 30
0.0
 10
182.9931023870686
 20
84.45617458061134
 30
0.0
 10
182.6521159288495
 20
84.22527567242832
 30
0.0
 10
182.2406957177736
 20
84.19777713885196
 30
0.0
 10
182.0291691065013
 20
84.183639108036
 30
0.0
  0
SPLINE
  5
18F
330
70
100
AcDbEntity
  8
Visible
100
AcDbSpline
210
0.0
220
0.0
230
1.0
 70
     8
 71
     3
 72
     9
 73
     5
 74
     0
 42
0.000000001
 43
0.0000000001
 40
-0.1320937677806302
 40
-0.1320937677806302
 40
-0.1320937677806302
 40
-0.1320937677806302
 40
-0.061538784892807
 40
0.0
 40
0.0
 40
0.0
 40
0.0
 10
183.7849669695079
 20
85.71024221072002
 30
0.0
 10
183.7238550144284
 20
85.47854650978479
 30
0.0
 10
183.6094405808544
 20
85.04476342512679
 30
0.0
 10
183.3020019293417
 20
84.71976659026404
 30
0.0
 10
183.1587748766123
 20
84.56835967192455
 30
0.0
  0
LINE
  5
190
330
70
100
AcDbEntity
  8
Visible
100
AcDbLine
 10
175.525761
 20
84.314608
 30
0.0
 11
174.244724
 21
84.314608
 31
0.0
210
0.0
220
0.0
230
-1.0
  0
SPLINE
  5
191
330
70
100
AcDbEntity
  8
Visible
100
AcDbSpline
210
0.0
220
0.0
230
1.0
 70
     8
 71
     3
 72
     9
 73
     5
 74
     0
 42
0.000000001
 43
0.0000000001
 40
-0.0940287352133199
 40
-0.0940287352133199
 40
-0.0940287352133199
 40
-0.0940287352133199
 40
-0.0530221630578356
 40
0.0
 40
0.0
 40
0.0
 40
0.0
 10
176.4568655729472
 20
84.42511302122875
 30
0.0
 10
176.3235725371523
 20
84.39301559711566
 30
0.0
 10
176.0179294436275
 20
84.31941568289948
 30
0.0
 10
175.703222341659
 20
84.31634137770561
 30
0.0
 10
175.5257611513316
 20
84.31460779795452
 30
0.0
  0
SPLINE
  5
192
330
70
100
AcDbEntity
  8
Visible
100
AcDbSpline
210
0.0
220
0.0
230
1.0
 70
     8
 71
     3
 72
     9
 73
     5
 74
     0
 42
0.000000001
 43
0.0000000001
 40
-0.0625939848222964
 40
-0.0625939848222964
 40
-0.0625939848222964
 40
-0.0625939848222964
 40
-0.033125597296987
 40
0.0
 40
0.0
 40
0.0
 40
0.0
 10
176.9950657129466
 20
84.73616343626781
 30
0.0
 10
176.9195422302637
 20
84.67213347601319
 30
0.0
 10
176.759122332005
 20
84.53612704006991
 30
0.0
 10
176.5614673217133
 20
84.46353155170072
 30
0.0
 10
176.4568655729472
 20
84.42511302122875
 30
0.0
  0
SPLINE
  5
193
330
70
100
AcDbEntity
  8
Visible
100
AcDbSpline
210
0.0
220
0.0
230
1.0
 70
     8
 71
     3
 72
     9
 73
     5
 74
     0
 42
0.000000001
 43
0.0000000001
 40
-0.0883496658880941
 40
-0.0883496658880941
 40
-0.0883496658880941
 40
-0.0883496658880941
 40
-0.0415524468987554
 40
0.0
 40
0.0
 40
0.0
 40
0.0
 10
177.435038590449
 20
85.49537163862988
 30
0.0
 10
177.3804208296678
 20
85.3477435523364
 30
0.0
 10
177.2773065630353
 20
85.06903271478405
 30
0.0
 10
177.0853475234908
 20
84.84264001869632
 30
0.0
 10
176.9950657129466
 20
84.73616343626781
 30
0.0
  0
SPLINE
  5
194
330
70
100
AcDbEntity
  8
Visible
100
AcDbSpline
210
0.0
220
0.0
230
1.0
 70
     8
 71
     3
 72
     9
 73
     5
 74
     0
 42
0.000000001
 43
0.0000000001
 40
-0.1170517120196839
 40
-0.1170517120196839
 40
-0.1170517120196839
 40
-0.1170517120196839
 40
-0.0540532791119834
 40
0.0
 40
0.0
 40
0.0
 40
0.0
 10
177.5926094293772
 20
86.65157896170422
 30
0.0
 10
177.588300011992
 20
86.44073855875831
 30
0.0
 10
177.5802930718291
 20
86.04899500278952
 30
0.0
 10
177.4809255103591
 20
85.67026518222519
 30
0.0
 10
177.435038590449
 20
85.49537163862988
 30
0.0
  0
SPLINE
  5
195
330
70
100
AcDbEntity
  8
Visible
100
AcDbSpline
210
0.0
220
0.0
230
1.0
 70
     8
 71
     3
 72
     9
 73
     5
 74
     0
 42
0.000000001
 43
0.0000000001
 40
-0.1492625495293272
 40
-0.1492625495293272
 40
-0.1492625495293272
 40
-0.1492625495293272
 40
-0.0835944359270419
 40
0.0
 40
0.0
 40
0.0
 40
0.0
 10
177.2836058378398
 20
88.09837353119656
 30
0.0
 10
177.3734001531666
 20
87.89645663951523
 30
0.0
 10
177.577501165113
 20
87.43750284303677
 30
0.0
 10
177.5871856417834
 20
86.93372151118637
 30
0.0
 10
177.5926094293772
 20
86.65157896170422
 30
0.0
  0
SPLINE
  5
196
330
70
100
AcDbEntity
  8
Visible
100
AcDbSpline
210
0.0
220
0.0
230
1.0
 70
     8
 71
     3
 72
     9
 73
     5
 74
     0
 42
0.000000001
 43
0.0000000001
 40
-0.1025331464878742
 40
-0.1025331464878742
 40
-0.1025331464878742
 40
-0.1025331464878742
 40
-0.054339766800062
 40
0.0
 40
0.0
 40
0.0
 40
0.0
 10
176.5325825452983
 20
88.7757269729118
 30
0.0
 10
176.6770802671362
 20
88.6999567471903
 30
0.0
 10
176.9845043609912
 20
88.53875287014853
 30
0.0
 10
177.1799990126656
 20
88.25091809788137
 30
0.0
 10
177.2836058378398
 20
88.09837353119656
 30
0.0
  0
SPLINE
  5
197
330
70
100
AcDbEntity
  8
Visible
100
AcDbSpline
210
0.0
220
0.0
230
1.0
 70
     8
 71
     3
 72
     9
 73
     5
 74
     0
 42
0.000000001
 43
0.0000000001
 40
-0.1038115633463192
 40
-0.1038115633463192
 40
-0.1038115633463192
 40
-0.1038115633463192
 40
-0.0426499778045859
 40
0.0
 40
0.0
 40
0.0
 40
0.0
 10
175.5052976846873
 20
88.89850956091686
 30
0.0
 10
175.7102536064412
 20
88.89823049356346
 30
0.0
 10
176.0581320086421
 20
88.89775682339859
 30
0.0
 10
176.3944213276918
 20
88.8112623795023
 30
0.0
 10
176.5325825452983
 20
88.7757269729118
 30
0.0
  0
LINE
  5
198
330
70
100
AcDbEntity
  8
Visible
100
AcDbLine
 10
174.244724
 20
88.89851
 30
0.0
 11
175.505298
 21
88.89851
 31
0.0
210
0.0
220
0.0
230
-1.0
  0
LINE
  5
199
330
70
100
AcDbEntity
  8
Visible
100
AcDbLine
 10
174.244724
 20
84.314608
 30
0.0
 11
174.244724
 21
88.89851
 31
0.0
210
0.0
220
0.0
230
-1.0
  0
LINE
  5
19A
330
70
100
AcDbEntity
  8
Visible
100
AcDbLine
 10
173.450727
 20
89.606559
 30
0.0
 11
173.450727
 21
83.606559
 31
0.0
210
0.0
220
0.0
230
-1.0
  0
LINE
  5
19B
330
70
100
AcDbEntity
  8
Visible
100
AcDbLine
 10
175.517575
 20
89.606559
 30
0.0
 11
173.450727
 21
89.606559
 31
0.0
210
0.0
220
0.0
230
-1.0
  0
ARC
  5
19C
330
70
100
AcDbEntity
  8
Visible
100
AcDbCircle
 10
-175.65191
 20
84.594994
 30
0.0
 40
5.013365511713605
210
0.0
220
0.0
230
-1.0
100
AcDbArc
 50
88.464554
 51
100.735631
  0
SPLINE
  5
19D
330
70
100
AcDbEntity
  8
Visible
100
AcDbSpline
210
0.0
220
0.0
230
1.0
 70
     8
 71
     3
 72
     9
 73
     5
 74
     0
 42
0.000000001
 43
0.0000000001
 40
-0.0986563733620062
 40
-0.0986563733620062
 40
-0.0986563733620062
 40
-0.0986563733620062
 40
-0.0506100245304054
 40
0.0
 40
0.0
 40
0.0
 40
0.0
 10
177.4657337904154
 20
89.09086984286114
 30
0.0
 10
177.3358762071839
 20
89.18701578570471
 30
0.0
 10
177.0692320494763
 20
89.38443786386415
 30
0.0
 10
176.7497037844095
 20
89.47444034715408
 30
0.0
 10
176.5857880354106
 20
89.52061098704144
 30
0.0
  0
SPLINE
  5
19E
330
70
100
AcDbEntity
  8
Visible
100
AcDbSpline
210
0.0
220
0.0
230
1.0
 70
     8
 71
     3
 72
     9
 73
     5
 74
     0
 42
0.000000001
 43
0.0000000001
 40
-0.1257606909512835
 40
-0.1257606909512835
 40
-0.1257606909512835
 40
-0.1257606909512835
 40
-0.0617140492196095
 40
0.0
 40
0.0
 40
0.0
 40
0.0
 10
178.1758289575755
 20
88.06563120970531
 30
0.0
 10
178.0889242616958
 20
88.26309304735151
 30
0.0
 10
177.9182799577138
 20
88.65082511990658
 30
0.0
 10
177.6147056274603
 20
88.94601330556724
 30
0.0
 10
177.4657337904154
 20
89.09086984286114
 30
0.0
  0
SPLINE
  5
19F
330
70
100
AcDbEntity
  8
Visible
100
AcDbSpline
210
0.0
220
0.0
230
1.0
 70
     8
 71
     3
 72
     9
 73
     5
 74
     0
 42
0.000000001
 43
0.0000000001
 40
-0.1451513448327925
 40
-0.1451513448327925
 40
-0.1451513448327925
 40
-0.1451513448327925
 40
-0.0691558698038816
 40
0.0
 40
0.0
 40
0.0
 40
0.0
 10
178.4111624002635
 20
86.63930100092693
 30
0.0
 10
178.4033421020285
 20
86.89385609528835
 30
0.0
 10
178.3884053336842
 20
87.3800562837423
 30
0.0
 10
178.2444262944154
 20
87.84439959880911
 30
0.0
 10
178.1758289575755
 20
88.06563120970531
 30
0.0
  0
ARC
  5
1A0
330
70
100
AcDbEntity
  8
Visible
100
AcDbCircle
 10
-174.220772
 20
86.575163
 30
0.0
 40
4.190880948944395
210
0.0
220
0.0
230
-1.0
100
AcDbArc
 50
179.1231
 51
195.888502
  0
SPLINE
  5
1A1
330
70
100
AcDbEntity
  8
Visible
100
AcDbSpline
210
0.0
220
0.0
230
1.0
 70
     8
 71
     3
 72
     9
 73
     5
 74
     0
 42
0.000000001
 43
0.0000000001
 40
-0.0968182133098455
 40
-0.0968182133098455
 40
-0.0968182133098455
 40
-0.0968182133098455
 40
-0.0515669247724098
 40
0.0
 40
0.0
 40
0.0
 40
0.0
 10
177.8422682523905
 20
84.55403488764568
 30
0.0
 10
177.9232289132705
 20
84.6820009748335
 30
0.0
 10
178.0964497604163
 20
84.955793132498
 30
0.0
 10
178.1976467820132
 20
85.26379477595037
 30
0.0
 10
178.2515459299266
 20
85.4278413642387
 30
0.0
  0
SPLINE
  5
1A2
330
70
100
AcDbEntity
  8
Visible
100
AcDbSpline
210
0.0
220
0.0
230
1.0
 70
     8
 71
     3
 72
     9
 73
     5
 74
     0
 42
0.000000001
 43
0.0000000001
 40
-0.0774328074855349
 40
-0.0774328074855349
 40
-0.0774328074855349
 40
-0.0774328074855349
 40
-0.0404755638345695
 40
0.0
 40
0.0
 40
0.0
 40
0.0
 10
177.2958832025706
 20
84.00969666132732
 30
0.0
 10
177.3945491983595
 20
84.08441774216408
 30
0.0
 10
177.6012741676131
 20
84.24097333170356
 30
0.0
 10
177.7595398476733
 20
84.44656717479483
 30
0.0
 10
177.8422682523905
 20
84.55403488764568
 30
0.0
  0
SPLINE
  5
1A3
330
70
100
AcDbEntity
  8
Visible
100
AcDbSpline
210
0.0
220
0.0
230
1.0
 70
     8
 71
     3
 72
     9
 73
     5
 74
     0
 42
0.000000001
 43
0.0000000001
 40
-0.0779829434171551
 40
-0.0779829434171551
 40
-0.0779829434171551
 40
-0.0779829434171551
 40
-0.0370996449328988
 40
0.0
 40
0.0
 40
0.0
 40
0.0
 10
176.5796487569987
 20
83.7088779796104
 30
0.0
 10
176.7117001794067
 20
83.7452428307588
 30
0.0
 10
176.9635819742652
 20
83.81460705122663
 30
0.0
 10
177.1887578957994
 20
83.94680482539843
 30
0.0
 10
177.2958832025706
 20
84.00969666132732
 30
0.0
  0
ARC
  5
1A4
330
70
100
AcDbEntity
  8
Visible
100
AcDbCircle
 10
-175.669243
 20
87.694026
 30
0.0
 40
4.087816157628838
210
0.0
220
0.0
230
-1.0
100
AcDbArc
 50
257.131627
 51
270.749058
  0
LINE
  5
1A5
330
70
100
AcDbEntity
  8
Visible
100
AcDbLine
 10
173.450727
 20
83.606559
 30
0.0
 11
175.615802
 21
83.606559
 31
0.0
210
0.0
220
0.0
230
-1.0
  0
LINE
  5
1A6
330
70
100
AcDbEntity
  8
Visible
100
AcDbLine
 10
170.27883
 20
86.148169
 30
0.0
 11
170.27883
 21
85.407377
 31
0.0
210
0.0
220
0.0
230
-1.0
  0
LINE
  5
1A7
330
70
100
AcDbEntity
  8
Visible
100
AcDbLine
 10
172.542131
 20
86.148169
 30
0.0
 11
170.27883
 21
86.148169
 31
0.0
210
0.0
220
0.0
230
-1.0
  0
LINE
  5
1A8
330
70
100
AcDbEntity
  8
Visible
100
AcDbLine
 10
172.542131
 20
85.407377
 30
0.0
 11
172.542131
 21
86.148169
 31
0.0
210
0.0
220
0.0
230
-1.0
  0
LINE
  5
1A9
330
70
100
AcDbEntity
  8
Visible
100
AcDbLine
 10
170.27883
 20
85.407377
 30
0.0
 11
172.542131
 21
85.407377
 31
0.0
210
0.0
220
0.0
230
-1.0
  0
LINE
  5
1AA
330
70
100
AcDbEntity
  8
Visible
100
AcDbLine
 10
169.681285
 20
85.509697
 30
0.0
 11
168.887288
 21
85.710242
 31
0.0
210
0.0
220
0.0
230
-1.0
  0
SPLINE
  5
1AB
330
70
100
AcDbEntity
  8
Visible
100
AcDbSpline
210
0.0
220
0.0
230
1.0
 70
     8
 71
     3
 72
     9
 73
     5
 74
     0
 42
0.000000001
 43
0.0000000001
 40
-0.1765602022638319
 40
-0.1765602022638319
 40
-0.1765602022638319
 40
-0.1765602022638319
 40
-0.0930165349245068
 40
0.0
 40
0.0
 40
0.0
 40
0.0
 10
168.7829225301921
 20
84.01788216719433
 30
0.0
 10
168.9844448810472
 20
84.21641328215811
 30
0.0
 10
169.4103398430616
 20
84.63598660147727
 30
0.0
 10
169.5877962495669
 20
85.20822621546903
 30
0.0
 10
169.6812849283396
 20
85.50969701895519
 30
0.0
  0
SPLINE
  5
1AC
330
70
100
AcDbEntity
  8
Visible
100
AcDbSpline
210
0.0
220
0.0
230
1.0
 70
     8
 71
     3
 72
     9
 73
     5
 74
     0
 42
0.000000001
 43
0.0000000001
 40
-0.1691907979976162
 40
-0.1691907979976162
 40
-0.1691907979976162
 40
-0.1691907979976162
 40
-0.0817320780004673
 40
0.0
 40
0.0
 40
0.0
 40
0.0
 10
167.1969740629374
 20
83.50423973688885
 30
0.0
 10
167.4934217792961
 20
83.52259159967799
 30
0.0
 10
168.0669063408932
 20
83.55809367780421
 30
0.0
 10
168.5496975171245
 20
83.86811715063776
 30
0.0
 10
168.7829225301921
 20
84.01788216719433
 30
0.0
  0
SPLINE
  5
1AD
330
70
100
AcDbEntity
  8
Visible
100
AcDbSpline
210
0.0
220
0.0
230
1.0
 70
     8
 71
     3
 72
     9
 73
     5
 74
     0
 42
0.000000001
 43
0.0000000001
 40
-0.1643514302116634
 40
-0.1643514302116634
 40
-0.1643514302116634
 40
-0.1643514302116634
 40
-0.0884959281493692
 40
0.0
 40
0.0
 40
0.0
 40
0.0
 10
165.6192116975962
 20
83.89919203409954
 30
0.0
 10
165.8477193753806
 20
83.78417839810571
 30
0.0
 10
166.3428128443738
 20
83.53498545816728
 30
0.0
 10
166.8980198230511
 20
83.51500066062909
 30
0.0
 10
167.1969740629374
 20
83.50423973688885
 30
0.0
  0
SPLINE
  5
1AE
330
70
100
AcDbEntity
  8
Visible
100
AcDbSpline
210
0.0
220
0.0
230
1.0
 70
     8
 71
     3
 72
     9
 73
     5
 74
     0
 42
0.000000001
 43
0.0000000001
 40
-0.1488114128447302
 40
-0.1488114128447302
 40
-0.1488114128447302
 40
-0.1488114128447302
 40
-0.072117656081715
 40
0.0
 40
0.0
 40
0.0
 40
0.0
 10
164.6942459583461
 20
85.04312080035015
 30
0.0
 10
164.808794714052
 20
84.81039455823703
 30
0.0
 10
165.0310574235063
 20
84.35882819408107
 30
0.0
 10
165.4272210832878
 20
84.04923060833244
 30
0.0
 10
165.6192116975962
 20
83.89919203409954
 30
0.0
  0
SPLINE
  5
1AF
330
70
100
AcDbEntity
  8
Visible
100
AcDbSpline
210
0.0
220
0.0
230
1.0
 70
     8
 71
     3
 72
     9
 73
     5
 74
     0
 42
0.000000001
 43
0.0000000001
 40
-0.1647848982072161
 40
-0.1647848982072161
 40
-0.1647848982072161
 40
-0.1647848982072161
 40
-0.0812222442698296
 40
0.0
 40
0.0
 40
0.0
 40
0.0
 10
164.3770562648951
 20
86.65157955775066
 30
0.0
 10
164.3895054446184
 20
86.37151592155351
 30
0.0
 10
164.4140551293985
 20
85.81923262742748
 30
0.0
 10
164.6017375550455
 20
85.29936354096752
 30
0.0
 10
164.6942459583461
 20
85.04312080035015
 30
0.0
  0
SPLINE
  5
1B0
330
70
100
AcDbEntity
  8
Visible
100
AcDbSpline
210
0.0
220
0.0
230
1.0
 70
     8
 71
     3
 72
     9
 73
     5
 74
     0
 42
0.000000001
 43
0.0000000001
 40
-0.1685815011393718
 40
-0.1685815011393718
 40
-0.1685815011393718
 40
-0.1685815011393718
 40
-0.0881943499638926
 40
0.0
 40
0.0
 40
0.0
 40
0.0
 10
164.7351734876811
 20
88.28664106020733
 30
0.0
 10
164.6307837308795
 20
88.03742454387066
 30
0.0
 10
164.4118658858296
 20
87.51478760726604
 30
0.0
 10
164.3890122641733
 20
86.94806410831734
 30
0.0
 10
164.3770562648951
 20
86.65157955775066
 30
0.0
  0
SPLINE
  5
1B1
330
70
100
AcDbEntity
  8
Visible
100
AcDbSpline
210
0.0
220
0.0
230
1.0
 70
     8
 71
     3
 72
     9
 73
     5
 74
     0
 42
0.000000001
 43
0.0000000001
 40
-0.1487636061916674
 40
-0.1487636061916674
 40
-0.1487636061916674
 40
-0.1487636061916674
 40
-0.0751733740762731
 40
0.0
 40
0.0
 40
0.0
 40
0.0
 10
165.7542734384715
 20
89.34666794428631
 30
0.0
 10
165.5459462831441
 20
89.21073297486691
 30
0.0
 10
165.1248102437112
 20
88.93593867571871
 30
0.0
 10
164.8659705966711
 20
88.50460368736822
 30
0.0
 10
164.7351734876811
 20
88.28664106020733
 30
0.0
  0
SPLINE
  5
1B2
330
70
100
AcDbEntity
  8
Visible
100
AcDbSpline
210
0.0
220
0.0
230
1.0
 70
     8
 71
     3
 72
     9
 73
     5
 74
     0
 42
0.000000001
 43
0.0000000001
 40
-0.1511607719809829
 40
-0.1511607719809829
 40
-0.1511607719809829
 40
-0.1511607719809829
 40
-0.0745493746568585
 40
0.0
 40
0.0
 40
0.0
 40
0.0
 10
167.2092526197612
 20
89.70887821802898
 30
0.0
 10
166.951675503049
 20
89.69462670716167
 30
0.0
 10
166.4434540481925
 20
89.6665072698488
 30
0.0
 10
165.9819015900884
 20
89.4523070662599
 30
0.0
 10
165.7542734384715
 20
89.34666794428631
 30
0.0
  0
SPLINE
  5
1B3
330
70
100
AcDbEntity
  8
Visible
100
AcDbSpline
210
0.0
220
0.0
230
1.0
 70
     8
 71
     3
 72
     9
 73
     5
 74
     0
 42
0.000000001
 43
0.0000000001
 40
-0.1603585382052477
 40
-0.1603585382052477
 40
-0.1603585382052477
 40
-0.1603585382052477
 40
-0.0836671175313475
 40
0.0
 40
0.0
 40
0.0
 40
0.0
 10
168.7235777616679
 20
89.25048810133739
 30
0.0
 10
168.5009748186985
 20
89.38411594757054
 30
0.0
 10
168.0355214182909
 20
89.66352615926188
 30
0.0
 10
167.4925487693817
 20
89.69332872172889
 30
0.0
 10
167.2092526197612
 20
89.70887821802898
 30
0.0
  0
SPLINE
  5
1B4
330
70
100
AcDbEntity
  8
Visible
100
AcDbSpline
210
0.0
220
0.0
230
1.0
 70
     8
 71
     3
 72
     9
 73
     5
 74
     0
 42
0.000000001
 43
0.0000000001
 40
-0.1568593894041004
 40
-0.1568593894041004
 40
-0.1568593894041004
 40
-0.1568593894041004
 40
-0.0758544437703169
 40
0.0
 40
0.0
 40
0.0
 40
0.0
 10
169.5789664030253
 20
87.9612658608894
 30
0.0
 10
169.486509612765
 20
88.21997800519602
 30
0.0
 10
169.307474671712
 20
88.72095271322178
 30
0.0
 10
168.9139023965472
 20
89.07788292452279
 30
0.0
 10
168.7235777616679
 20
89.25048810133739
 30
0.0
  0
LINE
  5
1B5
330
70
100
AcDbEntity
  8
Visible
100
AcDbLine
 10
168.797248
 20
87.777091
 30
0.0
 11
169.578966
 21
87.961266
 31
0.0
210
0.0
220
0.0
230
-1.0
  0
SPLINE
  5
1B6
330
70
100
AcDbEntity
  8
Visible
100
AcDbSpline
210
0.0
220
0.0
230
1.0
 70
     8
 71
     3
 72
     9
 73
     5
 74
     0
 42
0.000000001
 43
0.0000000001
 40
-0.1143294771856641
 40
-0.1143294771856641
 40
-0.1143294771856641
 40
-0.1143294771856641
 40
-0.0620959759366219
 40
0.0
 40
0.0
 40
0.0
 40
0.0
 10
168.1915169000804
 20
88.73070639262005
 30
0.0
 10
168.3184223536791
 20
88.60815644032118
 30
0.0
 10
168.5961949290413
 20
88.33991725205123
 30
0.0
 10
168.7264838519368
 20
87.97518744516674
 30
0.0
 10
168.7972479105174
 20
87.77709108481213
 30
0.0
  0
SPLINE
  5
1B7
330
70
100
AcDbEntity
  8
Visible
100
AcDbSpline
210
0.0
220
0.0
230
1.0
 70
     8
 71
     3
 72
     9
 73
     5
 74
     0
 42
0.000000001
 43
0.0000000001
 40
-0.1056577751816606
 40
-0.1056577751816606
 40
-0.1056577751816606
 40
-0.1056577751816606
 40
-0.0501055905110417
 40
0.0
 40
0.0
 40
0.0
 40
0.0
 10
167.1928816080271
 20
89.02947884688183
 30
0.0
 10
167.3810713740968
 20
89.01980626781005
 30
0.0
 10
167.7389999076513
 20
89.00140945423663
 30
0.0
 10
168.0459523058562
 20
88.81778551225215
 30
0.0
 10
168.1915169000804
 20
88.73070639262005
 30
0.0
  0
SPLINE
  5
1B8
330
70
100
AcDbEntity
  8
Visible
100
AcDbSpline
210
0.0
220
0.0
230
1.0
 70
     8
 71
     3
 72
     9
 73
     5
 74
     0
 42
0.000000001
 43
0.0000000001
 40
-0.121785059770957
 40
-0.121785059770957
 40
-0.121785059770957
 40
-0.121785059770957
 40
-0.0640277410286119
 40
0.0
 40
0.0
 40
0.0
 40
0.0
 10
166.0366742849528
 20
88.69796436915203
 30
0.0
 10
166.2063838583817
 20
88.79458651365167
 30
0.0
 10
166.5642275220761
 20
88.99832058405991
 30
0.0
 10
166.9762587443783
 20
89.01874227128429
 30
0.0
 10
167.1928816080271
 20
89.02947884688183
 30
0.0
  0
SPLINE
  5
1B9
330
70
100
AcDbEntity
  8
Visible
100
AcDbSpline
210
0.0
220
0.0
230
1.0
 70
     8
 71
     3
 72
     9
 73
     5
 74
     0
 42
0.000000001
 43
0.0000000001
 40
-0.1118232125344654
 40
-0.1118232125344654
 40
-0.1118232125344654
 40
-0.1118232125344654
 40
-0.0554228908561993
 40
0.0
 40
0.0
 40
0.0
 40
0.0
 10
165.3838776588618
 20
87.807786880825
 30
0.0
 10
165.4574575097613
 20
87.9840504323729
 30
0.0
 10
165.6033420554613
 20
88.33352284672036
 30
0.0
 10
165.8930743781529
 20
88.57719382615142
 30
0.0
 10
166.0366742849528
 20
88.69796436915203
 30
0.0
  0
ARC
  5
1BA
330
70
100
AcDbEntity
  8
Visible
100
AcDbCircle
 10
-168.77939
 20
86.661486
 30
0.0
 40
3.58378411644116
210
0.0
220
0.0
230
-1.0
100
AcDbArc
 50
359.907058
 51
18.654318
  0
SPLINE
  5
1BB
330
70
100
AcDbEntity
  8
Visible
100
AcDbSpline
210
0.0
220
0.0
230
1.0
 70
     8
 71
     3
 72
     9
 73
     5
 74
     0
 42
0.000000001
 43
0.0000000001
 40
-0.1360644704920401
 40
-0.1360644704920401
 40
-0.1360644704920401
 40
-0.1360644704920401
 40
-0.0718913012741491
 40
0.0
 40
0.0
 40
0.0
 40
0.0
 10
165.418665909785
 20
85.31938296446606
 30
0.0
 10
165.3536645875629
 20
85.5243049409437
 30
0.0
 10
165.2158442087802
 20
85.95879493982465
 30
0.0
 10
165.2026053423524
 20
86.41475867773442
 30
0.0
 10
165.1956104278742
 20
86.65567260870739
 30
0.0
  0
SPLINE
  5
1BC
330
70
100
AcDbEntity
  8
Visible
100
AcDbSpline
210
0.0
220
0.0
230
1.0
 70
     8
 71
     3
 72
     9
 73
     5
 74
     0
 42
0.000000001
 43
0.0000000001
 40
-0.1115560758054209
 40
-0.1115560758054209
 40
-0.1115560758054209
 40
-0.1115560758054209
 40
-0.0574464393398195
 40
0.0
 40
0.0
 40
0.0
 40
0.0
 10
166.1123906612574
 20
84.46604055056377
 30
0.0
 10
165.9647887493847
 20
84.57489861055909
 30
0.0
 10
165.6604826932853
 20
84.7993277286605
 30
0.0
 10
165.5008629893527
 20
85.14260854468011
 30
0.0
 10
165.418665909785
 20
85.31938296446606
 30
0.0
  0
SPLINE
  5
1BD
330
70
100
AcDbEntity
  8
Visible
100
AcDbSpline
210
0.0
220
0.0
230
1.0
 70
     8
 71
     3
 72
     9
 73
     5
 74
     0
 42
0.000000001
 43
0.0000000001
 40
-0.1067596966423991
 40
-0.1067596966423991
 40
-0.1067596966423991
 40
-0.1067596966423991
 40
-0.0533916458904028
 40
0.0
 40
0.0
 40
0.0
 40
0.0
 10
167.1314900160014
 20
84.183639108036
 30
0.0
 10
166.9519026178404
 20
84.19541630819002
 30
0.0
 10
166.5926484221527
 20
84.21897591544803
 30
0.0
 10
166.2725001670551
 20
84.38367353882677
 30
0.0
 10
166.1123906612574
 20
84.46604055056377
 30
0.0
  0
SPLINE
  5
1BE
330
70
100
AcDbEntity
  8
Visible
100
AcDbSpline
210
0.0
220
0.0
230
1.0
 70
     8
 71
     3
 72
     9
 73
     5
 74
     0
 42
0.000000001
 43
0.0000000001
 40
-0.1212564364897957
 40
-0.1212564364897957
 40
-0.1212564364897957
 40
-0.1212564364897957
 40
-0.0623426053562242
 40
0.0
 40
0.0
 40
0.0
 40
0.0
 10
168.2610945940196
 20
84.56835967192455
 30
0.0
 10
168.0954227114434
 20
84.4561745837309
 30
0.0
 10
167.7544368729523
 20
84.22527525568147
 30
0.0
 10
167.3430168827563
 20
84.19777701363273
 30
0.0
 10
167.1314900160014
 20
84.183639108036
 30
0.0
  0
SPLINE
  5
1BF
330
70
100
AcDbEntity
  8
Visible
100
AcDbSpline
210
0.0
220
0.0
230
1.0
 70
     8
 71
     3
 72
     9
 73
     5
 74
     0
 42
0.000000001
 43
0.0000000001
 40
-0.1320938777402695
 40
-0.1320938777402695
 40
-0.1320938777402695
 40
-0.1320938777402695
 40
-0.0615389351330047
 40
0.0
 40
0.0
 40
0.0
 40
0.0
 10
168.887287879008
 20
85.71024221072002
 30
0.0
 10
168.8261765257684
 20
85.4785463773951
 30
0.0
 10
168.7117630584052
 20
85.04476243612771
 30
0.0
 10
168.4043226811645
 20
84.71976644213283
 30
0.0
 10
168.2610945940196
 20
84.56835967192455
 30
0.0
  0
LINE
  5
1C0
330
70
100
AcDbEntity
  8
Visible
100
AcDbLine
 10
146.520367
 20
83.628658
 30
0.0
 11
146.520367
 21
98.979552
 31
0.0
210
0.0
220
0.0
230
-1.0
  0
LINE
  5
1C1
330
70
100
AcDbEntity
  8
Visible
100
AcDbLine
 10
146.520367
 20
98.979552
 30
0.0
 11
194.520367
 21
98.979552
 31
0.0
210
0.0
220
0.0
230
-1.0
  0
LINE
  5
1C2
330
70
100
AcDbEntity
  8
Visible
100
AcDbLine
 10
194.520367
 20
98.979552
 30
0.0
 11
194.520367
 21
73.979552
 31
0.0
210
0.0
220
0.0
230
-1.0
  0
LINE
  5
1C3
330
70
100
AcDbEntity
  8
Visible
100
AcDbLine
 10
194.520367
 20
73.979552
 30
0.0
 11
161.048864
 21
73.979552
 31
0.0
210
0.0
220
0.0
230
-1.0
  0
LINE
  5
1C4
330
70
100
AcDbEntity
  8
Visible
100
AcDbLine
 10
152.953437
 20
158.228899
 30
0.0
 11
157.790949
 21
102.935888
 31
0.0
210
0.0
220
0.0
230
-1.0
  0
LINE
  5
1C5
330
70
100
AcDbEntity
  8
Visible
100
AcDbLine
 10
157.790949
 20
102.935888
 30
0.0
 11
116.957754
 21
99.363446
 31
0.0
210
0.0
220
0.0
230
-1.0
  0
LINE
  5
1C6
330
70
100
AcDbEntity
  8
Visible
100
AcDbLine
 10
116.957754
 20
99.363446
 30
0.0
 11
112.120242
 21
154.656457
 31
0.0
210
0.0
220
0.0
230
-1.0
  0
LINE
  5
1C7
330
70
100
AcDbEntity
  8
Visible
100
AcDbLine
 10
112.120242
 20
154.656457
 30
0.0
 11
128.360887
 21
156.07733
 31
0.0
210
0.0
220
0.0
230
-1.0
  0
ARC
  5
1C8
330
70
100
AcDbEntity
  8
Visible
100
AcDbCircle
 10
133.121292
 20
157.606559
 30
0.0
 40
5.0
100
AcDbArc
 50
352.190933
 51
197.809067
  0
LINE
  5
1C9
330
70
100
AcDbEntity
  8
Visible
100
AcDbLine
 10
138.074924
 20
156.927198
 30
0.0
 11
152.953437
 21
158.228899
 31
0.0
210
0.0
220
0.0
230
-1.0
  0
CIRCLE
  5
1CA
330
70
100
AcDbEntity
  8
Visible
100
AcDbCircle
 10
-164.620975
 20
199.106596
 30
0.0
 40
1.500000000000003
210
0.0
220
0.0
230
-1.0
  0
CIRCLE
  5
1CB
330
70
100
AcDbEntity
  8
Visible
100
AcDbCircle
 10
-247.620975
 20
199.106596
 30
0.0
 40
1.500000000000003
210
0.0
220
0.0
230
-1.0
  0
CIRCLE
  5
1CC
330
70
100
AcDbEntity
  8
Visible
100
AcDbCircle
 10
-164.620975
 20
116.106596
 30
0.0
 40
1.500000000000003
210
0.0
220
0.0
230
-1.0
  0
CIRCLE
  5
1CD
330
70
100
AcDbEntity
  8
Visible
100
AcDbCircle
 10
-247.620975
 20
116.106596
 30
0.0
 40
1.500000000000003
210
0.0
220
0.0
230
-1.0
  0
CIRCLE
  5
1CE
330
70
100
AcDbEntity
  8
Visible
100
AcDbCircle
 10
206.121291
 20
84.606561
 30
0.0
 40
5.0
  0
CIRCLE
  5
1CF
330
70
100
AcDbEntity
  8
Visible
100
AcDbCircle
 10
206.121291
 20
200.606559
 30
0.0
 40
1.499999999999999
  0
CIRCLE
  5
1D0
330
70
100
AcDbEntity
  8
Visible
100
AcDbCircle
 10
279.121289
 20
157.606559
 30
0.0
 40
5.0
  0
CIRCLE
  5
1D1
330
70
100
AcDbEntity
  8
Visible
100
AcDbCircle
 10
206.121291
 20
230.606558
 30
0.0
 40
5.0
  0
CIRCLE
  5
1D2
330
70
100
AcDbEntity
  8
Visible
100
AcDbCircle
 10
206.121291
 20
114.60656
 30
0.0
 40
1.499999999999999
  0
CIRCLE
  5
1D3
330
70
100
AcDbEntity
  8
Visible
100
AcDbCircle
 10
249.12129
 20
157.606559
 30
0.0
 40
1.500000000000001
  0
CIRCLE
  5
1D4
330
70
100
AcDbEntity
  8
Visible
100
AcDbCircle
 10
163.121292
 20
157.606559
 30
0.0
 40
1.500000000000003
  0
ARC
  5
1D5
330
70
100
AcDbEntity
  8
Visible
100
AcDbCircle
 10
-206.121291
 20
157.606559
 30
0.0
 40
95.00000000000001
210
0.0
220
0.0
230
-1.0
100
AcDbArc
 50
348.039542
 51
298.323324
  0
LINE
  5
1D6
330
70
100
AcDbEntity
  8
Visible
100
AcDbLine
 10
113.183659
 20
137.919084
 30
0.0
 11
100.439441
 21
137.919084
 31
0.0
210
0.0
220
0.0
230
-1.0
  0
ARC
  5
1D7
330
70
100
AcDbEntity
  8
Visible
100
AcDbCircle
 10
-206.121291
 20
157.606559
 30
0.0
 40
107.5
210
0.0
220
0.0
230
-1.0
100
AcDbArc
 50
313.342521
 51
349.447331
  0
LINE
  5
1D8
330
70
100
AcDbEntity
  8
Visible
100
AcDbLine
 10
142.022469
 20
87.489935
 30
0.0
 11
132.337777
 21
79.425723
 31
0.0
210
0.0
220
0.0
230
-1.0
  0
ARC
  5
1D9
330
70
100
AcDbEntity
  8
Visible
100
AcDbCircle
 10
-206.121291
 20
157.606559
 30
0.0
 40
95.0
210
0.0
220
0.0
230
-1.0
100
AcDbArc
 50
308.856951
 51
312.432755
  0
LINE
  5
1DA
330
70
100
AcDbEntity
  8
Visible
100
AcDbLine
 10
147.847195
 20
102.065922
 30
0.0
 11
147.234311
 21
109.071223
 31
0.0
210
0.0
220
0.0
230
-1.0
  0
LINE
  5
1DB
330
70
100
AcDbEntity
  8
Visible
100
AcDbLine
 10
147.234311
 20
109.071223
 30
0.0
 11
157.178064
 21
109.941189
 31
0.0
210
0.0
220
0.0
230
-1.0
  0
LINE
  5
1DC
330
70
100
AcDbEntity
  8
Visible
100
AcDbLine
 10
122.702062
 20
148.514395
 30
0.0
 11
112.733902
 21
147.642294
 31
0.0
210
0.0
220
0.0
230
-1.0
  0
LINE
  5
1DD
330
70
100
AcDbEntity
  8
Visible
100
AcDbLine
 10
122.088402
 20
155.528558
 30
0.0
 11
122.702062
 21
148.514395
 31
0.0
210
0.0
220
0.0
230
-1.0
  0
LINE
  5
1DE
330
70
100
AcDbEntity
  8
Visible
100
AcDbLine
 10
126.31303
 20
107.240848
 30
0.0
 11
126.924024
 21
100.257152
 31
0.0
210
0.0
220
0.0
230
-1.0
  0
LINE
  5
1DF
330
70
100
AcDbEntity
  8
Visible
100
AcDbLine
 10
116.344869
 20
106.368747
 30
0.0
 11
126.31303
 21
107.240848
 31
0.0
210
0.0
220
0.0
230
-1.0
  0
LINE
  5
1E0
330
70
100
AcDbEntity
  8
Visible
100
AcDbLine
 10
126.924024
 20
100.257152
 30
0.0
 11
116.955863
 21
99.385051
 31
0.0
210
0.0
220
0.0
230
-1.0
  0
LINE
  5
1E1
330
70
100
AcDbEntity
  8
Visible
100
AcDbLine
 10
143.623343
 20
150.34477
 30
0.0
 11
143.009683
 21
157.358933
 31
0.0
210
0.0
220
0.0
230
-1.0
  0
LINE
  5
1E2
330
70
100
AcDbEntity
  8
Visible
100
AcDbLine
 10
153.567097
 20
151.214735
 30
0.0
 11
143.623343
 21
150.34477
 31
0.0
210
0.0
220
0.0
230
-1.0
  0
ARC
  5
1E3
330
70
100
AcDbEntity
  8
Visible
100
AcDbCircle
 10
-139.885928
 20
151.474801
 30
0.0
 40
12.74765129574763
210
0.0
220
0.0
230
-1.0
100
AcDbArc
 50
276.563048
 51
285.49175
  0
ARC
  5
1E4
330
70
100
AcDbEntity
  8
Visible
100
AcDbCircle
 10
-148.379673
 20
113.314664
 30
0.0
 40
27.36904969612608
210
0.0
220
0.0
230
-1.0
100
AcDbArc
 50
64.090606
 51
68.679966
  0
LINE
  5
1E5
330
70
100
AcDbEntity
  8
Visible
100
AcDbLine
 10
133.746807
 20
136.664338
 30
0.0
 11
136.420787
 21
137.932745
 31
0.0
210
0.0
220
0.0
230
-1.0
  0
LINE
  5
1E6
330
70
100
AcDbEntity
  8
Visible
100
AcDbLine
 10
133.467333
 20
140.042976
 30
0.0
 11
133.746807
 21
136.664338
 31
0.0
210
0.0
220
0.0
230
-1.0
  0
LINE
  5
1E7
330
70
100
AcDbEntity
  8
Visible
100
AcDbLine
 10
136.481035
 20
139.190286
 30
0.0
 11
133.467333
 21
140.042976
 31
0.0
210
0.0
220
0.0
230
-1.0
  0
LINE
  5
1E8
330
70
100
AcDbEntity
  8
Visible
100
AcDbLine
 10
132.361748
 20
140.334821
 30
0.0
 11
129.252874
 21
141.179638
 31
0.0
210
0.0
220
0.0
230
-1.0
  0
LINE
  5
1E9
330
70
100
AcDbEntity
  8
Visible
100
AcDbLine
 10
132.706452
 20
136.167607
 30
0.0
 11
132.361748
 21
140.334821
 31
0.0
210
0.0
220
0.0
230
-1.0
  0
LINE
  5
1EA
330
70
100
AcDbEntity
  8
Visible
100
AcDbLine
 10
129.784269
 20
134.755466
 30
0.0
 11
132.706452
 21
136.167607
 31
0.0
210
0.0
220
0.0
230
-1.0
  0
LINE
  5
1EB
330
70
100
AcDbEntity
  8
Visible
100
AcDbLine
 10
129.908542
 20
133.253094
 30
0.0
 11
129.784269
 21
134.755466
 31
0.0
210
0.0
220
0.0
230
-1.0
  0
LINE
  5
1EC
330
70
100
AcDbEntity
  8
Visible
100
AcDbLine
 10
139.537112
 20
138.156299
 30
0.0
 11
129.908542
 21
133.253094
 31
0.0
210
0.0
220
0.0
230
-1.0
  0
LINE
  5
1ED
330
70
100
AcDbEntity
  8
Visible
100
AcDbLine
 10
139.419586
 20
139.577094
 30
0.0
 11
139.537112
 21
138.156299
 31
0.0
210
0.0
220
0.0
230
-1.0
  0
LINE
  5
1EE
330
70
100
AcDbEntity
  8
Visible
100
AcDbLine
 10
129.137035
 20
142.580039
 30
0.0
 11
139.419586
 21
139.577094
 31
0.0
210
0.0
220
0.0
230
-1.0
  0
LINE
  5
1EF
330
70
100
AcDbEntity
  8
Visible
100
AcDbLine
 10
129.252874
 20
141.179638
 30
0.0
 11
129.137035
 21
142.580039
 31
0.0
210
0.0
220
0.0
230
-1.0
  0
ARC
  5
1F0
330
70
100
AcDbEntity
  8
Visible
100
AcDbCircle
 10
133.121292
 20
157.606559
 30
0.0
 40
5.0
100
AcDbArc
 50
197.809067
 51
352.190933
  0
LINE
  5
1F1
330
70
100
AcDbEntity
  8
Visible
100
AcDbLine
 10
138.835862
 20
113.204556
 30
0.0
 11
131.616317
 21
112.607369
 31
0.0
210
0.0
220
0.0
230
-1.0
  0
LINE
  5
1F2
330
70
100
AcDbEntity
  8
Visible
100
AcDbLine
 10
138.734644
 20
114.428209
 30
0.0
 11
138.835862
 21
113.204556
 31
0.0
210
0.0
220
0.0
230
-1.0
  0
LINE
  5
1F3
330
70
100
AcDbEntity
  8
Visible
100
AcDbLine
 10
134.866545
 20
114.108247
 30
0.0
 11
138.734644
 21
114.428209
 31
0.0
210
0.0
220
0.0
230
-1.0
  0
SPLINE
  5
1F4
330
70
100
AcDbEntity
  8
Visible
100
AcDbSpline
210
0.0
220
0.0
230
1.0
 70
     8
 71
     3
 72
     9
 73
     5
 74
     0
 42
0.000000001
 43
0.0000000001
 40
0.0
 40
0.0
 40
0.0
 40
0.0
 40
0.0616474594100185
 40
0.1435721816786081
 40
0.1435721816786081
 40
0.1435721816786081
 40
0.1435721816786081
 10
133.4393577919291
 20
114.1921079030344
 30
0.0
 10
133.6414773420638
 20
114.1502288190495
 30
0.0
 10
134.1121981965916
 20
114.0526956601479
 30
0.0
 10
134.5924853028937
 20
114.0880649195733
 30
0.0
 10
134.8665452728182
 20
114.1082472189664
 30
0.0
  0
SPLINE
  5
1F5
330
70
100
AcDbEntity
  8
Visible
100
AcDbSpline
210
0.0
220
0.0
230
1.0
 70
     8
 71
     3
 72
     9
 73
     5
 74
     0
 42
0.000000001
 43
0.0000000001
 40
0.0
 40
0.0
 40
0.0
 40
0.0
 40
0.0531728987335751
 40
0.104609093623551
 40
0.104609093623551
 40
0.104609093623551
 40
0.104609093623551
 10
132.6146629947434
 20
114.811771291459
 30
0.0
 10
132.7281034095194
 20
114.6715853493715
 30
0.0
 10
132.9512791109136
 20
114.3957921409892
 30
0.0
 10
133.2784755865286
 20
114.2592470153995
 30
0.0
 10
133.4393577919291
 20
114.1921079030344
 30
0.0
  0
SPLINE
  5
1F6
330
70
100
AcDbEntity
  8
Visible
100
AcDbSpline
210
0.0
220
0.0
230
1.0
 70
     8
 71
     3
 72
     9
 73
     5
 74
     0
 42
0.000000001
 43
0.0000000001
 40
0.0
 40
0.0
 40
0.0
 40
0.0
 40
0.0540125578462284
 40
0.1084592109652258
 40
0.1084592109652258
 40
0.1084592109652258
 40
0.1084592109652258
 10
132.247070715628
 20
115.8217405853993
 30
0.0
 10
132.2739876642554
 20
115.6416946698828
 30
0.0
 10
132.3280378912059
 20
115.2801558220071
 30
0.0
 10
132.5188667035836
 20
114.968315503078
 30
0.0
 10
132.6146629947434
 20
114.811771291459
 30
0.0
  0
SPLINE
  5
1F7
330
70
100
AcDbEntity
  8
Visible
100
AcDbSpline
210
0.0
220
0.0
230
1.0
 70
     8
 71
     3
 72
     9
 73
     5
 74
     0
 42
0.000000001
 43
0.0000000001
 40
0.0
 40
0.0
 40
0.0
 40
0.0
 40
0.0467887299109304
 40
0.0980743424289727
 40
0.0980743424289727
 40
0.0980743424289727
 40
0.0980743424289727
 10
132.4459160936785
 20
116.7690509028362
 30
0.0
 10
132.3768985058741
 20
116.6265475770488
 30
0.0
 10
132.2322300236774
 20
116.3278448766959
 30
0.0
 10
132.2419748786815
 20
115.9955212255063
 30
0.0
 10
132.247070715628
 20
115.8217405853993
 30
0.0
  0
SPLINE
  5
1F8
330
70
100
AcDbEntity
  8
Visible
100
AcDbSpline
210
0.0
220
0.0
230
1.0
 70
     8
 71
     3
 72
     9
 73
     5
 74
     0
 42
0.000000001
 43
0.0000000001
 40
0.0
 40
0.0
 40
0.0
 40
0.0
 40
0.0468569541044588
 40
0.092033616459444
 40
0.092033616459444
 40
0.092033616459444
 40
0.092033616459444
 10
133.163413201084
 20
117.3212110064323
 30
0.0
 10
133.0160198271915
 20
117.260576384042
 30
0.0
 10
132.7265186101194
 20
117.1414814986001
 30
0.0
 10
132.5383048363492
 20
116.8916741597877
 30
0.0
 10
132.4459160936785
 20
116.7690509028362
 30
0.0
  0
ARC
  5
1F9
330
70
100
AcDbEntity
  8
Visible
100
AcDbCircle
 10
-134.803697
 20
110.351561
 30
0.0
 40
7.160066525041062
210
0.0
220
0.0
230
-1.0
100
AcDbArc
 50
76.756624
 51
87.159384
  0
LINE
  5
1FA
330
70
100
AcDbEntity
  8
Visible
100
AcDbLine
 10
138.45292
 20
117.834038
 30
0.0
 11
134.44886
 21
117.50283
 31
0.0
210
0.0
220
0.0
230
-1.0
  0
LINE
  5
1FB
330
70
100
AcDbEntity
  8
Visible
100
AcDbLine
 10
138.351702
 20
119.057691
 30
0.0
 11
138.45292
 21
117.834038
 31
0.0
210
0.0
220
0.0
230
-1.0
  0
LINE
  5
1FC
330
70
100
AcDbEntity
  8
Visible
100
AcDbLine
 10
133.878576
 20
118.687682
 30
0.0
 11
138.351702
 21
119.057691
 31
0.0
210
0.0
220
0.0
230
-1.0
  0
ARC
  5
1FD
330
70
100
AcDbEntity
  8
Visible
100
AcDbCircle
 10
-134.225563
 20
112.462663
 30
0.0
 40
6.234681809610948
210
0.0
220
0.0
230
-1.0
100
AcDbArc
 50
76.240721
 51
86.809592
  0
SPLINE
  5
1FE
330
70
100
AcDbEntity
  8
Visible
100
AcDbSpline
210
0.0
220
0.0
230
1.0
 70
     8
 71
     3
 72
     9
 73
     5
 74
     0
 42
0.000000001
 43
0.0000000001
 40
0.0
 40
0.0
 40
0.0
 40
0.0
 40
0.0472889533883987
 40
0.0991901729199961
 40
0.0991901729199961
 40
0.0991901729199961
 40
0.0991901729199961
 10
131.8663535423602
 20
118.0660705094651
 30
0.0
 10
131.9936978777987
 20
118.1607682756439
 30
0.0
 10
132.2608069116759
 20
118.3594000306148
 30
0.0
 10
132.5771563850285
 20
118.4638032122984
 30
0.0
 10
132.7426861243348
 20
118.5184321366469
 30
0.0
  0
SPLINE
  5
1FF
330
70
100
AcDbEntity
  8
Visible
100
AcDbSpline
210
0.0
220
0.0
230
1.0
 70
     8
 71
     3
 72
     9
 73
     5
 74
     0
 42
0.000000001
 43
0.0000000001
 40
0.0
 40
0.0
 40
0.0
 40
0.0
 40
0.0557987893646197
 40
0.1039723378452682
 40
0.1039723378452682
 40
0.1039723378452682
 40
0.1039723378452682
 10
131.3191694237375
 20
117.192613052126
 30
0.0
 10
131.3868354927381
 20
117.3682099828638
 30
0.0
 10
131.512920654568
 20
117.6954074653731
 30
0.0
 10
131.7544470244393
 20
117.9487084528518
 30
0.0
 10
131.8663535423602
 20
118.0660705094651
 30
0.0
  0
SPLINE
  5
200
330
70
100
AcDbEntity
  8
Visible
100
AcDbSpline
210
0.0
220
0.0
230
1.0
 70
     8
 71
     3
 72
     9
 73
     5
 74
     0
 42
0.000000001
 43
0.0000000001
 40
0.0
 40
0.0
 40
0.0
 40
0.0
 40
0.0622916147950665
 40
0.122883476009169
 40
0.122883476009169
 40
0.122883476009169
 40
0.122883476009169
 10
131.1731264093996
 20
115.9793110070131
 30
0.0
 10
131.1655296096724
 20
116.1882576581174
 30
0.0
 10
131.1505433043676
 20
116.6004494253811
 30
0.0
 10
131.2634814463963
 20
116.9970538187663
 30
0.0
 10
131.3191694237375
 20
117.192613052126
 30
0.0
  0
SPLINE
  5
201
330
70
100
AcDbEntity
  8
Visible
100
AcDbSpline
210
0.0
220
0.0
230
1.0
 70
     8
 71
     3
 72
     9
 73
     5
 74
     0
 42
0.000000001
 43
0.0000000001
 40
0.0
 40
0.0
 40
0.0
 40
0.0
 40
0.1357659514217301
 40
0.2694536534435702
 40
0.2694536534435702
 40
0.2694536534435702
 40
0.2694536534435702
 10
132.586281964066
 20
113.7895811937014
 30
0.0
 10
132.2042175260558
 20
114.0643685794002
 30
0.0
 10
131.4459371354678
 20
114.6097370183997
 30
0.0
 10
131.263594525757
 20
115.5251397918691
 30
0.0
 10
131.1731264093996
 20
115.9793110070131
 30
0.0
  0
LINE
  5
202
330
70
100
AcDbEntity
  8
Visible
100
AcDbLine
 10
131.525783
 20
113.701859
 30
0.0
 11
132.586282
 21
113.789581
 31
0.0
210
0.0
220
0.0
230
-1.0
  0
LINE
  5
203
330
70
100
AcDbEntity
  8
Visible
100
AcDbLine
 10
131.616317
 20
112.607369
 30
0.0
 11
131.525783
 21
113.701859
 31
0.0
210
0.0
220
0.0
230
-1.0
  0
LINE
  5
204
330
70
100
AcDbEntity
  8
Visible
100
AcDbLine
 10
133.522354
 20
124.40082
 30
0.0
 11
130.660368
 21
124.164082
 31
0.0
210
0.0
220
0.0
230
-1.0
  0
LINE
  5
205
330
70
100
AcDbEntity
  8
Visible
100
AcDbLine
 10
134.423133
 20
123.606069
 30
0.0
 11
133.522354
 21
124.40082
 31
0.0
210
0.0
220
0.0
230
-1.0
  0
LINE
  5
206
330
70
100
AcDbEntity
  8
Visible
100
AcDbLine
 10
130.929159
 20
120.914607
 30
0.0
 11
134.423133
 21
123.606069
 31
0.0
210
0.0
220
0.0
230
-1.0
  0
LINE
  5
207
330
70
100
AcDbEntity
  8
Visible
100
AcDbLine
 10
131.053994
 20
119.405436
 30
0.0
 11
130.929159
 21
120.914607
 31
0.0
210
0.0
220
0.0
230
-1.0
  0
LINE
  5
208
330
70
100
AcDbEntity
  8
Visible
100
AcDbLine
 10
135.343743
 20
122.819803
 30
0.0
 11
131.053994
 21
119.405436
 31
0.0
210
0.0
220
0.0
230
-1.0
  0
LINE
  5
209
330
70
100
AcDbEntity
  8
Visible
100
AcDbLine
 10
138.250484
 20
120.281343
 30
0.0
 11
135.343743
 21
122.819803
 31
0.0
210
0.0
220
0.0
230
-1.0
  0
LINE
  5
20A
330
70
100
AcDbEntity
  8
Visible
100
AcDbLine
 10
138.119463
 20
121.865294
 30
0.0
 11
138.250484
 21
120.281343
 31
0.0
210
0.0
220
0.0
230
-1.0
  0
LINE
  5
20B
330
70
100
AcDbEntity
  8
Visible
100
AcDbLine
 10
134.943149
 20
124.518346
 30
0.0
 11
138.119463
 21
121.865294
 31
0.0
210
0.0
220
0.0
230
-1.0
  0
LINE
  5
20C
330
70
100
AcDbEntity
  8
Visible
100
AcDbLine
 10
140.626331
 20
124.988448
 30
0.0
 11
134.943149
 21
124.518346
 31
0.0
210
0.0
220
0.0
230
-1.0
  0
LINE
  5
20D
330
70
100
AcDbEntity
  8
Visible
100
AcDbLine
 10
140.525113
 20
126.212099
 30
0.0
 11
140.626331
 21
124.988448
 31
0.0
210
0.0
220
0.0
230
-1.0
  0
LINE
  5
20E
330
70
100
AcDbEntity
  8
Visible
100
AcDbLine
 10
130.55915
 20
125.387734
 30
0.0
 11
140.525113
 21
126.212099
 31
0.0
210
0.0
220
0.0
230
-1.0
  0
LINE
  5
20F
330
70
100
AcDbEntity
  8
Visible
100
AcDbLine
 10
130.660368
 20
124.164082
 30
0.0
 11
130.55915
 21
125.387734
 31
0.0
210
0.0
220
0.0
230
-1.0
  0
LINE
  5
210
330
70
100
AcDbEntity
  8
Visible
100
AcDbLine
 10
132.946535
 20
131.362037
 30
0.0
 11
130.084549
 21
131.125299
 31
0.0
210
0.0
220
0.0
230
-1.0
  0
LINE
  5
211
330
70
100
AcDbEntity
  8
Visible
100
AcDbLine
 10
133.847314
 20
130.567286
 30
0.0
 11
132.946535
 21
131.362037
 31
0.0
210
0.0
220
0.0
230
-1.0
  0
LINE
  5
212
330
70
100
AcDbEntity
  8
Visible
100
AcDbLine
 10
130.35334
 20
127.875824
 30
0.0
 11
133.847314
 21
130.567286
 31
0.0
210
0.0
220
0.0
230
-1.0
  0
LINE
  5
213
330
70
100
AcDbEntity
  8
Visible
100
AcDbLine
 10
130.478176
 20
126.366653
 30
0.0
 11
130.35334
 21
127.875824
 31
0.0
210
0.0
220
0.0
230
-1.0
  0
LINE
  5
214
330
70
100
AcDbEntity
  8
Visible
100
AcDbLine
 10
134.767924
 20
129.781021
 30
0.0
 11
130.478176
 21
126.366653
 31
0.0
210
0.0
220
0.0
230
-1.0
  0
LINE
  5
215
330
70
100
AcDbEntity
  8
Visible
100
AcDbLine
 10
137.674665
 20
127.242561
 30
0.0
 11
134.767924
 21
129.781021
 31
0.0
210
0.0
220
0.0
230
-1.0
  0
LINE
  5
216
330
70
100
AcDbEntity
  8
Visible
100
AcDbLine
 10
137.543644
 20
128.826511
 30
0.0
 11
137.674665
 21
127.242561
 31
0.0
210
0.0
220
0.0
230
-1.0
  0
LINE
  5
217
330
70
100
AcDbEntity
  8
Visible
100
AcDbLine
 10
134.36733
 20
131.479563
 30
0.0
 11
137.543644
 21
128.826511
 31
0.0
210
0.0
220
0.0
230
-1.0
  0
LINE
  5
218
330
70
100
AcDbEntity
  8
Visible
100
AcDbLine
 10
140.050513
 20
131.949665
 30
0.0
 11
134.36733
 21
131.479563
 31
0.0
210
0.0
220
0.0
230
-1.0
  0
LINE
  5
219
330
70
100
AcDbEntity
  8
Visible
100
AcDbLine
 10
139.949294
 20
133.173316
 30
0.0
 11
140.050513
 21
131.949665
 31
0.0
210
0.0
220
0.0
230
-1.0
  0
LINE
  5
21A
330
70
100
AcDbEntity
  8
Visible
100
AcDbLine
 10
129.983331
 20
132.348951
 30
0.0
 11
139.949294
 21
133.173316
 31
0.0
210
0.0
220
0.0
230
-1.0
  0
LINE
  5
21B
330
70
100
AcDbEntity
  8
Visible
100
AcDbLine
 10
130.084549
 20
131.125299
 30
0.0
 11
129.983331
 21
132.348951
 31
0.0
210
0.0
220
0.0
230
-1.0
  0
ENDSEC
  0
SECTION
  2
OBJECTS
  0
DICTIONARY
  5
C
330
0
100
AcDbDictionary
281
     1
  3
ACAD_COLOR
350
63
  3
ACAD_DETAILVIEWSTYLE
350
6A
  3
ACAD_GROUP
350
D
  3
ACAD_LAYOUT
350
62
  3
ACAD_MATERIAL
350
10
  3
ACAD_MLEADERSTYLE
350
66
  3
ACAD_MLINESTYLE
350
5F
  3
ACAD_PLOTSETTINGS
350
61
  3
ACAD_PLOTSTYLENAME
350
E
  3
ACAD_SCALELIST
350
42
  3
ACAD_SECTIONVIEWSTYLE
350
68
  3
ACAD_TABLESTYLE
350
64
  3
ACAD_VISUALSTYLE
350
29
  3
ACDB_RECOMPOSE_DATA
350
226
  3
AcDbVariableDictionary
350
21D
  0
DICTIONARY
  5
9E
330
70
100
AcDbDictionary
280
     1
281
     1
  3
ACAD_SORTENTS
360
9F
  0
DICTIONARY
  5
63
102
{ACAD_REACTORS
330
C
102
}
330
C
100
AcDbDictionary
281
     1
  0
DICTIONARY
  5
6A
102
{ACAD_REACTORS
330
C
102
}
330
C
100
AcDbDictionary
281
     1
  3
Imperial24
350
6B
  0
DICTIONARY
  5
D
102
{ACAD_REACTORS
330
C
102
}
330
C
100
AcDbDictionary
281
     1
  0
DICTIONARY
  5
62
102
{ACAD_REACTORS
330
C
102
}
330
C
100
AcDbDictionary
281
     1
  3
Model
350
73
  3
Sheet1
350
6F
  3
Sheet2
350
77
  0
DICTIONARY
  5
10
102
{ACAD_REACTORS
330
C
102
}
330
C
100
AcDbDictionary
281
     1
  3
ByBlock
350
19
  3
ByLayer
350
11
  3
Global
350
21
  0
DICTIONARY
  5
66
102
{ACAD_REACTORS
330
C
102
}
330
C
100
AcDbDictionary
281
     1
  3
Standard
350
67
  0
DICTIONARY
  5
5F
102
{ACAD_REACTORS
330
C
102
}
330
C
100
AcDbDictionary
281
     1
  3
Standard
350
60
  0
DICTIONARY
  5
61
102
{ACAD_REACTORS
330
C
102
}
330
C
100
AcDbDictionary
281
     1
  0
ACDBDICTIONARYWDFLT
  5
E
102
{ACAD_REACTORS
330
C
102
}
330
C
100
AcDbDictionary
281
     1
  3
Normal
350
F
100
AcDbDictionaryWithDefault
340
F
  0
DICTIONARY
  5
42
102
{ACAD_REACTORS
330
C
102
}
330
C
100
AcDbDictionary
281
     1
  3
A0
350
43
  3
A1
350
44
  3
A2
350
45
  3
A3
350
46
  3
A4
350
47
  3
A5
350
48
  3
A6
350
49
  3
A7
350
4A
  3
A8
350
4B
  3
A9
350
4C
  3
B0
350
4D
  3
B1
350
4E
  3
B2
350
4F
  3
B3
350
50
  3
B4
350
51
  3
B5
350
52
  3
B6
350
53
  0
DICTIONARY
  5
68
102
{ACAD_REACTORS
330
C
102
}
330
C
100
AcDbDictionary
281
     1
  3
Imperial24
350
69
  0
DICTIONARY
  5
64
102
{ACAD_REACTORS
330
C
102
}
330
C
100
AcDbDictionary
281
     1
  3
Standard
350
65
  0
DICTIONARY
  5
29
102
{ACAD_REACTORS
330
C
102
}
330
C
100
AcDbDictionary
281
     1
  3
2dWireframe
350
2F
  3
Basic
350
2E
  3
Brighten
350
35
  3
ColorChange
350
39
  3
Conceptual
350
32
  3
Dim
350
34
  3
EdgeColorOff
350
41
  3
Facepattern
350
38
  3
Flat
350
2A
  3
FlatWithEdges
350
2B
  3
Gouraud
350
2C
  3
GouraudWithEdges
350
2D
  3
Hidden
350
31
  3
JitterOff
350
3F
  3
Linepattern
350
37
  3
OverhangOff
350
40
  3
Realistic
350
33
  3
Shaded
350
3E
  3
Shaded with edges
350
3D
  3
Shades of Gray
350
3A
  3
Sketchy
350
3B
  3
Thicken
350
36
  3
Wireframe
350
30
  3
X-Ray
350
3C
  0
XRECORD
  5
226
102
{ACAD_REACTORS
330
C
102
}
330
C
100
AcDbXrecord
280
     1
 90
        1
330
65
  0
DICTIONARY
  5
21D
102
{ACAD_REACTORS
330
C
102
}
330
C
100
AcDbDictionary
281
     1
  3
ANNOALLVISIBLE
350
222
  3
CANNOSCALE
350
223
  3
CMLEADERSTYLE
350
21F
  3
CTABLESTYLE
350
21E
  3
CVIEWDETAILSTYLE
350
220
  3
CVIEWSECTIONSTYLE
350
221
  0
SORTENTSTABLE
  5
9F
102
{ACAD_REACTORS
330
9E
102
}
330
9E
100
AcDbSortentsTable
330
70
  0
ACDBDETAILVIEWSTYLE
  5
6B
102
{ACAD_XDICTIONARY
360
229
102
}
102
{ACAD_REACTORS
330
6A
102
}
330
6A
100
AcDbModelDocViewStyle
 70
     0
  3
Imperial24
290
     0
100
AcDbDetailViewStyle
 70
     0
 71
     0
 90
        3
 71
     1
340
55
 62
   256
 40
0.24
340
0
 62
   256
 40
0.24
300

 40
0.36
280
     3
 71
     2
340
5D
 90
       25
 62
   256
 71
     3
340
55
 62
   256
 40
0.24
 90
        1
 40
0.75
 90
        1
300
%<\AcVar ViewType \f "%tc1">% %<\AcVar ViewDetailId>%\PSCALE %<\AcVar ViewScale \f "%sn">%
 71
     4
340
5D
 90
       25
 62
   256
340
5D
 90
       25
 62
   256
280
     0
  0
LAYOUT
  5
73
102
{ACAD_REACTORS
330
62
102
}
330
62
100
AcDbPlotSettings
  1

  2
AutoCAD PDF (High Quality Print).pc3
  4
ISO_full_bleed_A3_(420.00_x_297.00_MM)
  6

 40
0.0
 41
0.0
 42
0.0
 43
0.0
 44
420.0
 45
297.0
 46
0.0
 47
0.0
 48
0.0
 49
0.0
140
0.0
141
0.0
142
1.0
143
1.77236
 70
 11952
 72
     1
 73
     0
 74
     0
  7

 75
     0
147
0.564219
 76
     0
 77
     2
 78
   300
148
162.195699
149
8.956227
100
AcDbLayout
  1
Model
 70
     1
 71
     0
 10
0.0
 20
0.0
 11
12.0
 21
9.0
 12
0.0
 22
0.0
 32
0.0
 14
0.0
 24
0.0
 34
0.0
 15
0.0
 25
0.0
 35
0.0
146
0.0
 13
0.0
 23
0.0
 33
0.0
 16
1.0
 26
0.0
 36
0.0
 17
0.0
 27
1.0
 37
0.0
 76
     0
330
70
1001
ACAD_PSEXT
1000
AutoCAD PDF (High Quality Print).pc3
1000
DWG To PDF
1000
File
1000

1070
     0
  0
LAYOUT
  5
6F
102
{ACAD_REACTORS
330
62
102
}
330
62
100
AcDbPlotSettings
  1

  2
None
  4

  6

 40
0.0
 41
0.0
 42
0.0
 43
0.0
 44
0.0
 45
0.0
 46
0.0
 47
0.0
 48
0.0
 49
0.0
140
0.0
141
0.0
142
1.0
143
1.0
 70
   688
 72
     0
 73
     0
 74
     5
  7

 75
    16
147
1.0
 76
     0
 77
     2
 78
   300
148
0.0
149
0.0
100
AcDbLayout
  1
Sheet1
 70
     1
 71
     1
 10
0.0
 20
0.0
 11
12.0
 21
9.0
 12
0.0
 22
0.0
 32
0.0
 14
0.0
 24
0.0
 34
0.0
 15
0.0
 25
0.0
 35
0.0
146
0.0
 13
0.0
 23
0.0
 33
0.0
 16
1.0
 26
0.0
 36
0.0
 17
0.0
 27
1.0
 37
0.0
 76
     0
330
6C
  0
LAYOUT
  5
77
102
{ACAD_REACTORS
330
62
102
}
330
62
100
AcDbPlotSettings
  1

  2
None
  4

  6

 40
0.0
 41
0.0
 42
0.0
 43
0.0
 44
0.0
 45
0.0
 46
0.0
 47
0.0
 48
0.0
 49
0.0
140
0.0
141
0.0
142
1.0
143
1.0
 70
   688
 72
     0
 73
     0
 74
     5
  7

 75
    16
147
1.0
 76
     0
 77
     2
 78
   300
148
0.0
149
0.0
100
AcDbLayout
  1
Sheet2
 70
     1
 71
     2
 10
0.0
 20
0.0
 11
12.0
 21
9.0
 12
0.0
 22
0.0
 32
0.0
 14
0.0
 24
0.0
 34
0.0
 15
0.0
 25
0.0
 35
0.0
146
0.0
 13
0.0
 23
0.0
 33
0.0
 16
1.0
 26
0.0
 36
0.0
 17
0.0
 27
1.0
 37
0.0
 76
     0
330
74
  0
MATERIAL
  5
19
102
{ACAD_XDICTIONARY
360
1A
102
}
102
{ACAD_REACTORS
330
10
102
}
330
10
100
AcDbMaterial
  1
ByBlock
 72
     0
 43
0.020833
 43
0.0
 43
0.0
 43
0.0
 43
0.0
 43
0.020833
 43
0.0
 43
0.0
 43
0.0
 43
0.0
 43
1.0
 43
0.0
 43
0.0
 43
0.0
 43
0.0
 43
1.0
 77
     0
 47
0.020833
 47
0.0
 47
0.0
 47
0.0
 47
0.0
 47
0.020833
 47
0.0
 47
0.0
 47
0.0
 47
0.0
 47
1.0
 47
0.0
 47
0.0
 47
0.0
 47
0.0
 47
1.0
171
     0
 49
0.020833
 49
0.0
 49
0.0
 49
0.0
 49
0.0
 49
0.020833
 49
0.0
 49
0.0
 49
0.0
 49
0.0
 49
1.0
 49
0.0
 49
0.0
 49
0.0
 49
0.0
 49
1.0
175
     0
142
0.020833
142
0.0
142
0.0
142
0.0
142
0.0
142
0.020833
142
0.0
142
0.0
142
0.0
142
0.0
142
1.0
142
0.0
142
0.0
142
0.0
142
0.0
142
1.0
179
     0
144
0.020833
144
0.0
144
0.0
144
0.0
144
0.0
144
0.020833
144
0.0
144
0.0
144
0.0
144
0.0
144
1.0
144
0.0
144
0.0
144
0.0
144
0.0
144
1.0
147
0.020833
147
0.0
147
0.0
147
0.0
147
0.0
147
0.020833
147
0.0
147
0.0
147
0.0
147
0.0
147
1.0
147
0.0
147
0.0
147
0.0
147
0.0
147
1.0
  0
MATERIAL
  5
11
102
{ACAD_XDICTIONARY
360
12
102
}
102
{ACAD_REACTORS
330
10
102
}
330
10
100
AcDbMaterial
  1
ByLayer
 72
     0
 43
0.020833
 43
0.0
 43
0.0
 43
0.0
 43
0.0
 43
0.020833
 43
0.0
 43
0.0
 43
0.0
 43
0.0
 43
1.0
 43
0.0
 43
0.0
 43
0.0
 43
0.0
 43
1.0
 77
     0
 47
0.020833
 47
0.0
 47
0.0
 47
0.0
 47
0.0
 47
0.020833
 47
0.0
 47
0.0
 47
0.0
 47
0.0
 47
1.0
 47
0.0
 47
0.0
 47
0.0
 47
0.0
 47
1.0
171
     0
 49
0.020833
 49
0.0
 49
0.0
 49
0.0
 49
0.0
 49
0.020833
 49
0.0
 49
0.0
 49
0.0
 49
0.0
 49
1.0
 49
0.0
 49
0.0
 49
0.0
 49
0.0
 49
1.0
175
     0
142
0.020833
142
0.0
142
0.0
142
0.0
142
0.0
142
0.020833
142
0.0
142
0.0
142
0.0
142
0.0
142
1.0
142
0.0
142
0.0
142
0.0
142
0.0
142
1.0
179
     0
144
0.020833
144
0.0
144
0.0
144
0.0
144
0.0
144
0.020833
144
0.0
144
0.0
144
0.0
144
0.0
144
1.0
144
0.0
144
0.0
144
0.0
144
0.0
144
1.0
147
0.020833
147
0.0
147
0.0
147
0.0
147
0.0
147
0.020833
147
0.0
147
0.0
147
0.0
147
0.0
147
1.0
147
0.0
147
0.0
147
0.0
147
0.0
147
1.0
  0
MATERIAL
  5
21
102
{ACAD_XDICTIONARY
360
22
102
}
102
{ACAD_REACTORS
330
10
102
}
330
10
100
AcDbMaterial
  1
Global
 72
     0
 43
0.020833
 43
0.0
 43
0.0
 43
0.0
 43
0.0
 43
0.020833
 43
0.0
 43
0.0
 43
0.0
 43
0.0
 43
1.0
 43
0.0
 43
0.0
 43
0.0
 43
0.0
 43
1.0
 77
     0
 47
0.020833
 47
0.0
 47
0.0
 47
0.0
 47
0.0
 47
0.020833
 47
0.0
 47
0.0
 47
0.0
 47
0.0
 47
1.0
 47
0.0
 47
0.0
 47
0.0
 47
0.0
 47
1.0
171
     0
 49
0.020833
 49
0.0
 49
0.0
 49
0.0
 49
0.0
 49
0.020833
 49
0.0
 49
0.0
 49
0.0
 49
0.0
 49
1.0
 49
0.0
 49
0.0
 49
0.0
 49
0.0
 49
1.0
175
     0
142
0.020833
142
0.0
142
0.0
142
0.0
142
0.0
142
0.020833
142
0.0
142
0.0
142
0.0
142
0.0
142
1.0
142
0.0
142
0.0
142
0.0
142
0.0
142
1.0
179
     0
144
0.020833
144
0.0
144
0.0
144
0.0
144
0.0
144
0.020833
144
0.0
144
0.0
144
0.0
144
0.0
144
1.0
144
0.0
144
0.0
144
0.0
144
0.0
144
1.0
147
0.020833
147
0.0
147
0.0
147
0.0
147
0.0
147
0.020833
147
0.0
147
0.0
147
0.0
147
0.0
147
1.0
147
0.0
147
0.0
147
0.0
147
0.0
147
1.0
  0
MLEADERSTYLE
  5
67
102
{ACAD_REACTORS
330
66
102
}
330
66
100
AcDbMLeaderStyle
179
     2
170
     2
171
     1
172
     0
 90
        2
 40
0.0
 41
0.0
173
     1
 91
-1056964608
340
5B
 92
       -2
290
     1
 42
0.09
291
     1
 43
0.36
  3
Standard
 44
0.18
300

342
55
174
     1
178
     6
175
     1
176
     0
 93
-1056964608
 45
0.18
292
     0
297
     0
 46
0.18
 94
-1056964608
 47
1.0
 49
1.0
140
1.0
293
     1
141
0.0
294
     1
177
     0
142
1.0
295
     0
296
     0
143
0.125
271
     0
272
     9
273
     9
298
     1
  0
MLINESTYLE
  5
60
102
{ACAD_REACTORS
330
5F
102
}
330
5F
100
AcDbMlineStyle
  2
STANDARD
 70
     0
  3

 62
   256
 51
90.0
 52
90.0
 71
     0
  0
ACDBPLACEHOLDER
  5
F
102
{ACAD_REACTORS
330
E
102
}
330
E
  0
SCALE
  5
43
102
{ACAD_REACTORS
330
42
102
}
330
42
100
AcDbScale
 70
     0
300
1:1
140
1.0
141
1.0
290
     1
  0
SCALE
  5
44
102
{ACAD_REACTORS
330
42
102
}
330
42
100
AcDbScale
 70
     0
300
1:2
140
1.0
141
2.0
290
     0
  0
SCALE
  5
45
102
{ACAD_REACTORS
330
42
102
}
330
42
100
AcDbScale
 70
     0
300
1:4
140
1.0
141
4.0
290
     0
  0
SCALE
  5
46
102
{ACAD_REACTORS
330
42
102
}
330
42
100
AcDbScale
 70
     0
300
1:5
140
1.0
141
5.0
290
     0
  0
SCALE
  5
47
102
{ACAD_REACTORS
330
42
102
}
330
42
100
AcDbScale
 70
     0
300
1:8
140
1.0
141
8.0
290
     0
  0
SCALE
  5
48
102
{ACAD_REACTORS
330
42
102
}
330
42
100
AcDbScale
 70
     0
300
1:10
140
1.0
141
10.0
290
     0
  0
SCALE
  5
49
102
{ACAD_REACTORS
330
42
102
}
330
42
100
AcDbScale
 70
     0
300
1:16
140
1.0
141
16.0
290
     0
  0
SCALE
  5
4A
102
{ACAD_REACTORS
330
42
102
}
330
42
100
AcDbScale
 70
     0
300
1:20
140
1.0
141
20.0
290
     0
  0
SCALE
  5
4B
102
{ACAD_REACTORS
330
42
102
}
330
42
100
AcDbScale
 70
     0
300
1:30
140
1.0
141
30.0
290
     0
  0
SCALE
  5
4C
102
{ACAD_REACTORS
330
42
102
}
330
42
100
AcDbScale
 70
     0
300
1:40
140
1.0
141
40.0
290
     0
  0
SCALE
  5
4D
102
{ACAD_REACTORS
330
42
102
}
330
42
100
AcDbScale
 70
     0
300
1:50
140
1.0
141
50.0
290
     0
  0
SCALE
  5
4E
102
{ACAD_REACTORS
330
42
102
}
330
42
100
AcDbScale
 70
     0
300
1:100
140
1.0
141
100.0
290
     0
  0
SCALE
  5
4F
102
{ACAD_REACTORS
330
42
102
}
330
42
100
AcDbScale
 70
     0
300
2:1
140
2.0
141
1.0
290
     0
  0
SCALE
  5
50
102
{ACAD_REACTORS
330
42
102
}
330
42
100
AcDbScale
 70
     0
300
4:1
140
4.0
141
1.0
290
     0
  0
SCALE
  5
51
102
{ACAD_REACTORS
330
42
102
}
330
42
100
AcDbScale
 70
     0
300
8:1
140
8.0
141
1.0
290
     0
  0
SCALE
  5
52
102
{ACAD_REACTORS
330
42
102
}
330
42
100
AcDbScale
 70
     0
300
10:1
140
10.0
141
1.0
290
     0
  0
SCALE
  5
53
102
{ACAD_REACTORS
330
42
102
}
330
42
100
AcDbScale
 70
     0
300
100:1
140
100.0
141
1.0
290
     0
  0
ACDBSECTIONVIEWSTYLE
  5
69
102
{ACAD_XDICTIONARY
360
227
102
}
102
{ACAD_REACTORS
330
68
102
}
330
68
100
AcDbModelDocViewStyle
 70
     0
  3
Imperial24
290
     0
100
AcDbSectionViewStyle
 70
     0
 71
     0
 90
       78
 71
     1
340
55
 62
   256
 40
0.24
340
0
340
0
 62
   256
 40
0.24
300
I, O, Q, S, X, Z
 40
0.48
 90
        3
 40
0.18
 90
        1
 71
     2
340
5D
 90
       25
 62
   256
340
5D
 90
       50
 62
   256
 40
0.24
 40
0.0
 40
0.24
 71
     3
340
55
 62
   256
 40
0.24
 90
        1
 40
0.75
 90
        1
300
%<\AcVar ViewType \f "%tc1">% %<\AcVar ViewSectionStartId>%-%<\AcVar ViewSectionEndId>%\PSCALE %<\AcVar ViewScale \f "%sn">%
 71
     4
 62
   256
 62
   257
300
ANSI31
 40
1.0
 90
        0
290
     0
290
     0
 90
        6
 40
0.0
 40
1.570796
 40
0.261799
 40
1.308997
 40
-0.261799
 40
1.832596
  0
TABLESTYLE
  5
65
102
{ACAD_XDICTIONARY
360
224
102
}
102
{ACAD_REACTORS
330
64
102
}
330
64
100
AcDbTableStyle
280
     0
  3
Standard
 70
     0
 71
     0
 40
1.5
 41
1.5
280
     0
281
     0
  7
Standard
140
0.18
170
     2
 62
     0
 63
     7
283
     0
 90
      512
 91
        0
  1

274
    -2
284
     1
 64
     0
275
    -2
285
     1
 65
     0
276
    -2
286
     1
 66
     0
277
    -2
287
     1
 67
     0
278
    -2
288
     1
 68
     0
279
    -2
289
     1
 69
     0
  7
Standard
140
0.25
170
     5
 62
     0
 63
     7
283
     0
 90
      512
 91
        0
  1

274
    -2
284
     1
 64
     0
275
    -2
285
     1
 65
     0
276
    -2
286
     1
 66
     0
277
    -2
287
     1
 67
     0
278
    -2
288
     1
 68
     0
279
    -2
289
     1
 69
     0
  7
Standard
140
0.18
170
     5
 62
     0
 63
     7
283
     0
 90
      512
 91
        0
  1

274
    -2
284
     1
 64
     0
275
    -2
285
     1
 65
     0
276
    -2
286
     1
 66
     0
277
    -2
287
     1
 67
     0
278
    -2
288
     1
 68
     0
279
    -2
289
     1
 69
     0
  0
VISUALSTYLE
  5
2F
102
{ACAD_REACTORS
330
29
102
}
330
29
100
AcDbVisualStyle
  2
2dWireframe
 70
     4
177
     3
291
     0
 70
    58
 90
        0
176
     1
 90
        2
176
     1
 90
        0
176
     1
 90
        0
176
     1
 40
0.6
176
     1
 40
30.0
176
     1
 62
     7
420
 16777215
176
     1
 90
        1
176
     1
 90
        4
176
     1
 62
     7
176
     1
 62
   257
176
     1
 90
        1
176
     1
 90
        1
176
     1
 40
1.0
176
     1
 90
        0
176
     1
 62
   257
176
     1
 40
1.0
176
     1
 90
        1
176
     1
 90
        6
176
     1
 90
        2
176
     1
 62
     7
176
     1
 90
        5
176
     1
 90
        0
176
     1
 90
        0
176
     1
290
     0
176
     1
 90
        1
176
     1
 40
0.0
176
     1
 90
        0
176
     1
290
     1
176
     1
290
     1
176
     1
290
     0
176
     1
290
     0
176
     1
290
     0
176
     1
290
     0
176
     1
290
     0
176
     1
290
     0
176
     1
290
     0
176
     1
 90
       50
176
     1
 40
0.0
176
     1
 40
1.0
176
     1
 90
        0
176
     1
 62
    18
420
        0
176
     1
 90
       50
176
     1
 90
        3
176
     1
 62
     5
420
      255
176
     1
290
     0
176
     1
 90
       50
176
     1
 90
       50
176
     1
 90
       50
176
     1
290
     0
176
     1
 90
       50
176
     1
 62
   256
176
     0
 40
1.0
176
     0
 90
        2
176
     1
  1
strokes_ogs.tif
176
     1
290
     0
176
     1
 40
1.0
176
     1
 40
1.0
176
     1
1001
ACAD
1000
AcDbSavedByObjectVersion
1070
     0
  0
VISUALSTYLE
  5
2E
102
{ACAD_REACTORS
330
29
102
}
330
29
100
AcDbVisualStyle
  2
Basic
 70
     7
177
     3
291
     1
 70
    58
 90
        1
176
     1
 90
        0
176
     1
 90
        1
176
     1
 90
        0
176
     1
 40
0.6
176
     1
 40
30.0
176
     1
 62
     7
420
 16777215
176
     1
 90
        0
176
     1
 90
        4
176
     1
 62
     7
176
     1
 62
   257
176
     1
 90
        1
176
     1
 90
        1
176
     1
 40
1.0
176
     1
 90
        8
176
     1
 62
     7
176
     1
 40
1.0
176
     1
 90
        1
176
     1
 90
        6
176
     1
 90
        2
176
     1
 62
     7
176
     1
 90
        5
176
     1
 90
        0
176
     1
 90
        0
176
     1
290
     0
176
     1
 90
        1
176
     1
 40
0.0
176
     1
 90
        0
176
     1
290
     0
176
     1
290
     1
176
     1
290
     1
176
     1
290
     0
176
     1
290
     0
176
     1
290
     0
176
     1
290
     0
176
     1
290
     0
176
     1
290
     0
176
     1
 90
       50
176
     1
 40
0.0
176
     1
 40
1.0
176
     1
 90
        0
176
     1
 62
    18
420
        0
176
     1
 90
       50
176
     1
 90
        3
176
     1
 62
     5
420
      255
176
     1
290
     0
176
     1
 90
       50
176
     1
 90
       50
176
     1
 90
       50
176
     1
290
     0
176
     1
 90
       50
176
     1
 62
   256
176
     0
 40
1.0
176
     0
 90
        2
176
     1
  1
strokes_ogs.tif
176
     1
290
     0
176
     1
 40
1.0
176
     1
 40
1.0
176
     1
1001
ACAD
1000
AcDbSavedByObjectVersion
1070
     0
  0
VISUALSTYLE
  5
35
102
{ACAD_REACTORS
330
29
102
}
330
29
100
AcDbVisualStyle
  2
Brighten
 70
    12
177
     3
291
     1
 70
    58
 90
        2
176
     1
 90
        2
176
     1
 90
        0
176
     1
 90
        0
176
     1
 40
0.6
176
     1
 40
30.0
176
     1
 62
     7
420
 16777215
176
     1
 90
        1
176
     1
 90
        4
176
     1
 62
     7
176
     1
 62
   257
176
     1
 90
        1
176
     1
 90
        1
176
     1
 40
1.0
176
     1
 90
        8
176
     1
 62
     7
176
     1
 40
1.0
176
     1
 90
        1
176
     1
 90
        6
176
     1
 90
        2
176
     1
 62
     7
176
     1
 90
        5
176
     1
 90
        0
176
     1
 90
        0
176
     1
290
     0
176
     1
 90
        1
176
     1
 40
50.0
176
     1
 90
        0
176
     1
290
     0
176
     1
290
     1
176
     1
290
     1
176
     1
290
     0
176
     1
290
     0
176
     1
290
     0
176
     1
290
     0
176
     1
290
     0
176
     1
290
     0
176
     1
 90
       50
176
     1
 40
0.0
176
     1
 40
1.0
176
     1
 90
        0
176
     1
 62
    18
420
        0
176
     1
 90
       50
176
     1
 90
        3
176
     1
 62
     5
420
      255
176
     1
290
     0
176
     1
 90
       50
176
     1
 90
       50
176
     1
 90
       50
176
     1
290
     0
176
     1
 90
       50
176
     1
 62
   256
176
     0
 40
1.0
176
     0
 90
        2
176
     1
  1
strokes_ogs.tif
176
     1
290
     0
176
     1
 40
1.0
176
     1
 40
1.0
176
     1
1001
ACAD
1000
AcDbSavedByObjectVersion
1070
     0
  0
VISUALSTYLE
  5
39
102
{ACAD_REACTORS
330
29
102
}
330
29
100
AcDbVisualStyle
  2
ColorChange
 70
    16
177
     3
291
     1
 70
    58
 90
        2
176
     1
 90
        2
176
     1
 90
        3
176
     1
 90
        0
176
     1
 40
0.6
176
     1
 40
30.0
176
     1
 62
     8
420
  8421504
176
     1
 90
        1
176
     1
 90
        4
176
     1
 62
     7
176
     1
 62
   257
176
     1
 90
        1
176
     1
 90
        1
176
     1
 40
1.0
176
     1
 90
        8
176
     1
 62
     8
420
  8421504
176
     1
 40
1.0
176
     1
 90
        1
176
     1
 90
        6
176
     1
 90
        2
176
     1
 62
     7
176
     1
 90
        5
176
     1
 90
        0
176
     1
 90
        0
176
     1
290
     0
176
     1
 90
        1
176
     1
 40
0.0
176
     1
 90
        0
176
     1
290
     0
176
     1
290
     1
176
     1
290
     1
176
     1
290
     0
176
     1
290
     0
176
     1
290
     0
176
     1
290
     0
176
     1
290
     0
176
     1
290
     0
176
     1
 90
       50
176
     1
 40
0.0
176
     1
 40
1.0
176
     1
 90
        0
176
     1
 62
    18
420
        0
176
     1
 90
       50
176
     1
 90
        3
176
     1
 62
     5
420
      255
176
     1
290
     0
176
     1
 90
       50
176
     1
 90
       50
176
     1
 90
       50
176
     1
290
     0
176
     1
 90
       50
176
     1
 62
   256
176
     0
 40
1.0
176
     0
 90
        2
176
     1
  1
strokes_ogs.tif
176
     1
290
     0
176
     1
 40
1.0
176
     1
 40
1.0
176
     1
1001
ACAD
1000
AcDbSavedByObjectVersion
1070
     0
  0
VISUALSTYLE
  5
32
102
{ACAD_REACTORS
330
29
102
}
330
29
100
AcDbVisualStyle
  2
Conceptual
 70
     9
177
     3
291
     0
 70
    58
 90
        3
176
     1
 90
        2
176
     1
 90
        0
176
     1
 90
        0
176
     1
 40
0.6
176
     1
 40
30.0
176
     1
 62
     7
420
 16777215
176
     1
 90
        2
176
     1
 90
        2
176
     1
 62
     7
176
     1
 62
   257
176
     1
 90
        1
176
     1
 90
        1
176
     1
 40
179.0
176
     1
 90
        8
176
     1
 62
     7
176
     1
 40
1.0
176
     1
 90
        1
176
     1
 90
        6
176
     1
 90
        2
176
     1
 62
     7
176
     1
 90
        3
176
     1
 90
        0
176
     1
 90
        0
176
     1
290
     0
176
     1
 90
        1
176
     1
 40
0.0
176
     1
 90
        0
176
     1
290
     0
176
     1
290
     1
176
     1
290
     1
176
     1
290
     0
176
     1
290
     0
176
     1
290
     0
176
     1
290
     0
176
     1
290
     0
176
     1
290
     0
176
     1
 90
       50
176
     1
 40
0.0
176
     1
 40
1.0
176
     1
 90
        0
176
     1
 62
    18
420
        0
176
     1
 90
       50
176
     1
 90
        3
176
     1
 62
     5
420
      255
176
     1
290
     0
176
     1
 90
       50
176
     1
 90
       50
176
     1
 90
       50
176
     1
290
     0
176
     1
 90
       50
176
     1
 62
   256
176
     0
 40
1.0
176
     0
 90
        2
176
     1
  1
strokes_ogs.tif
176
     1
290
     0
176
     1
 40
1.0
176
     1
 40
1.0
176
     1
1001
ACAD
1000
AcDbSavedByObjectVersion
1070
     0
  0
VISUALSTYLE
  5
34
102
{ACAD_REACTORS
330
29
102
}
330
29
100
AcDbVisualStyle
  2
Dim
 70
    11
177
     3
291
     1
 70
    58
 90
        2
176
     1
 90
        2
176
     1
 90
        0
176
     1
 90
        0
176
     1
 40
0.6
176
     1
 40
30.0
176
     1
 62
     7
420
 16777215
176
     1
 90
        1
176
     1
 90
        4
176
     1
 62
     7
176
     1
 62
   257
176
     1
 90
        1
176
     1
 90
        1
176
     1
 40
1.0
176
     1
 90
        8
176
     1
 62
     7
176
     1
 40
1.0
176
     1
 90
        1
176
     1
 90
        6
176
     1
 90
        2
176
     1
 62
     7
176
     1
 90
        5
176
     1
 90
        0
176
     1
 90
        0
176
     1
290
     0
176
     1
 90
        1
176
     1
 40
-50.0
176
     1
 90
        0
176
     1
290
     0
176
     1
290
     1
176
     1
290
     1
176
     1
290
     0
176
     1
290
     0
176
     1
290
     0
176
     1
290
     0
176
     1
290
     0
176
     1
290
     0
176
     1
 90
       50
176
     1
 40
0.0
176
     1
 40
1.0
176
     1
 90
        0
176
     1
 62
    18
420
        0
176
     1
 90
       50
176
     1
 90
        3
176
     1
 62
     5
420
      255
176
     1
290
     0
176
     1
 90
       50
176
     1
 90
       50
176
     1
 90
       50
176
     1
290
     0
176
     1
 90
       50
176
     1
 62
   256
176
     0
 40
1.0
176
     0
 90
        2
176
     1
  1
strokes_ogs.tif
176
     1
290
     0
176
     1
 40
1.0
176
     1
 40
1.0
176
     1
1001
ACAD
1000
AcDbSavedByObjectVersion
1070
     0
  0
VISUALSTYLE
  5
41
102
{ACAD_REACTORS
330
29
102
}
330
29
100
AcDbVisualStyle
  2
EdgeColorOff
 70
    22
177
     3
291
     1
 70
    58
 90
        2
176
     0
 90
        2
176
     0
 90
        0
176
     0
 90
        0
176
     0
 40
0.6
176
     0
 40
30.0
176
     0
 62
     7
420
 16777215
176
     0
 90
        1
176
     0
 90
        4
176
     0
 62
     7
176
     0
 62
   257
176
     0
 90
        1
176
     0
 90
        1
176
     0
 40
1.0
176
     0
 90
        8
176
     2
 62
     7
176
     0
 40
1.0
176
     0
 90
        1
176
     0
 90
        6
176
     0
 90
        2
176
     0
 62
     7
176
     0
 90
        5
176
     0
 90
        0
176
     0
 90
        0
176
     0
290
     0
176
     0
 90
        1
176
     0
 40
0.0
176
     0
 90
        0
176
     0
290
     0
176
     0
290
     1
176
     0
290
     1
176
     0
290
     0
176
     0
290
     0
176
     0
290
     0
176
     0
290
     0
176
     0
290
     0
176
     0
290
     0
176
     0
 90
       50
176
     0
 40
0.0
176
     0
 40
1.0
176
     0
 90
        0
176
     0
 62
    18
420
        0
176
     0
 90
       50
176
     0
 90
        3
176
     0
 62
     5
420
      255
176
     0
290
     0
176
     0
 90
       50
176
     0
 90
       50
176
     0
 90
       50
176
     0
290
     0
176
     0
 90
       50
176
     0
 62
   256
176
     0
 40
1.0
176
     0
 90
        2
176
     0
  1
strokes_ogs.tif
176
     0
290
     0
176
     0
 40
1.0
176
     0
 40
1.0
176
     0
1001
ACAD
1000
AcDbSavedByObjectVersion
1070
     0
  0
VISUALSTYLE
  5
38
102
{ACAD_REACTORS
330
29
102
}
330
29
100
AcDbVisualStyle
  2
Facepattern
 70
    15
177
     3
291
     1
 70
    58
 90
        2
176
     1
 90
        2
176
     1
 90
        0
176
     1
 90
        0
176
     1
 40
0.6
176
     1
 40
30.0
176
     1
 62
     7
420
 16777215
176
     1
 90
        1
176
     1
 90
        4
176
     1
 62
     7
176
     1
 62
   257
176
     1
 90
        1
176
     1
 90
        1
176
     1
 40
1.0
176
     1
 90
        8
176
     1
 62
     7
176
     1
 40
1.0
176
     1
 90
        1
176
     1
 90
        6
176
     1
 90
        2
176
     1
 62
     7
176
     1
 90
        5
176
     1
 90
        0
176
     1
 90
        0
176
     1
290
     0
176
     1
 90
        1
176
     1
 40
0.0
176
     1
 90
        0
176
     1
290
     0
176
     1
290
     1
176
     1
290
     1
176
     1
290
     0
176
     1
290
     0
176
     1
290
     0
176
     1
290
     0
176
     1
290
     0
176
     1
290
     0
176
     1
 90
       50
176
     1
 40
0.0
176
     1
 40
1.0
176
     1
 90
        0
176
     1
 62
    18
420
        0
176
     1
 90
       50
176
     1
 90
        3
176
     1
 62
     5
420
      255
176
     1
290
     0
176
     1
 90
       50
176
     1
 90
       50
176
     1
 90
       50
176
     1
290
     0
176
     1
 90
       50
176
     1
 62
   256
176
     0
 40
1.0
176
     0
 90
        2
176
     1
  1
strokes_ogs.tif
176
     1
290
     0
176
     1
 40
1.0
176
     1
 40
1.0
176
     1
1001
ACAD
1000
AcDbSavedByObjectVersion
1070
     0
  0
VISUALSTYLE
  5
2A
102
{ACAD_REACTORS
330
29
102
}
330
29
100
AcDbVisualStyle
  2
Flat
 70
     0
177
     3
291
     1
 70
    58
 90
        2
176
     1
 90
        1
176
     1
 90
        1
176
     1
 90
        2
176
     1
 40
0.6
176
     1
 40
30.0
176
     1
 62
     7
420
 16777215
176
     1
 90
        0
176
     1
 90
        0
176
     1
 62
     7
176
     1
 62
   257
176
     1
 90
        1
176
     1
 90
        1
176
     1
 40
1.0
176
     1
 90
        8
176
     1
 62
     7
176
     1
 40
1.0
176
     1
 90
        1
176
     1
 90
        6
176
     1
 90
        2
176
     1
 62
     7
176
     1
 90
        5
176
     1
 90
        0
176
     1
 90
        0
176
     1
290
     0
176
     1
 90
       13
176
     1
 40
0.0
176
     1
 90
        0
176
     1
290
     0
176
     1
290
     1
176
     1
290
     1
176
     1
290
     0
176
     1
290
     0
176
     1
290
     0
176
     1
290
     0
176
     1
290
     0
176
     1
290
     0
176
     1
 90
       50
176
     1
 40
0.0
176
     1
 40
1.0
176
     1
 90
        0
176
     1
 62
    18
420
        0
176
     1
 90
       50
176
     1
 90
        3
176
     1
 62
     5
420
      255
176
     1
290
     0
176
     1
 90
       50
176
     1
 90
       50
176
     1
 90
       50
176
     1
290
     0
176
     1
 90
       50
176
     1
 62
   256
176
     0
 40
1.0
176
     0
 90
        2
176
     1
  1
strokes_ogs.tif
176
     1
290
     0
176
     1
 40
1.0
176
     1
 40
1.0
176
     1
1001
ACAD
1000
AcDbSavedByObjectVersion
1070
     0
  0
VISUALSTYLE
  5
2B
102
{ACAD_REACTORS
330
29
102
}
330
29
100
AcDbVisualStyle
  2
FlatWithEdges
 70
     1
177
     3
291
     1
 70
    58
 90
        2
176
     1
 90
        1
176
     1
 90
        1
176
     1
 90
        2
176
     1
 40
0.6
176
     1
 40
30.0
176
     1
 62
     7
420
 16777215
176
     1
 90
        1
176
     1
 90
        0
176
     1
 62
     7
176
     1
 62
   257
176
     1
 90
        1
176
     1
 90
        1
176
     1
 40
1.0
176
     1
 90
        0
176
     1
 62
   257
176
     1
 40
1.0
176
     1
 90
        1
176
     1
 90
        6
176
     1
 90
        2
176
     1
 62
     7
176
     1
 90
        5
176
     1
 90
        0
176
     1
 90
        0
176
     1
290
     0
176
     1
 90
       13
176
     1
 40
0.0
176
     1
 90
        0
176
     1
290
     0
176
     1
290
     1
176
     1
290
     1
176
     1
290
     0
176
     1
290
     0
176
     1
290
     0
176
     1
290
     0
176
     1
290
     0
176
     1
290
     0
176
     1
 90
       50
176
     1
 40
0.0
176
     1
 40
1.0
176
     1
 90
        0
176
     1
 62
    18
420
        0
176
     1
 90
       50
176
     1
 90
        3
176
     1
 62
     5
420
      255
176
     1
290
     0
176
     1
 90
       50
176
     1
 90
       50
176
     1
 90
       50
176
     1
290
     0
176
     1
 90
       50
176
     1
 62
   256
176
     0
 40
1.0
176
     0
 90
        2
176
     1
  1
strokes_ogs.tif
176
     1
290
     0
176
     1
 40
1.0
176
     1
 40
1.0
176
     1
1001
ACAD
1000
AcDbSavedByObjectVersion
1070
     0
  0
VISUALSTYLE
  5
2C
102
{ACAD_REACTORS
330
29
102
}
330
29
100
AcDbVisualStyle
  2
Gouraud
 70
     2
177
     3
291
     1
 70
    58
 90
        2
176
     1
 90
        2
176
     1
 90
        1
176
     1
 90
        2
176
     1
 40
0.6
176
     1
 40
30.0
176
     1
 62
     7
420
 16777215
176
     1
 90
        0
176
     1
 90
        0
176
     1
 62
     7
176
     1
 62
   257
176
     1
 90
        1
176
     1
 90
        1
176
     1
 40
1.0
176
     1
 90
        0
176
     1
 62
     7
176
     1
 40
1.0
176
     1
 90
        1
176
     1
 90
        6
176
     1
 90
        2
176
     1
 62
     7
176
     1
 90
        5
176
     1
 90
        0
176
     1
 90
        0
176
     1
290
     0
176
     1
 90
       13
176
     1
 40
0.0
176
     1
 90
        0
176
     1
290
     0
176
     1
290
     1
176
     1
290
     1
176
     1
290
     0
176
     1
290
     0
176
     1
290
     0
176
     1
290
     0
176
     1
290
     0
176
     1
290
     0
176
     1
 90
       50
176
     1
 40
0.0
176
     1
 40
1.0
176
     1
 90
        0
176
     1
 62
    18
420
        0
176
     1
 90
       50
176
     1
 90
        3
176
     1
 62
     5
420
      255
176
     1
290
     0
176
     1
 90
       50
176
     1
 90
       50
176
     1
 90
       50
176
     1
290
     0
176
     1
 90
       50
176
     1
 62
   256
176
     0
 40
1.0
176
     0
 90
        2
176
     1
  1
strokes_ogs.tif
176
     1
290
     0
176
     1
 40
1.0
176
     1
 40
1.0
176
     1
1001
ACAD
1000
AcDbSavedByObjectVersion
1070
     0
  0
VISUALSTYLE
  5
2D
102
{ACAD_REACTORS
330
29
102
}
330
29
100
AcDbVisualStyle
  2
GouraudWithEdges
 70
     3
177
     3
291
     1
 70
    58
 90
        2
176
     1
 90
        2
176
     1
 90
        1
176
     1
 90
        2
176
     1
 40
0.6
176
     1
 40
30.0
176
     1
 62
     7
420
 16777215
176
     1
 90
        1
176
     1
 90
        0
176
     1
 62
     7
176
     1
 62
   257
176
     1
 90
        1
176
     1
 90
        1
176
     1
 40
1.0
176
     1
 90
        0
176
     1
 62
   257
176
     1
 40
1.0
176
     1
 90
        1
176
     1
 90
        6
176
     1
 90
        2
176
     1
 62
     7
176
     1
 90
        5
176
     1
 90
        0
176
     1
 90
        0
176
     1
290
     0
176
     1
 90
       13
176
     1
 40
0.0
176
     1
 90
        0
176
     1
290
     0
176
     1
290
     1
176
     1
290
     1
176
     1
290
     0
176
     1
290
     0
176
     1
290
     0
176
     1
290
     0
176
     1
290
     0
176
     1
290
     0
176
     1
 90
       50
176
     1
 40
0.0
176
     1
 40
1.0
176
     1
 90
        0
176
     1
 62
    18
420
        0
176
     1
 90
       50
176
     1
 90
        3
176
     1
 62
     5
420
      255
176
     1
290
     0
176
     1
 90
       50
176
     1
 90
       50
176
     1
 90
       50
176
     1
290
     0
176
     1
 90
       50
176
     1
 62
   256
176
     0
 40
1.0
176
     0
 90
        2
176
     1
  1
strokes_ogs.tif
176
     1
290
     0
176
     1
 40
1.0
176
     1
 40
1.0
176
     1
1001
ACAD
1000
AcDbSavedByObjectVersion
1070
     0
  0
VISUALSTYLE
  5
31
102
{ACAD_REACTORS
330
29
102
}
330
29
100
AcDbVisualStyle
  2
Hidden
 70
     6
177
     3
291
     0
 70
    58
 90
        1
176
     1
 90
        2
176
     1
 90
        2
176
     1
 90
        0
176
     1
 40
0.6
176
     1
 40
30.0
176
     1
 62
     7
420
 16777215
176
     1
 90
        2
176
     1
 90
        2
176
     1
 62
     7
176
     1
 62
   257
176
     1
 90
        2
176
     1
 90
        1
176
     1
 40
40.0
176
     1
 90
        0
176
     1
 62
   257
176
     1
 40
1.0
176
     1
 90
        1
176
     1
 90
        6
176
     1
 90
        2
176
     1
 62
     7
176
     1
 90
        3
176
     1
 90
        0
176
     1
 90
        0
176
     1
290
     0
176
     1
 90
        1
176
     1
 40
0.0
176
     1
 90
        0
176
     1
290
     0
176
     1
290
     1
176
     1
290
     1
176
     1
290
     0
176
     1
290
     0
176
     1
290
     0
176
     1
290
     0
176
     1
290
     0
176
     1
290
     0
176
     1
 90
       50
176
     1
 40
0.0
176
     1
 40
1.0
176
     1
 90
        0
176
     1
 62
    18
420
        0
176
     1
 90
       50
176
     1
 90
        3
176
     1
 62
     5
420
      255
176
     1
290
     0
176
     1
 90
       50
176
     1
 90
       50
176
     1
 90
       50
176
     1
290
     0
176
     1
 90
       50
176
     1
 62
   256
176
     0
 40
1.0
176
     0
 90
        2
176
     1
  1
strokes_ogs.tif
176
     1
290
     0
176
     1
 40
1.0
176
     1
 40
1.0
176
     1
1001
ACAD
1000
AcDbSavedByObjectVersion
1070
     0
  0
VISUALSTYLE
  5
3F
102
{ACAD_REACTORS
330
29
102
}
330
29
100
AcDbVisualStyle
  2
JitterOff
 70
    20
177
     3
291
     1
 70
    58
 90
        2
176
     0
 90
        2
176
     0
 90
        0
176
     0
 90
        0
176
     0
 40
0.6
176
     0
 40
30.0
176
     0
 62
     7
420
 16777215
176
     0
 90
        1
176
     0
 90
        4
176
     0
 62
     7
176
     0
 62
   257
176
     0
 90
        1
176
     0
 90
        1
176
     0
 40
1.0
176
     0
 90
       10
176
     2
 62
     7
176
     0
 40
1.0
176
     0
 90
        1
176
     0
 90
        6
176
     0
 90
        2
176
     0
 62
     7
176
     0
 90
        5
176
     0
 90
        0
176
     0
 90
        0
176
     0
290
     0
176
     0
 90
        1
176
     0
 40
0.0
176
     0
 90
        0
176
     0
290
     0
176
     0
290
     1
176
     0
290
     1
176
     0
290
     0
176
     0
290
     0
176
     0
290
     0
176
     0
290
     0
176
     0
290
     0
176
     0
290
     0
176
     0
 90
       50
176
     0
 40
0.0
176
     0
 40
1.0
176
     0
 90
        0
176
     0
 62
    18
420
        0
176
     0
 90
       50
176
     0
 90
        3
176
     0
 62
     5
420
      255
176
     0
290
     0
176
     0
 90
       50
176
     0
 90
       50
176
     0
 90
       50
176
     0
290
     0
176
     0
 90
       50
176
     0
 62
   256
176
     0
 40
1.0
176
     0
 90
        2
176
     0
  1
strokes_ogs.tif
176
     0
290
     0
176
     0
 40
1.0
176
     0
 40
1.0
176
     0
1001
ACAD
1000
AcDbSavedByObjectVersion
1070
     0
  0
VISUALSTYLE
  5
37
102
{ACAD_REACTORS
330
29
102
}
330
29
100
AcDbVisualStyle
  2
Linepattern
 70
    14
177
     3
291
     1
 70
    58
 90
        2
176
     1
 90
        2
176
     1
 90
        0
176
     1
 90
        0
176
     1
 40
0.6
176
     1
 40
30.0
176
     1
 62
     7
420
 16777215
176
     1
 90
        1
176
     1
 90
        4
176
     1
 62
     7
176
     1
 62
   257
176
     1
 90
        7
176
     1
 90
        7
176
     1
 40
1.0
176
     1
 90
        8
176
     1
 62
     7
176
     1
 40
1.0
176
     1
 90
        1
176
     1
 90
        6
176
     1
 90
        2
176
     1
 62
     7
176
     1
 90
        5
176
     1
 90
        0
176
     1
 90
        0
176
     1
290
     0
176
     1
 90
        1
176
     1
 40
0.0
176
     1
 90
        0
176
     1
290
     0
176
     1
290
     1
176
     1
290
     1
176
     1
290
     0
176
     1
290
     0
176
     1
290
     0
176
     1
290
     0
176
     1
290
     0
176
     1
290
     0
176
     1
 90
       50
176
     1
 40
0.0
176
     1
 40
1.0
176
     1
 90
        0
176
     1
 62
    18
420
        0
176
     1
 90
       50
176
     1
 90
        3
176
     1
 62
     5
420
      255
176
     1
290
     0
176
     1
 90
       50
176
     1
 90
       50
176
     1
 90
       50
176
     1
290
     0
176
     1
 90
       50
176
     1
 62
   256
176
     0
 40
1.0
176
     0
 90
        2
176
     1
  1
strokes_ogs.tif
176
     1
290
     0
176
     1
 40
1.0
176
     1
 40
1.0
176
     1
1001
ACAD
1000
AcDbSavedByObjectVersion
1070
     0
  0
VISUALSTYLE
  5
40
102
{ACAD_REACTORS
330
29
102
}
330
29
100
AcDbVisualStyle
  2
OverhangOff
 70
    21
177
     3
291
     1
 70
    58
 90
        2
176
     0
 90
        2
176
     0
 90
        0
176
     0
 90
        0
176
     0
 40
0.6
176
     0
 40
30.0
176
     0
 62
     7
420
 16777215
176
     0
 90
        1
176
     0
 90
        4
176
     0
 62
     7
176
     0
 62
   257
176
     0
 90
        1
176
     0
 90
        1
176
     0
 40
1.0
176
     0
 90
        9
176
     2
 62
     7
176
     0
 40
1.0
176
     0
 90
        1
176
     0
 90
        6
176
     0
 90
        2
176
     0
 62
     7
176
     0
 90
        5
176
     0
 90
        0
176
     0
 90
        0
176
     0
290
     0
176
     0
 90
        1
176
     0
 40
0.0
176
     0
 90
        0
176
     0
290
     0
176
     0
290
     1
176
     0
290
     1
176
     0
290
     0
176
     0
290
     0
176
     0
290
     0
176
     0
290
     0
176
     0
290
     0
176
     0
290
     0
176
     0
 90
       50
176
     0
 40
0.0
176
     0
 40
1.0
176
     0
 90
        0
176
     0
 62
    18
420
        0
176
     0
 90
       50
176
     0
 90
        3
176
     0
 62
     5
420
      255
176
     0
290
     0
176
     0
 90
       50
176
     0
 90
       50
176
     0
 90
       50
176
     0
290
     0
176
     0
 90
       50
176
     0
 62
   256
176
     0
 40
1.0
176
     0
 90
        2
176
     0
  1
strokes_ogs.tif
176
     0
290
     0
176
     0
 40
1.0
176
     0
 40
1.0
176
     0
1001
ACAD
1000
AcDbSavedByObjectVersion
1070
     0
  0
VISUALSTYLE
  5
33
102
{ACAD_REACTORS
330
29
102
}
330
29
100
AcDbVisualStyle
  2
Realistic
 70
     8
177
     3
291
     0
 70
    58
 90
        2
176
     1
 90
        3
176
     1
 90
        0
176
     1
 90
        2
176
     1
 40
0.6
176
     1
 40
30.0
176
     1
 62
     7
420
 16777215
176
     1
 90
        0
176
     1
 90
        0
176
     1
 62
     7
176
     1
 62
   257
176
     1
 90
        1
176
     1
 90
        1
176
     1
 40
1.0
176
     1
 90
        8
176
     1
 62
   257
176
     1
 40
1.0
176
     1
 90
        1
176
     1
 90
        6
176
     1
 90
        2
176
     1
 62
     7
176
     1
 90
        3
176
     1
 90
        0
176
     1
 90
        0
176
     1
290
     0
176
     1
 90
       13
176
     1
 40
0.0
176
     1
 90
        0
176
     1
290
     0
176
     1
290
     1
176
     1
290
     1
176
     1
290
     0
176
     1
290
     0
176
     1
290
     0
176
     1
290
     0
176
     1
290
     0
176
     1
290
     0
176
     1
 90
       50
176
     1
 40
0.0
176
     1
 40
1.0
176
     1
 90
        0
176
     1
 62
    18
420
        0
176
     1
 90
       50
176
     1
 90
        3
176
     1
 62
     5
420
      255
176
     1
290
     0
176
     1
 90
       50
176
     1
 90
       50
176
     1
 90
       50
176
     1
290
     0
176
     1
 90
       50
176
     1
 62
   256
176
     0
 40
1.0
176
     0
 90
        2
176
     1
  1
strokes_ogs.tif
176
     1
290
     0
176
     1
 40
1.0
176
     1
 40
1.0
176
     1
1001
ACAD
1000
AcDbSavedByObjectVersion
1070
     0
  0
VISUALSTYLE
  5
3E
102
{ACAD_REACTORS
330
29
102
}
330
29
100
AcDbVisualStyle
  2
Shaded
 70
    27
177
     3
291
     0
 70
    58
 90
        2
176
     1
 90
        2
176
     1
 90
        1
176
     1
 90
        2
176
     1
 40
0.6
176
     1
 40
30.0
176
     1
 62
     7
420
 16777215
176
     1
 90
        0
176
     1
 90
        4
176
     1
 62
     7
176
     1
 62
   257
176
     1
 90
        1
176
     1
 90
        1
176
     1
 40
1.0
176
     1
 90
        8
176
     1
 62
   257
176
     1
 40
1.0
176
     1
 90
        1
176
     1
 90
        6
176
     1
 90
        2
176
     1
 62
     8
420
  7895160
176
     1
 90
        3
176
     1
 90
        0
176
     1
 90
        0
176
     1
290
     0
176
     1
 90
        5
176
     1
 40
0.0
176
     1
 90
        0
176
     1
290
     0
176
     1
290
     1
176
     1
290
     1
176
     1
290
     0
176
     1
290
     0
176
     1
290
     0
176
     1
290
     0
176
     1
290
     0
176
     1
290
     0
176
     1
 90
       50
176
     1
 40
0.0
176
     1
 40
1.0
176
     1
 90
        0
176
     1
 62
    18
420
        0
176
     1
 90
       50
176
     1
 90
        3
176
     1
 62
     5
420
      255
176
     1
290
     0
176
     1
 90
       50
176
     1
 90
       50
176
     1
 90
       50
176
     1
290
     0
176
     1
 90
       50
176
     1
 62
   256
176
     0
 40
1.0
176
     0
 90
        2
176
     1
  1
strokes_ogs.tif
176
     1
290
     0
176
     1
 40
1.0
176
     1
 40
1.0
176
     1
1001
ACAD
1000
AcDbSavedByObjectVersion
1070
     0
  0
VISUALSTYLE
  5
3D
102
{ACAD_REACTORS
330
29
102
}
330
29
100
AcDbVisualStyle
  2
Shaded with edges
 70
    26
177
     3
291
     0
 70
    58
 90
        2
176
     1
 90
        2
176
     1
 90
        1
176
     1
 90
        2
176
     1
 40
0.6
176
     1
 40
30.0
176
     1
 62
     7
420
 16777215
176
     1
 90
        1
176
     1
 90
        2
176
     1
 62
     7
176
     1
 62
   257
176
     1
 90
        2
176
     1
 90
        1
176
     1
 40
1.0
176
     1
 90
        8
176
     1
 62
   257
176
     1
 40
1.0
176
     1
 90
        1
176
     1
 90
        6
176
     1
 90
        2
176
     1
 62
     7
176
     1
 90
        3
176
     1
 90
        0
176
     1
 90
        0
176
     1
290
     0
176
     1
 90
        5
176
     1
 40
0.0
176
     1
 90
        0
176
     1
290
     0
176
     1
290
     1
176
     1
290
     1
176
     1
290
     0
176
     1
290
     0
176
     1
290
     0
176
     1
290
     0
176
     1
290
     0
176
     1
290
     0
176
     1
 90
       50
176
     1
 40
0.0
176
     1
 40
1.0
176
     1
 90
        0
176
     1
 62
    18
420
        0
176
     1
 90
       50
176
     1
 90
        3
176
     1
 62
     5
420
      255
176
     1
290
     0
176
     1
 90
       50
176
     1
 90
       50
176
     1
 90
       50
176
     1
290
     0
176
     1
 90
       50
176
     1
 62
   256
176
     0
 40
1.0
176
     0
 90
        2
176
     1
  1
strokes_ogs.tif
176
     1
290
     0
176
     1
 40
1.0
176
     1
 40
1.0
176
     1
1001
ACAD
1000
AcDbSavedByObjectVersion
1070
     0
  0
VISUALSTYLE
  5
3A
102
{ACAD_REACTORS
330
29
102
}
330
29
100
AcDbVisualStyle
  2
Shades of Gray
 70
    23
177
     3
291
     0
 70
    58
 90
        2
176
     1
 90
        2
176
     1
 90
        3
176
     1
 90
        0
176
     1
 40
0.6
176
     1
 40
30.0
176
     1
 62
     7
420
 16777215
176
     1
 90
        2
176
     1
 90
        2
176
     1
 62
     7
176
     1
 62
     7
176
     1
 90
        1
176
     1
 90
        1
176
     1
 40
40.0
176
     1
 90
        8
176
     1
 62
     7
176
     1
 40
1.0
176
     1
 90
        1
176
     1
 90
        6
176
     1
 90
        2
176
     1
 62
     7
176
     1
 90
        3
176
     1
 90
        0
176
     1
 90
        0
176
     1
290
     0
176
     1
 90
        1
176
     1
 40
0.0
176
     1
 90
        0
176
     1
290
     0
176
     1
290
     1
176
     1
290
     1
176
     1
290
     0
176
     1
290
     0
176
     1
290
     0
176
     1
290
     0
176
     1
290
     0
176
     1
290
     0
176
     1
 90
       50
176
     1
 40
0.0
176
     1
 40
1.0
176
     1
 90
        0
176
     1
 62
    18
420
        0
176
     1
 90
       50
176
     1
 90
        3
176
     1
 62
     5
420
      255
176
     1
290
     0
176
     1
 90
       50
176
     1
 90
       50
176
     1
 90
       50
176
     1
290
     0
176
     1
 90
       50
176
     1
 62
   256
176
     0
 40
1.0
176
     0
 90
        2
176
     1
  1
strokes_ogs.tif
176
     1
290
     0
176
     1
 40
1.0
176
     1
 40
1.0
176
     1
1001
ACAD
1000
AcDbSavedByObjectVersion
1070
     0
  0
VISUALSTYLE
  5
3B
102
{ACAD_REACTORS
330
29
102
}
330
29
100
AcDbVisualStyle
  2
Sketchy
 70
    24
177
     3
291
     0
 70
    58
 90
        1
176
     1
 90
        2
176
     1
 90
        2
176
     1
 90
        0
176
     1
 40
0.6
176
     1
 40
30.0
176
     1
 62
     7
420
 16777215
176
     1
 90
        2
176
     1
 90
        2
176
     1
 62
     7
176
     1
 62
     7
176
     1
 90
        1
176
     1
 90
        1
176
     1
 40
40.0
176
     1
 90
       11
176
     1
 62
     7
176
     1
 40
1.0
176
     1
 90
        1
176
     1
 90
        6
176
     1
 90
        2
176
     1
 62
     7
176
     1
 90
        6
176
     1
 90
        0
176
     1
 90
        0
176
     1
290
     0
176
     1
 90
        1
176
     1
 40
0.0
176
     1
 90
        0
176
     1
290
     0
176
     1
290
     1
176
     1
290
     1
176
     1
290
     0
176
     1
290
     0
176
     1
290
     0
176
     1
290
     0
176
     1
290
     0
176
     1
290
     0
176
     1
 90
       50
176
     1
 40
0.0
176
     1
 40
1.0
176
     1
 90
        0
176
     1
 62
    18
420
        0
176
     1
 90
       50
176
     1
 90
        3
176
     1
 62
     5
420
      255
176
     1
290
     0
176
     1
 90
       50
176
     1
 90
       50
176
     1
 90
       50
176
     1
290
     0
176
     1
 90
       50
176
     1
 62
   256
176
     0
 40
1.0
176
     0
 90
        2
176
     1
  1
strokes_ogs.tif
176
     1
290
     0
176
     1
 40
1.0
176
     1
 40
1.0
176
     1
1001
ACAD
1000
AcDbSavedByObjectVersion
1070
     0
  0
VISUALSTYLE
  5
36
102
{ACAD_REACTORS
330
29
102
}
330
29
100
AcDbVisualStyle
  2
Thicken
 70
    13
177
     3
291
     1
 70
    58
 90
        2
176
     1
 90
        2
176
     1
 90
        0
176
     1
 90
        0
176
     1
 40
0.6
176
     1
 40
30.0
176
     1
 62
     7
420
 16777215
176
     1
 90
        1
176
     1
 90
        4
176
     1
 62
     7
176
     1
 62
   257
176
     1
 90
        1
176
     1
 90
        1
176
     1
 40
1.0
176
     1
 90
       12
176
     1
 62
     7
176
     1
 40
1.0
176
     1
 90
        1
176
     1
 90
        6
176
     1
 90
        2
176
     1
 62
     7
176
     1
 90
        5
176
     1
 90
        0
176
     1
 90
        0
176
     1
290
     0
176
     1
 90
        1
176
     1
 40
0.0
176
     1
 90
        0
176
     1
290
     0
176
     1
290
     1
176
     1
290
     1
176
     1
290
     0
176
     1
290
     0
176
     1
290
     0
176
     1
290
     0
176
     1
290
     0
176
     1
290
     0
176
     1
 90
       50
176
     1
 40
0.0
176
     1
 40
1.0
176
     1
 90
        0
176
     1
 62
    18
420
        0
176
     1
 90
       50
176
     1
 90
        3
176
     1
 62
     5
420
      255
176
     1
290
     0
176
     1
 90
       50
176
     1
 90
       50
176
     1
 90
       50
176
     1
290
     0
176
     1
 90
       50
176
     1
 62
   256
176
     0
 40
1.0
176
     0
 90
        2
176
     1
  1
strokes_ogs.tif
176
     1
290
     0
176
     1
 40
1.0
176
     1
 40
1.0
176
     1
1001
ACAD
1000
AcDbSavedByObjectVersion
1070
     0
  0
VISUALSTYLE
  5
30
102
{ACAD_REACTORS
330
29
102
}
330
29
100
AcDbVisualStyle
  2
Wireframe
 70
     5
177
     3
291
     0
 70
    58
 90
        0
176
     1
 90
        2
176
     1
 90
        0
176
     1
 90
        0
176
     1
 40
0.6
176
     1
 40
30.0
176
     1
 62
     7
420
 16777215
176
     1
 90
        1
176
     1
 90
        4
176
     1
 62
     7
176
     1
 62
   257
176
     1
 90
        1
176
     1
 90
        1
176
     1
 40
1.0
176
     1
 90
        0
176
     1
 62
   257
176
     1
 40
1.0
176
     1
 90
        1
176
     1
 90
        6
176
     1
 90
        2
176
     1
 62
     7
176
     1
 90
        3
176
     1
 90
        0
176
     1
 90
        0
176
     1
290
     0
176
     1
 90
        1
176
     1
 40
0.0
176
     1
 90
        0
176
     1
290
     0
176
     1
290
     1
176
     1
290
     1
176
     1
290
     0
176
     1
290
     0
176
     1
290
     0
176
     1
290
     0
176
     1
290
     0
176
     1
290
     0
176
     1
 90
       50
176
     1
 40
0.0
176
     1
 40
1.0
176
     1
 90
        0
176
     1
 62
    18
420
        0
176
     1
 90
       50
176
     1
 90
        3
176
     1
 62
     5
420
      255
176
     1
290
     0
176
     1
 90
       50
176
     1
 90
       50
176
     1
 90
       50
176
     1
290
     0
176
     1
 90
       50
176
     1
 62
   256
176
     0
 40
1.0
176
     0
 90
        2
176
     1
  1
strokes_ogs.tif
176
     1
290
     0
176
     1
 40
1.0
176
     1
 40
1.0
176
     1
1001
ACAD
1000
AcDbSavedByObjectVersion
1070
     0
  0
VISUALSTYLE
  5
3C
102
{ACAD_REACTORS
330
29
102
}
330
29
100
AcDbVisualStyle
  2
X-Ray
 70
    25
177
     3
291
     0
 70
    58
 90
        2
176
     1
 90
        2
176
     1
 90
        1
176
     1
 90
        1
176
     1
 40
0.5
176
     1
 40
30.0
176
     1
 62
     7
420
 16777215
176
     1
 90
        1
176
     1
 90
        0
176
     1
 62
     7
176
     1
 62
   257
176
     1
 90
        1
176
     1
 90
        1
176
     1
 40
1.0
176
     1
 90
        8
176
     1
 62
     7
176
     1
 40
1.0
176
     1
 90
        1
176
     1
 90
        6
176
     1
 90
        2
176
     1
 62
     7
176
     1
 90
        3
176
     1
 90
        0
176
     1
 90
        0
176
     1
290
     0
176
     1
 90
       13
176
     1
 40
0.0
176
     1
 90
        0
176
     1
290
     0
176
     1
290
     1
176
     1
290
     1
176
     1
290
     0
176
     1
290
     0
176
     1
290
     0
176
     1
290
     0
176
     1
290
     0
176
     1
290
     0
176
     1
 90
       50
176
     1
 40
0.0
176
     1
 40
1.0
176
     1
 90
        0
176
     1
 62
    18
420
        0
176
     1
 90
       50
176
     1
 90
        3
176
     1
 62
     5
420
      255
176
     1
290
     0
176
     1
 90
       50
176
     1
 90
       50
176
     1
 90
       50
176
     1
290
     0
176
     1
 90
       50
176
     1
 62
   256
176
     0
 40
1.0
176
     0
 90
        2
176
     1
  1
strokes_ogs.tif
176
     1
290
     0
176
     1
 40
1.0
176
     1
 40
1.0
176
     1
1001
ACAD
1000
AcDbSavedByObjectVersion
1070
     0
  0
DICTIONARYVAR
  5
222
102
{ACAD_REACTORS
330
21D
102
}
330
21D
100
DictionaryVariables
280
     0
  1
0
  0
DICTIONARYVAR
  5
223
102
{ACAD_REACTORS
330
21D
102
}
330
21D
100
DictionaryVariables
280
     0
  1
1:1
  0
DICTIONARYVAR
  5
21F
102
{ACAD_REACTORS
330
21D
102
}
330
21D
100
DictionaryVariables
280
     0
  1
STANDARD
  0
DICTIONARYVAR
  5
21E
102
{ACAD_REACTORS
330
21D
102
}
330
21D
100
DictionaryVariables
280
     0
  1
STANDARD
  0
DICTIONARYVAR
  5
220
102
{ACAD_REACTORS
330
21D
102
}
330
21D
100
DictionaryVariables
280
     0
  1
Imperial24
  0
DICTIONARYVAR
  5
221
102
{ACAD_REACTORS
330
21D
102
}
330
21D
100
DictionaryVariables
280
     0
  1
Imperial24
  0
DICTIONARY
  5
229
330
6B
100
AcDbDictionary
280
     1
281
     1
  3
ACAD_XREC_ROUNDTRIP
360
22A
  0
DICTIONARY
  5
1A
330
19
100
AcDbDictionary
280
     1
281
     1
  3
BUMPTILE
360
1C
  3
DIFFUSETILE
360
1B
  3
OPACITYTILE
360
1F
  3
REFLECTIONTILE
360
1E
  3
REFRACTIONTILE
360
20
  3
SPECULARTILE
360
1D
  0
DICTIONARY
  5
12
330
11
100
AcDbDictionary
280
     1
281
     1
  3
BUMPTILE
360
14
  3
DIFFUSETILE
360
13
  3
OPACITYTILE
360
17
  3
REFLECTIONTILE
360
16
  3
REFRACTIONTILE
360
18
  3
SPECULARTILE
360
15
  0
DICTIONARY
  5
22
330
21
100
AcDbDictionary
280
     1
281
     1
  3
BUMPTILE
360
24
  3
DIFFUSETILE
360
23
  3
OPACITYTILE
360
27
  3
REFLECTIONTILE
360
26
  3
REFRACTIONTILE
360
28
  3
SPECULARTILE
360
25
  0
DICTIONARY
  5
227
330
69
100
AcDbDictionary
280
     1
281
     1
  3
ACAD_XREC_ROUNDTRIP
360
228
  0
DICTIONARY
  5
224
330
65
100
AcDbDictionary
280
     1
281
     1
  3
ACAD_ROUNDTRIP_2008_TABLESTYLE_CELLSTYLEMAP
360
225
  0
XRECORD
  5
22A
102
{ACAD_REACTORS
330
229
102
}
330
229
100
AcDbXrecord
280
     1
102
DISPLAYNAME
  1
Imperial24
102
FLAGS
 90
        0
  0
XRECORD
  5
1C
102
{ACAD_REACTORS
330
1A
102
}
330
1A
100
AcDbXrecord
280
     1
270
     1
271
     1
  0
XRECORD
  5
1B
102
{ACAD_REACTORS
330
1A
102
}
330
1A
100
AcDbXrecord
280
     1
270
     1
271
     1
  0
XRECORD
  5
1F
102
{ACAD_REACTORS
330
1A
102
}
330
1A
100
AcDbXrecord
280
     1
270
     1
271
     1
  0
XRECORD
  5
1E
102
{ACAD_REACTORS
330
1A
102
}
330
1A
100
AcDbXrecord
280
     1
270
     1
271
     1
  0
XRECORD
  5
20
102
{ACAD_REACTORS
330
1A
102
}
330
1A
100
AcDbXrecord
280
     1
270
     1
271
     1
  0
XRECORD
  5
1D
102
{ACAD_REACTORS
330
1A
102
}
330
1A
100
AcDbXrecord
280
     1
270
     1
271
     1
  0
XRECORD
  5
14
102
{ACAD_REACTORS
330
12
102
}
330
12
100
AcDbXrecord
280
     1
270
     1
271
     1
  0
XRECORD
  5
13
102
{ACAD_REACTORS
330
12
102
}
330
12
100
AcDbXrecord
280
     1
270
     1
271
     1
  0
XRECORD
  5
17
102
{ACAD_REACTORS
330
12
102
}
330
12
100
AcDbXrecord
280
     1
270
     1
271
     1
  0
XRECORD
  5
16
102
{ACAD_REACTORS
330
12
102
}
330
12
100
AcDbXrecord
280
     1
270
     1
271
     1
  0
XRECORD
  5
18
102
{ACAD_REACTORS
330
12
102
}
330
12
100
AcDbXrecord
280
     1
270
     1
271
     1
  0
XRECORD
  5
15
102
{ACAD_REACTORS
330
12
102
}
330
12
100
AcDbXrecord
280
     1
270
     1
271
     1
  0
XRECORD
  5
24
102
{ACAD_REACTORS
330
22
102
}
330
22
100
AcDbXrecord
280
     1
270
     1
271
     1
  0
XRECORD
  5
23
102
{ACAD_REACTORS
330
22
102
}
330
22
100
AcDbXrecord
280
     1
270
     1
271
     1
  0
XRECORD
  5
27
102
{ACAD_REACTORS
330
22
102
}
330
22
100
AcDbXrecord
280
     1
270
     1
271
     1
  0
XRECORD
  5
26
102
{ACAD_REACTORS
330
22
102
}
330
22
100
AcDbXrecord
280
     1
270
     1
271
     1
  0
XRECORD
  5
28
102
{ACAD_REACTORS
330
22
102
}
330
22
100
AcDbXrecord
280
     1
270
     1
271
     1
  0
XRECORD
  5
25
102
{ACAD_REACTORS
330
22
102
}
330
22
100
AcDbXrecord
280
     1
270
     1
271
     1
  0
XRECORD
  5
228
102
{ACAD_REACTORS
330
227
102
}
330
227
100
AcDbXrecord
280
     1
102
DISPLAYNAME
  1
Imperial24
102
FLAGS
 90
        0
  0
CELLSTYLEMAP
  5
225
102
{ACAD_REACTORS
330
224
102
}
330
224
100
AcDbCellStyleMap
 90
        3
300
CELLSTYLE
  1
TABLEFORMAT_BEGIN
 90
        5
170
     1
 91
        0
 92
    32768
 62
   257
 93
        1
300
CONTENTFORMAT
  1
CONTENTFORMAT_BEGIN
 90
        0
 91
        0
 92
      512
 93
        0
300

 40
0.0
140
1.0
 94
        5
 62
     0
340
55
144
0.25
309
CONTENTFORMAT_END
171
     1
301
MARGIN
  1
CELLMARGIN_BEGIN
 40
1.5
 40
1.5
 40
1.5
 40
1.5
 40
0.18
 40
0.18
309
CELLMARGIN_END
 94
        0
309
TABLEFORMAT_END
  1
CELLSTYLE_BEGIN
 90
        1
 91
        1
300
_TITLE
309
CELLSTYLE_END
300
CELLSTYLE
  1
TABLEFORMAT_BEGIN
 90
        5
170
     1
 91
        0
 92
        0
 62
   257
 93
        1
300
CONTENTFORMAT
  1
CONTENTFORMAT_BEGIN
 90
        0
 91
        0
 92
      512
 93
        0
300

 40
0.0
140
1.0
 94
        5
 62
     0
340
55
144
0.18
309
CONTENTFORMAT_END
171
     1
301
MARGIN
  1
CELLMARGIN_BEGIN
 40
1.5
 40
1.5
 40
1.5
 40
1.5
 40
0.18
 40
0.18
309
CELLMARGIN_END
 94
        0
309
TABLEFORMAT_END
  1
CELLSTYLE_BEGIN
 90
        2
 91
        1
300
_HEADER
309
CELLSTYLE_END
300
CELLSTYLE
  1
TABLEFORMAT_BEGIN
 90
        5
170
     1
 91
        0
 92
        0
 62
   257
 93
        1
300
CONTENTFORMAT
  1
CONTENTFORMAT_BEGIN
 90
        0
 91
        0
 92
      512
 93
        0
300

 40
0.0
140
1.0
 94
        2
 62
     0
340
55
144
0.18
309
CONTENTFORMAT_END
171
     1
301
MARGIN
  1
CELLMARGIN_BEGIN
 40
1.5
 40
1.5
 40
1.5
 40
1.5
 40
0.18
 40
0.18
309
CELLMARGIN_END
 94
        0
309
TABLEFORMAT_END
  1
CELLSTYLE_BEGIN
 90
        3
 91
        2
300
_DATA
309
CELLSTYLE_END
  0
ENDSEC
  0
EOF
