M48
; DRILL file {KiCad 9.0.6-9.0.6~ubuntu24.04.1} date 2025-11-26T09:30:34+0100
; FORMAT={-:-/ absolute / metric / decimal}
; #@! TF.CreationDate,2025-11-26T09:30:34+01:00
; #@! TF.GenerationSoftware,Kicad,Pcbnew,9.0.6-9.0.6~ubuntu24.04.1
; #@! TF.FileFunction,MixedPlating,1,2
FMAT,2
METRIC
; #@! TA.AperFunction,Plated,PTH,ComponentDrill
T1C0.800
; #@! TA.AperFunction,Plated,PTH,ComponentDrill
T2C1.000
; #@! TA.AperFunction,NonPlated,NPTH,ComponentDrill
T3C3.200
%
G90
G05
T1
X89.092Y-50.683
X89.092Y-54.62
X89.092Y-64.78
X91.592Y-50.683
X114.492Y-97.292
X116.992Y-97.292
X133.415Y-79.995
X133.415Y-82.495
T2
X70.804Y-50.254
X70.804Y-63.494
X71.312Y-44.46
X73.852Y-44.46
X73.852Y-50.286
X73.852Y-63.526
X73.852Y-72.4
X73.852Y-90.18
X76.392Y-44.46
X76.392Y-72.4
X76.392Y-90.18
X78.297Y-97.26
X78.297Y-110.5
X78.34Y-117.866
X78.932Y-44.46
X78.932Y-72.4
X78.932Y-90.18
X81.472Y-44.46
X81.472Y-72.4
X81.472Y-90.18
X82.94Y-117.866
X82.996Y-97.26
X82.996Y-110.5
X84.012Y-44.46
X84.012Y-72.4
X84.012Y-90.18
X86.552Y-44.46
X86.552Y-72.4
X86.552Y-90.18
X87.54Y-117.866
X87.568Y-97.26
X87.568Y-110.5
X89.092Y-44.46
X89.092Y-72.4
X89.092Y-90.18
X91.632Y-64.78
X91.632Y-72.4
X91.632Y-90.18
X92.14Y-97.26
X92.14Y-110.5
X92.14Y-117.866
X94.172Y-64.78
X94.172Y-72.4
X94.172Y-90.18
X96.712Y-64.78
X96.712Y-72.4
X96.712Y-90.18
X96.712Y-97.292
X96.839Y-117.866
X99.252Y-64.78
X99.252Y-72.4
X99.252Y-90.18
X99.252Y-97.292
X101.792Y-64.78
X101.792Y-72.4
X101.792Y-90.18
X101.792Y-97.292
X104.332Y-44.206
X104.332Y-64.78
X104.332Y-72.4
X104.332Y-90.18
X104.332Y-97.292
X105.622Y-117.841
X106.872Y-44.206
X106.872Y-64.78
X106.872Y-72.4
X106.872Y-90.18
X106.872Y-97.292
X108.162Y-117.841
X109.412Y-44.206
X109.412Y-64.78
X109.412Y-72.4
X109.412Y-90.18
X109.412Y-97.292
X111.952Y-44.206
X111.952Y-64.78
X111.952Y-72.4
X111.952Y-90.18
X114.492Y-44.206
X114.492Y-72.4
X114.492Y-90.18
X114.492Y-117.866
X117.032Y-44.206
X117.032Y-72.4
X117.032Y-90.18
X117.032Y-117.866
X124.779Y-82.179
X125.922Y-65.288
X137.352Y-89.672
X139.486Y-80.0
X139.486Y-82.54
T3
X57.342Y-39.38
X57.723Y-122.819
X140.654Y-123.073
X141.162Y-39.38
M30
