%TF.GenerationSoftware,KiCad,Pcbnew,9.0.6-9.0.6~ubuntu24.04.1*%
%TF.CreationDate,2025-11-26T09:30:13+01:00*%
%TF.ProjectId,Senso V4,53656e73-6f20-4563-942e-6b696361645f,rev?*%
%TF.SameCoordinates,Original*%
%TF.FileFunction,Other,User*%
%FSLAX46Y46*%
G04 Gerber Fmt 4.6, Leading zero omitted, Abs format (unit mm)*
G04 Created by KiCad (PCBNEW 9.0.6-9.0.6~ubuntu24.04.1) date 2025-11-26 09:30:13*
%MOMM*%
%LPD*%
G01*
G04 APERTURE LIST*
%ADD10C,0.200000*%
G04 APERTURE END LIST*
D10*
X91950309Y-120751863D02*
X92950309Y-121109006D01*
X91950309Y-121466149D02*
X92950309Y-121109006D01*
X92950309Y-121109006D02*
X93307452Y-120966149D01*
X93307452Y-120966149D02*
X93378881Y-120894720D01*
X93378881Y-120894720D02*
X93450309Y-120751863D01*
X92878881Y-122609006D02*
X92950309Y-122466149D01*
X92950309Y-122466149D02*
X92950309Y-122180435D01*
X92950309Y-122180435D02*
X92878881Y-122037577D01*
X92878881Y-122037577D02*
X92736023Y-121966149D01*
X92736023Y-121966149D02*
X92164595Y-121966149D01*
X92164595Y-121966149D02*
X92021738Y-122037577D01*
X92021738Y-122037577D02*
X91950309Y-122180435D01*
X91950309Y-122180435D02*
X91950309Y-122466149D01*
X91950309Y-122466149D02*
X92021738Y-122609006D01*
X92021738Y-122609006D02*
X92164595Y-122680435D01*
X92164595Y-122680435D02*
X92307452Y-122680435D01*
X92307452Y-122680435D02*
X92450309Y-121966149D01*
X92950309Y-123537577D02*
X92878881Y-123394720D01*
X92878881Y-123394720D02*
X92736023Y-123323291D01*
X92736023Y-123323291D02*
X91450309Y-123323291D01*
X92950309Y-124323291D02*
X92878881Y-124180434D01*
X92878881Y-124180434D02*
X92736023Y-124109005D01*
X92736023Y-124109005D02*
X91450309Y-124109005D01*
X92950309Y-125109005D02*
X92878881Y-124966148D01*
X92878881Y-124966148D02*
X92807452Y-124894719D01*
X92807452Y-124894719D02*
X92664595Y-124823291D01*
X92664595Y-124823291D02*
X92236023Y-124823291D01*
X92236023Y-124823291D02*
X92093166Y-124894719D01*
X92093166Y-124894719D02*
X92021738Y-124966148D01*
X92021738Y-124966148D02*
X91950309Y-125109005D01*
X91950309Y-125109005D02*
X91950309Y-125323291D01*
X91950309Y-125323291D02*
X92021738Y-125466148D01*
X92021738Y-125466148D02*
X92093166Y-125537577D01*
X92093166Y-125537577D02*
X92236023Y-125609005D01*
X92236023Y-125609005D02*
X92664595Y-125609005D01*
X92664595Y-125609005D02*
X92807452Y-125537577D01*
X92807452Y-125537577D02*
X92878881Y-125466148D01*
X92878881Y-125466148D02*
X92950309Y-125323291D01*
X92950309Y-125323291D02*
X92950309Y-125109005D01*
X91950309Y-126109005D02*
X92950309Y-126394720D01*
X92950309Y-126394720D02*
X92236023Y-126680434D01*
X92236023Y-126680434D02*
X92950309Y-126966148D01*
X92950309Y-126966148D02*
X91950309Y-127251862D01*
X87251309Y-121537578D02*
X88465595Y-121537578D01*
X88465595Y-121537578D02*
X88608452Y-121466149D01*
X88608452Y-121466149D02*
X88679881Y-121394720D01*
X88679881Y-121394720D02*
X88751309Y-121251863D01*
X88751309Y-121251863D02*
X88751309Y-121037578D01*
X88751309Y-121037578D02*
X88679881Y-120894720D01*
X88179881Y-121537578D02*
X88251309Y-121394720D01*
X88251309Y-121394720D02*
X88251309Y-121109006D01*
X88251309Y-121109006D02*
X88179881Y-120966149D01*
X88179881Y-120966149D02*
X88108452Y-120894720D01*
X88108452Y-120894720D02*
X87965595Y-120823292D01*
X87965595Y-120823292D02*
X87537023Y-120823292D01*
X87537023Y-120823292D02*
X87394166Y-120894720D01*
X87394166Y-120894720D02*
X87322738Y-120966149D01*
X87322738Y-120966149D02*
X87251309Y-121109006D01*
X87251309Y-121109006D02*
X87251309Y-121394720D01*
X87251309Y-121394720D02*
X87322738Y-121537578D01*
X88251309Y-122251863D02*
X87251309Y-122251863D01*
X87537023Y-122251863D02*
X87394166Y-122323292D01*
X87394166Y-122323292D02*
X87322738Y-122394721D01*
X87322738Y-122394721D02*
X87251309Y-122537578D01*
X87251309Y-122537578D02*
X87251309Y-122680435D01*
X88179881Y-123751863D02*
X88251309Y-123609006D01*
X88251309Y-123609006D02*
X88251309Y-123323292D01*
X88251309Y-123323292D02*
X88179881Y-123180434D01*
X88179881Y-123180434D02*
X88037023Y-123109006D01*
X88037023Y-123109006D02*
X87465595Y-123109006D01*
X87465595Y-123109006D02*
X87322738Y-123180434D01*
X87322738Y-123180434D02*
X87251309Y-123323292D01*
X87251309Y-123323292D02*
X87251309Y-123609006D01*
X87251309Y-123609006D02*
X87322738Y-123751863D01*
X87322738Y-123751863D02*
X87465595Y-123823292D01*
X87465595Y-123823292D02*
X87608452Y-123823292D01*
X87608452Y-123823292D02*
X87751309Y-123109006D01*
X88179881Y-125037577D02*
X88251309Y-124894720D01*
X88251309Y-124894720D02*
X88251309Y-124609006D01*
X88251309Y-124609006D02*
X88179881Y-124466148D01*
X88179881Y-124466148D02*
X88037023Y-124394720D01*
X88037023Y-124394720D02*
X87465595Y-124394720D01*
X87465595Y-124394720D02*
X87322738Y-124466148D01*
X87322738Y-124466148D02*
X87251309Y-124609006D01*
X87251309Y-124609006D02*
X87251309Y-124894720D01*
X87251309Y-124894720D02*
X87322738Y-125037577D01*
X87322738Y-125037577D02*
X87465595Y-125109006D01*
X87465595Y-125109006D02*
X87608452Y-125109006D01*
X87608452Y-125109006D02*
X87751309Y-124394720D01*
X87251309Y-125751862D02*
X88251309Y-125751862D01*
X87394166Y-125751862D02*
X87322738Y-125823291D01*
X87322738Y-125823291D02*
X87251309Y-125966148D01*
X87251309Y-125966148D02*
X87251309Y-126180434D01*
X87251309Y-126180434D02*
X87322738Y-126323291D01*
X87322738Y-126323291D02*
X87465595Y-126394720D01*
X87465595Y-126394720D02*
X88251309Y-126394720D01*
X83623309Y-120894720D02*
X82623309Y-120894720D01*
X82909023Y-120894720D02*
X82766166Y-120966149D01*
X82766166Y-120966149D02*
X82694738Y-121037578D01*
X82694738Y-121037578D02*
X82623309Y-121180435D01*
X82623309Y-121180435D02*
X82623309Y-121323292D01*
X83551881Y-122394720D02*
X83623309Y-122251863D01*
X83623309Y-122251863D02*
X83623309Y-121966149D01*
X83623309Y-121966149D02*
X83551881Y-121823291D01*
X83551881Y-121823291D02*
X83409023Y-121751863D01*
X83409023Y-121751863D02*
X82837595Y-121751863D01*
X82837595Y-121751863D02*
X82694738Y-121823291D01*
X82694738Y-121823291D02*
X82623309Y-121966149D01*
X82623309Y-121966149D02*
X82623309Y-122251863D01*
X82623309Y-122251863D02*
X82694738Y-122394720D01*
X82694738Y-122394720D02*
X82837595Y-122466149D01*
X82837595Y-122466149D02*
X82980452Y-122466149D01*
X82980452Y-122466149D02*
X83123309Y-121751863D01*
X83623309Y-123751863D02*
X82123309Y-123751863D01*
X83551881Y-123751863D02*
X83623309Y-123609005D01*
X83623309Y-123609005D02*
X83623309Y-123323291D01*
X83623309Y-123323291D02*
X83551881Y-123180434D01*
X83551881Y-123180434D02*
X83480452Y-123109005D01*
X83480452Y-123109005D02*
X83337595Y-123037577D01*
X83337595Y-123037577D02*
X82909023Y-123037577D01*
X82909023Y-123037577D02*
X82766166Y-123109005D01*
X82766166Y-123109005D02*
X82694738Y-123180434D01*
X82694738Y-123180434D02*
X82623309Y-123323291D01*
X82623309Y-123323291D02*
X82623309Y-123609005D01*
X82623309Y-123609005D02*
X82694738Y-123751863D01*
X79023309Y-120894720D02*
X77523309Y-120894720D01*
X78094738Y-120894720D02*
X78023309Y-121037578D01*
X78023309Y-121037578D02*
X78023309Y-121323292D01*
X78023309Y-121323292D02*
X78094738Y-121466149D01*
X78094738Y-121466149D02*
X78166166Y-121537578D01*
X78166166Y-121537578D02*
X78309023Y-121609006D01*
X78309023Y-121609006D02*
X78737595Y-121609006D01*
X78737595Y-121609006D02*
X78880452Y-121537578D01*
X78880452Y-121537578D02*
X78951881Y-121466149D01*
X78951881Y-121466149D02*
X79023309Y-121323292D01*
X79023309Y-121323292D02*
X79023309Y-121037578D01*
X79023309Y-121037578D02*
X78951881Y-120894720D01*
X79023309Y-122466149D02*
X78951881Y-122323292D01*
X78951881Y-122323292D02*
X78809023Y-122251863D01*
X78809023Y-122251863D02*
X77523309Y-122251863D01*
X78023309Y-123680435D02*
X79023309Y-123680435D01*
X78023309Y-123037577D02*
X78809023Y-123037577D01*
X78809023Y-123037577D02*
X78951881Y-123109006D01*
X78951881Y-123109006D02*
X79023309Y-123251863D01*
X79023309Y-123251863D02*
X79023309Y-123466149D01*
X79023309Y-123466149D02*
X78951881Y-123609006D01*
X78951881Y-123609006D02*
X78880452Y-123680435D01*
X78951881Y-124966149D02*
X79023309Y-124823292D01*
X79023309Y-124823292D02*
X79023309Y-124537578D01*
X79023309Y-124537578D02*
X78951881Y-124394720D01*
X78951881Y-124394720D02*
X78809023Y-124323292D01*
X78809023Y-124323292D02*
X78237595Y-124323292D01*
X78237595Y-124323292D02*
X78094738Y-124394720D01*
X78094738Y-124394720D02*
X78023309Y-124537578D01*
X78023309Y-124537578D02*
X78023309Y-124823292D01*
X78023309Y-124823292D02*
X78094738Y-124966149D01*
X78094738Y-124966149D02*
X78237595Y-125037578D01*
X78237595Y-125037578D02*
X78380452Y-125037578D01*
X78380452Y-125037578D02*
X78523309Y-124323292D01*
X108253881Y-126438571D02*
X108253881Y-127581429D01*
X108825309Y-127010000D02*
X107682452Y-127010000D01*
X110907494Y-125082100D02*
X110764637Y-125153528D01*
X110764637Y-125153528D02*
X110478923Y-125153528D01*
X110478923Y-125153528D02*
X110336066Y-125082100D01*
X110336066Y-125082100D02*
X110264637Y-124939242D01*
X110264637Y-124939242D02*
X110264637Y-124867814D01*
X110264637Y-124867814D02*
X110336066Y-124724957D01*
X110336066Y-124724957D02*
X110478923Y-124653528D01*
X110478923Y-124653528D02*
X110693209Y-124653528D01*
X110693209Y-124653528D02*
X110836066Y-124582100D01*
X110836066Y-124582100D02*
X110907494Y-124439242D01*
X110907494Y-124439242D02*
X110907494Y-124367814D01*
X110907494Y-124367814D02*
X110836066Y-124224957D01*
X110836066Y-124224957D02*
X110693209Y-124153528D01*
X110693209Y-124153528D02*
X110478923Y-124153528D01*
X110478923Y-124153528D02*
X110336066Y-124224957D01*
X109621780Y-124153528D02*
X109621780Y-125653528D01*
X109621780Y-124224957D02*
X109478923Y-124153528D01*
X109478923Y-124153528D02*
X109193208Y-124153528D01*
X109193208Y-124153528D02*
X109050351Y-124224957D01*
X109050351Y-124224957D02*
X108978923Y-124296385D01*
X108978923Y-124296385D02*
X108907494Y-124439242D01*
X108907494Y-124439242D02*
X108907494Y-124867814D01*
X108907494Y-124867814D02*
X108978923Y-125010671D01*
X108978923Y-125010671D02*
X109050351Y-125082100D01*
X109050351Y-125082100D02*
X109193208Y-125153528D01*
X109193208Y-125153528D02*
X109478923Y-125153528D01*
X109478923Y-125153528D02*
X109621780Y-125082100D01*
X107693208Y-125082100D02*
X107836065Y-125153528D01*
X107836065Y-125153528D02*
X108121780Y-125153528D01*
X108121780Y-125153528D02*
X108264637Y-125082100D01*
X108264637Y-125082100D02*
X108336065Y-124939242D01*
X108336065Y-124939242D02*
X108336065Y-124367814D01*
X108336065Y-124367814D02*
X108264637Y-124224957D01*
X108264637Y-124224957D02*
X108121780Y-124153528D01*
X108121780Y-124153528D02*
X107836065Y-124153528D01*
X107836065Y-124153528D02*
X107693208Y-124224957D01*
X107693208Y-124224957D02*
X107621780Y-124367814D01*
X107621780Y-124367814D02*
X107621780Y-124510671D01*
X107621780Y-124510671D02*
X108336065Y-124653528D01*
X106336066Y-125153528D02*
X106336066Y-124367814D01*
X106336066Y-124367814D02*
X106407494Y-124224957D01*
X106407494Y-124224957D02*
X106550351Y-124153528D01*
X106550351Y-124153528D02*
X106836066Y-124153528D01*
X106836066Y-124153528D02*
X106978923Y-124224957D01*
X106336066Y-125082100D02*
X106478923Y-125153528D01*
X106478923Y-125153528D02*
X106836066Y-125153528D01*
X106836066Y-125153528D02*
X106978923Y-125082100D01*
X106978923Y-125082100D02*
X107050351Y-124939242D01*
X107050351Y-124939242D02*
X107050351Y-124796385D01*
X107050351Y-124796385D02*
X106978923Y-124653528D01*
X106978923Y-124653528D02*
X106836066Y-124582100D01*
X106836066Y-124582100D02*
X106478923Y-124582100D01*
X106478923Y-124582100D02*
X106336066Y-124510671D01*
X105621780Y-125153528D02*
X105621780Y-123653528D01*
X105478923Y-124582100D02*
X105050351Y-125153528D01*
X105050351Y-124153528D02*
X105621780Y-124724957D01*
X103836065Y-125082100D02*
X103978922Y-125153528D01*
X103978922Y-125153528D02*
X104264637Y-125153528D01*
X104264637Y-125153528D02*
X104407494Y-125082100D01*
X104407494Y-125082100D02*
X104478922Y-124939242D01*
X104478922Y-124939242D02*
X104478922Y-124367814D01*
X104478922Y-124367814D02*
X104407494Y-124224957D01*
X104407494Y-124224957D02*
X104264637Y-124153528D01*
X104264637Y-124153528D02*
X103978922Y-124153528D01*
X103978922Y-124153528D02*
X103836065Y-124224957D01*
X103836065Y-124224957D02*
X103764637Y-124367814D01*
X103764637Y-124367814D02*
X103764637Y-124510671D01*
X103764637Y-124510671D02*
X104478922Y-124653528D01*
X103121780Y-125153528D02*
X103121780Y-124153528D01*
X103121780Y-124439242D02*
X103050351Y-124296385D01*
X103050351Y-124296385D02*
X102978923Y-124224957D01*
X102978923Y-124224957D02*
X102836065Y-124153528D01*
X102836065Y-124153528D02*
X102693208Y-124153528D01*
X105713881Y-126438571D02*
X105713881Y-127581429D01*
X143916066Y-81743528D02*
X144630352Y-81743528D01*
X144630352Y-81743528D02*
X144701780Y-82457814D01*
X144701780Y-82457814D02*
X144630352Y-82386385D01*
X144630352Y-82386385D02*
X144487495Y-82314957D01*
X144487495Y-82314957D02*
X144130352Y-82314957D01*
X144130352Y-82314957D02*
X143987495Y-82386385D01*
X143987495Y-82386385D02*
X143916066Y-82457814D01*
X143916066Y-82457814D02*
X143844637Y-82600671D01*
X143844637Y-82600671D02*
X143844637Y-82957814D01*
X143844637Y-82957814D02*
X143916066Y-83100671D01*
X143916066Y-83100671D02*
X143987495Y-83172100D01*
X143987495Y-83172100D02*
X144130352Y-83243528D01*
X144130352Y-83243528D02*
X144487495Y-83243528D01*
X144487495Y-83243528D02*
X144630352Y-83172100D01*
X144630352Y-83172100D02*
X144701780Y-83100671D01*
X143344638Y-82243528D02*
X142987495Y-83243528D01*
X142987495Y-83243528D02*
X142630352Y-82243528D01*
X144844637Y-79274957D02*
X144987495Y-79203528D01*
X144987495Y-79203528D02*
X145201780Y-79203528D01*
X145201780Y-79203528D02*
X145416066Y-79274957D01*
X145416066Y-79274957D02*
X145558923Y-79417814D01*
X145558923Y-79417814D02*
X145630352Y-79560671D01*
X145630352Y-79560671D02*
X145701780Y-79846385D01*
X145701780Y-79846385D02*
X145701780Y-80060671D01*
X145701780Y-80060671D02*
X145630352Y-80346385D01*
X145630352Y-80346385D02*
X145558923Y-80489242D01*
X145558923Y-80489242D02*
X145416066Y-80632100D01*
X145416066Y-80632100D02*
X145201780Y-80703528D01*
X145201780Y-80703528D02*
X145058923Y-80703528D01*
X145058923Y-80703528D02*
X144844637Y-80632100D01*
X144844637Y-80632100D02*
X144773209Y-80560671D01*
X144773209Y-80560671D02*
X144773209Y-80060671D01*
X144773209Y-80060671D02*
X145058923Y-80060671D01*
X144130352Y-80703528D02*
X144130352Y-79203528D01*
X144130352Y-79203528D02*
X143273209Y-80703528D01*
X143273209Y-80703528D02*
X143273209Y-79203528D01*
X142558923Y-80703528D02*
X142558923Y-79203528D01*
X142558923Y-79203528D02*
X142201780Y-79203528D01*
X142201780Y-79203528D02*
X141987494Y-79274957D01*
X141987494Y-79274957D02*
X141844637Y-79417814D01*
X141844637Y-79417814D02*
X141773208Y-79560671D01*
X141773208Y-79560671D02*
X141701780Y-79846385D01*
X141701780Y-79846385D02*
X141701780Y-80060671D01*
X141701780Y-80060671D02*
X141773208Y-80346385D01*
X141773208Y-80346385D02*
X141844637Y-80489242D01*
X141844637Y-80489242D02*
X141987494Y-80632100D01*
X141987494Y-80632100D02*
X142201780Y-80703528D01*
X142201780Y-80703528D02*
X142558923Y-80703528D01*
X115175309Y-124403006D02*
X115175309Y-123688720D01*
X115175309Y-123688720D02*
X113675309Y-123688720D01*
X114389595Y-124903006D02*
X114389595Y-125403006D01*
X115175309Y-125617292D02*
X115175309Y-124903006D01*
X115175309Y-124903006D02*
X113675309Y-124903006D01*
X113675309Y-124903006D02*
X113675309Y-125617292D01*
X115175309Y-126260149D02*
X113675309Y-126260149D01*
X113675309Y-126260149D02*
X113675309Y-126617292D01*
X113675309Y-126617292D02*
X113746738Y-126831578D01*
X113746738Y-126831578D02*
X113889595Y-126974435D01*
X113889595Y-126974435D02*
X114032452Y-127045864D01*
X114032452Y-127045864D02*
X114318166Y-127117292D01*
X114318166Y-127117292D02*
X114532452Y-127117292D01*
X114532452Y-127117292D02*
X114818166Y-127045864D01*
X114818166Y-127045864D02*
X114961023Y-126974435D01*
X114961023Y-126974435D02*
X115103881Y-126831578D01*
X115103881Y-126831578D02*
X115175309Y-126617292D01*
X115175309Y-126617292D02*
X115175309Y-126260149D01*
X114603881Y-128903006D02*
X114603881Y-130045864D01*
X117715309Y-124403006D02*
X117715309Y-123688720D01*
X117715309Y-123688720D02*
X116215309Y-123688720D01*
X116929595Y-124903006D02*
X116929595Y-125403006D01*
X117715309Y-125617292D02*
X117715309Y-124903006D01*
X117715309Y-124903006D02*
X116215309Y-124903006D01*
X116215309Y-124903006D02*
X116215309Y-125617292D01*
X117715309Y-126260149D02*
X116215309Y-126260149D01*
X116215309Y-126260149D02*
X116215309Y-126617292D01*
X116215309Y-126617292D02*
X116286738Y-126831578D01*
X116286738Y-126831578D02*
X116429595Y-126974435D01*
X116429595Y-126974435D02*
X116572452Y-127045864D01*
X116572452Y-127045864D02*
X116858166Y-127117292D01*
X116858166Y-127117292D02*
X117072452Y-127117292D01*
X117072452Y-127117292D02*
X117358166Y-127045864D01*
X117358166Y-127045864D02*
X117501023Y-126974435D01*
X117501023Y-126974435D02*
X117643881Y-126831578D01*
X117643881Y-126831578D02*
X117715309Y-126617292D01*
X117715309Y-126617292D02*
X117715309Y-126260149D01*
X117143881Y-128903006D02*
X117143881Y-130045864D01*
X117715309Y-129474435D02*
X116572452Y-129474435D01*
X123906738Y-76337143D02*
X123835309Y-76194286D01*
X123835309Y-76194286D02*
X123835309Y-75980000D01*
X123835309Y-75980000D02*
X123906738Y-75765714D01*
X123906738Y-75765714D02*
X124049595Y-75622857D01*
X124049595Y-75622857D02*
X124192452Y-75551428D01*
X124192452Y-75551428D02*
X124478166Y-75480000D01*
X124478166Y-75480000D02*
X124692452Y-75480000D01*
X124692452Y-75480000D02*
X124978166Y-75551428D01*
X124978166Y-75551428D02*
X125121023Y-75622857D01*
X125121023Y-75622857D02*
X125263881Y-75765714D01*
X125263881Y-75765714D02*
X125335309Y-75980000D01*
X125335309Y-75980000D02*
X125335309Y-76122857D01*
X125335309Y-76122857D02*
X125263881Y-76337143D01*
X125263881Y-76337143D02*
X125192452Y-76408571D01*
X125192452Y-76408571D02*
X124692452Y-76408571D01*
X124692452Y-76408571D02*
X124692452Y-76122857D01*
X125335309Y-77051428D02*
X123835309Y-77051428D01*
X123835309Y-77051428D02*
X125335309Y-77908571D01*
X125335309Y-77908571D02*
X123835309Y-77908571D01*
X125335309Y-78622857D02*
X123835309Y-78622857D01*
X123835309Y-78622857D02*
X123835309Y-78980000D01*
X123835309Y-78980000D02*
X123906738Y-79194286D01*
X123906738Y-79194286D02*
X124049595Y-79337143D01*
X124049595Y-79337143D02*
X124192452Y-79408572D01*
X124192452Y-79408572D02*
X124478166Y-79480000D01*
X124478166Y-79480000D02*
X124692452Y-79480000D01*
X124692452Y-79480000D02*
X124978166Y-79408572D01*
X124978166Y-79408572D02*
X125121023Y-79337143D01*
X125121023Y-79337143D02*
X125263881Y-79194286D01*
X125263881Y-79194286D02*
X125335309Y-78980000D01*
X125335309Y-78980000D02*
X125335309Y-78622857D01*
X136535309Y-93775714D02*
X136535309Y-93061428D01*
X136535309Y-93061428D02*
X137249595Y-92990000D01*
X137249595Y-92990000D02*
X137178166Y-93061428D01*
X137178166Y-93061428D02*
X137106738Y-93204286D01*
X137106738Y-93204286D02*
X137106738Y-93561428D01*
X137106738Y-93561428D02*
X137178166Y-93704286D01*
X137178166Y-93704286D02*
X137249595Y-93775714D01*
X137249595Y-93775714D02*
X137392452Y-93847143D01*
X137392452Y-93847143D02*
X137749595Y-93847143D01*
X137749595Y-93847143D02*
X137892452Y-93775714D01*
X137892452Y-93775714D02*
X137963881Y-93704286D01*
X137963881Y-93704286D02*
X138035309Y-93561428D01*
X138035309Y-93561428D02*
X138035309Y-93204286D01*
X138035309Y-93204286D02*
X137963881Y-93061428D01*
X137963881Y-93061428D02*
X137892452Y-92990000D01*
X137035309Y-94347142D02*
X138035309Y-94704285D01*
X138035309Y-94704285D02*
X137035309Y-95061428D01*
X128407309Y-63272143D02*
X128407309Y-64200715D01*
X128407309Y-64200715D02*
X128978738Y-63700715D01*
X128978738Y-63700715D02*
X128978738Y-63915000D01*
X128978738Y-63915000D02*
X129050166Y-64057858D01*
X129050166Y-64057858D02*
X129121595Y-64129286D01*
X129121595Y-64129286D02*
X129264452Y-64200715D01*
X129264452Y-64200715D02*
X129621595Y-64200715D01*
X129621595Y-64200715D02*
X129764452Y-64129286D01*
X129764452Y-64129286D02*
X129835881Y-64057858D01*
X129835881Y-64057858D02*
X129907309Y-63915000D01*
X129907309Y-63915000D02*
X129907309Y-63486429D01*
X129907309Y-63486429D02*
X129835881Y-63343572D01*
X129835881Y-63343572D02*
X129764452Y-63272143D01*
X129764452Y-64843571D02*
X129835881Y-64915000D01*
X129835881Y-64915000D02*
X129907309Y-64843571D01*
X129907309Y-64843571D02*
X129835881Y-64772143D01*
X129835881Y-64772143D02*
X129764452Y-64843571D01*
X129764452Y-64843571D02*
X129907309Y-64843571D01*
X128407309Y-65415000D02*
X128407309Y-66343572D01*
X128407309Y-66343572D02*
X128978738Y-65843572D01*
X128978738Y-65843572D02*
X128978738Y-66057857D01*
X128978738Y-66057857D02*
X129050166Y-66200715D01*
X129050166Y-66200715D02*
X129121595Y-66272143D01*
X129121595Y-66272143D02*
X129264452Y-66343572D01*
X129264452Y-66343572D02*
X129621595Y-66343572D01*
X129621595Y-66343572D02*
X129764452Y-66272143D01*
X129764452Y-66272143D02*
X129835881Y-66200715D01*
X129835881Y-66200715D02*
X129907309Y-66057857D01*
X129907309Y-66057857D02*
X129907309Y-65629286D01*
X129907309Y-65629286D02*
X129835881Y-65486429D01*
X129835881Y-65486429D02*
X129764452Y-65415000D01*
X128907309Y-66843571D02*
X129907309Y-67200714D01*
X129907309Y-67200714D02*
X128907309Y-67557857D01*
X82083881Y-37518422D02*
X82155309Y-37661279D01*
X82155309Y-37661279D02*
X82155309Y-37946993D01*
X82155309Y-37946993D02*
X82083881Y-38089850D01*
X82083881Y-38089850D02*
X81941023Y-38161279D01*
X81941023Y-38161279D02*
X81869595Y-38161279D01*
X81869595Y-38161279D02*
X81726738Y-38089850D01*
X81726738Y-38089850D02*
X81655309Y-37946993D01*
X81655309Y-37946993D02*
X81655309Y-37732708D01*
X81655309Y-37732708D02*
X81583881Y-37589850D01*
X81583881Y-37589850D02*
X81441023Y-37518422D01*
X81441023Y-37518422D02*
X81369595Y-37518422D01*
X81369595Y-37518422D02*
X81226738Y-37589850D01*
X81226738Y-37589850D02*
X81155309Y-37732708D01*
X81155309Y-37732708D02*
X81155309Y-37946993D01*
X81155309Y-37946993D02*
X81226738Y-38089850D01*
X82083881Y-39446994D02*
X82155309Y-39304136D01*
X82155309Y-39304136D02*
X82155309Y-39018422D01*
X82155309Y-39018422D02*
X82083881Y-38875565D01*
X82083881Y-38875565D02*
X82012452Y-38804136D01*
X82012452Y-38804136D02*
X81869595Y-38732708D01*
X81869595Y-38732708D02*
X81441023Y-38732708D01*
X81441023Y-38732708D02*
X81298166Y-38804136D01*
X81298166Y-38804136D02*
X81226738Y-38875565D01*
X81226738Y-38875565D02*
X81155309Y-39018422D01*
X81155309Y-39018422D02*
X81155309Y-39304136D01*
X81155309Y-39304136D02*
X81226738Y-39446994D01*
X82155309Y-40304136D02*
X82083881Y-40161279D01*
X82083881Y-40161279D02*
X81941023Y-40089850D01*
X81941023Y-40089850D02*
X80655309Y-40089850D01*
X106126738Y-37089850D02*
X106055309Y-36946993D01*
X106055309Y-36946993D02*
X106055309Y-36732707D01*
X106055309Y-36732707D02*
X106126738Y-36518421D01*
X106126738Y-36518421D02*
X106269595Y-36375564D01*
X106269595Y-36375564D02*
X106412452Y-36304135D01*
X106412452Y-36304135D02*
X106698166Y-36232707D01*
X106698166Y-36232707D02*
X106912452Y-36232707D01*
X106912452Y-36232707D02*
X107198166Y-36304135D01*
X107198166Y-36304135D02*
X107341023Y-36375564D01*
X107341023Y-36375564D02*
X107483881Y-36518421D01*
X107483881Y-36518421D02*
X107555309Y-36732707D01*
X107555309Y-36732707D02*
X107555309Y-36875564D01*
X107555309Y-36875564D02*
X107483881Y-37089850D01*
X107483881Y-37089850D02*
X107412452Y-37161278D01*
X107412452Y-37161278D02*
X106912452Y-37161278D01*
X106912452Y-37161278D02*
X106912452Y-36875564D01*
X107555309Y-37804135D02*
X106055309Y-37804135D01*
X106055309Y-37804135D02*
X107555309Y-38661278D01*
X107555309Y-38661278D02*
X106055309Y-38661278D01*
X107555309Y-39375564D02*
X106055309Y-39375564D01*
X106055309Y-39375564D02*
X106055309Y-39732707D01*
X106055309Y-39732707D02*
X106126738Y-39946993D01*
X106126738Y-39946993D02*
X106269595Y-40089850D01*
X106269595Y-40089850D02*
X106412452Y-40161279D01*
X106412452Y-40161279D02*
X106698166Y-40232707D01*
X106698166Y-40232707D02*
X106912452Y-40232707D01*
X106912452Y-40232707D02*
X107198166Y-40161279D01*
X107198166Y-40161279D02*
X107341023Y-40089850D01*
X107341023Y-40089850D02*
X107483881Y-39946993D01*
X107483881Y-39946993D02*
X107555309Y-39732707D01*
X107555309Y-39732707D02*
X107555309Y-39375564D01*
X87235309Y-35304136D02*
X86235309Y-35304136D01*
X86521023Y-35304136D02*
X86378166Y-35375565D01*
X86378166Y-35375565D02*
X86306738Y-35446994D01*
X86306738Y-35446994D02*
X86235309Y-35589851D01*
X86235309Y-35589851D02*
X86235309Y-35732708D01*
X87163881Y-36804136D02*
X87235309Y-36661279D01*
X87235309Y-36661279D02*
X87235309Y-36375565D01*
X87235309Y-36375565D02*
X87163881Y-36232707D01*
X87163881Y-36232707D02*
X87021023Y-36161279D01*
X87021023Y-36161279D02*
X86449595Y-36161279D01*
X86449595Y-36161279D02*
X86306738Y-36232707D01*
X86306738Y-36232707D02*
X86235309Y-36375565D01*
X86235309Y-36375565D02*
X86235309Y-36661279D01*
X86235309Y-36661279D02*
X86306738Y-36804136D01*
X86306738Y-36804136D02*
X86449595Y-36875565D01*
X86449595Y-36875565D02*
X86592452Y-36875565D01*
X86592452Y-36875565D02*
X86735309Y-36161279D01*
X87163881Y-37446993D02*
X87235309Y-37589850D01*
X87235309Y-37589850D02*
X87235309Y-37875564D01*
X87235309Y-37875564D02*
X87163881Y-38018421D01*
X87163881Y-38018421D02*
X87021023Y-38089850D01*
X87021023Y-38089850D02*
X86949595Y-38089850D01*
X86949595Y-38089850D02*
X86806738Y-38018421D01*
X86806738Y-38018421D02*
X86735309Y-37875564D01*
X86735309Y-37875564D02*
X86735309Y-37661279D01*
X86735309Y-37661279D02*
X86663881Y-37518421D01*
X86663881Y-37518421D02*
X86521023Y-37446993D01*
X86521023Y-37446993D02*
X86449595Y-37446993D01*
X86449595Y-37446993D02*
X86306738Y-37518421D01*
X86306738Y-37518421D02*
X86235309Y-37661279D01*
X86235309Y-37661279D02*
X86235309Y-37875564D01*
X86235309Y-37875564D02*
X86306738Y-38018421D01*
X87163881Y-39304136D02*
X87235309Y-39161279D01*
X87235309Y-39161279D02*
X87235309Y-38875565D01*
X87235309Y-38875565D02*
X87163881Y-38732707D01*
X87163881Y-38732707D02*
X87021023Y-38661279D01*
X87021023Y-38661279D02*
X86449595Y-38661279D01*
X86449595Y-38661279D02*
X86306738Y-38732707D01*
X86306738Y-38732707D02*
X86235309Y-38875565D01*
X86235309Y-38875565D02*
X86235309Y-39161279D01*
X86235309Y-39161279D02*
X86306738Y-39304136D01*
X86306738Y-39304136D02*
X86449595Y-39375565D01*
X86449595Y-39375565D02*
X86592452Y-39375565D01*
X86592452Y-39375565D02*
X86735309Y-38661279D01*
X86235309Y-39804136D02*
X86235309Y-40375564D01*
X85735309Y-40018421D02*
X87021023Y-40018421D01*
X87021023Y-40018421D02*
X87163881Y-40089850D01*
X87163881Y-40089850D02*
X87235309Y-40232707D01*
X87235309Y-40232707D02*
X87235309Y-40375564D01*
X113675309Y-32518421D02*
X113675309Y-32804135D01*
X113675309Y-32804135D02*
X113746738Y-32946992D01*
X113746738Y-32946992D02*
X113889595Y-33089849D01*
X113889595Y-33089849D02*
X114175309Y-33161278D01*
X114175309Y-33161278D02*
X114675309Y-33161278D01*
X114675309Y-33161278D02*
X114961023Y-33089849D01*
X114961023Y-33089849D02*
X115103881Y-32946992D01*
X115103881Y-32946992D02*
X115175309Y-32804135D01*
X115175309Y-32804135D02*
X115175309Y-32518421D01*
X115175309Y-32518421D02*
X115103881Y-32375564D01*
X115103881Y-32375564D02*
X114961023Y-32232706D01*
X114961023Y-32232706D02*
X114675309Y-32161278D01*
X114675309Y-32161278D02*
X114175309Y-32161278D01*
X114175309Y-32161278D02*
X113889595Y-32232706D01*
X113889595Y-32232706D02*
X113746738Y-32375564D01*
X113746738Y-32375564D02*
X113675309Y-32518421D01*
X115175309Y-34518421D02*
X115175309Y-33804135D01*
X115175309Y-33804135D02*
X113675309Y-33804135D01*
X114389595Y-35018421D02*
X114389595Y-35518421D01*
X115175309Y-35732707D02*
X115175309Y-35018421D01*
X115175309Y-35018421D02*
X113675309Y-35018421D01*
X113675309Y-35018421D02*
X113675309Y-35732707D01*
X115175309Y-36375564D02*
X113675309Y-36375564D01*
X113675309Y-36375564D02*
X113675309Y-36732707D01*
X113675309Y-36732707D02*
X113746738Y-36946993D01*
X113746738Y-36946993D02*
X113889595Y-37089850D01*
X113889595Y-37089850D02*
X114032452Y-37161279D01*
X114032452Y-37161279D02*
X114318166Y-37232707D01*
X114318166Y-37232707D02*
X114532452Y-37232707D01*
X114532452Y-37232707D02*
X114818166Y-37161279D01*
X114818166Y-37161279D02*
X114961023Y-37089850D01*
X114961023Y-37089850D02*
X115103881Y-36946993D01*
X115103881Y-36946993D02*
X115175309Y-36732707D01*
X115175309Y-36732707D02*
X115175309Y-36375564D01*
X114603881Y-39018421D02*
X114603881Y-40161279D01*
X77075309Y-35661278D02*
X76075309Y-35661278D01*
X76361023Y-35661278D02*
X76218166Y-35732707D01*
X76218166Y-35732707D02*
X76146738Y-35804136D01*
X76146738Y-35804136D02*
X76075309Y-35946993D01*
X76075309Y-35946993D02*
X76075309Y-36089850D01*
X77075309Y-36589849D02*
X76075309Y-36589849D01*
X75575309Y-36589849D02*
X75646738Y-36518421D01*
X75646738Y-36518421D02*
X75718166Y-36589849D01*
X75718166Y-36589849D02*
X75646738Y-36661278D01*
X75646738Y-36661278D02*
X75575309Y-36589849D01*
X75575309Y-36589849D02*
X75718166Y-36589849D01*
X76075309Y-37946993D02*
X77289595Y-37946993D01*
X77289595Y-37946993D02*
X77432452Y-37875564D01*
X77432452Y-37875564D02*
X77503881Y-37804135D01*
X77503881Y-37804135D02*
X77575309Y-37661278D01*
X77575309Y-37661278D02*
X77575309Y-37446993D01*
X77575309Y-37446993D02*
X77503881Y-37304135D01*
X77003881Y-37946993D02*
X77075309Y-37804135D01*
X77075309Y-37804135D02*
X77075309Y-37518421D01*
X77075309Y-37518421D02*
X77003881Y-37375564D01*
X77003881Y-37375564D02*
X76932452Y-37304135D01*
X76932452Y-37304135D02*
X76789595Y-37232707D01*
X76789595Y-37232707D02*
X76361023Y-37232707D01*
X76361023Y-37232707D02*
X76218166Y-37304135D01*
X76218166Y-37304135D02*
X76146738Y-37375564D01*
X76146738Y-37375564D02*
X76075309Y-37518421D01*
X76075309Y-37518421D02*
X76075309Y-37804135D01*
X76075309Y-37804135D02*
X76146738Y-37946993D01*
X77075309Y-38661278D02*
X75575309Y-38661278D01*
X77075309Y-39304136D02*
X76289595Y-39304136D01*
X76289595Y-39304136D02*
X76146738Y-39232707D01*
X76146738Y-39232707D02*
X76075309Y-39089850D01*
X76075309Y-39089850D02*
X76075309Y-38875564D01*
X76075309Y-38875564D02*
X76146738Y-38732707D01*
X76146738Y-38732707D02*
X76218166Y-38661278D01*
X76075309Y-39804136D02*
X76075309Y-40375564D01*
X75575309Y-40018421D02*
X76861023Y-40018421D01*
X76861023Y-40018421D02*
X77003881Y-40089850D01*
X77003881Y-40089850D02*
X77075309Y-40232707D01*
X77075309Y-40232707D02*
X77075309Y-40375564D01*
X108666738Y-37089850D02*
X108595309Y-36946993D01*
X108595309Y-36946993D02*
X108595309Y-36732707D01*
X108595309Y-36732707D02*
X108666738Y-36518421D01*
X108666738Y-36518421D02*
X108809595Y-36375564D01*
X108809595Y-36375564D02*
X108952452Y-36304135D01*
X108952452Y-36304135D02*
X109238166Y-36232707D01*
X109238166Y-36232707D02*
X109452452Y-36232707D01*
X109452452Y-36232707D02*
X109738166Y-36304135D01*
X109738166Y-36304135D02*
X109881023Y-36375564D01*
X109881023Y-36375564D02*
X110023881Y-36518421D01*
X110023881Y-36518421D02*
X110095309Y-36732707D01*
X110095309Y-36732707D02*
X110095309Y-36875564D01*
X110095309Y-36875564D02*
X110023881Y-37089850D01*
X110023881Y-37089850D02*
X109952452Y-37161278D01*
X109952452Y-37161278D02*
X109452452Y-37161278D01*
X109452452Y-37161278D02*
X109452452Y-36875564D01*
X110095309Y-37804135D02*
X108595309Y-37804135D01*
X108595309Y-37804135D02*
X110095309Y-38661278D01*
X110095309Y-38661278D02*
X108595309Y-38661278D01*
X110095309Y-39375564D02*
X108595309Y-39375564D01*
X108595309Y-39375564D02*
X108595309Y-39732707D01*
X108595309Y-39732707D02*
X108666738Y-39946993D01*
X108666738Y-39946993D02*
X108809595Y-40089850D01*
X108809595Y-40089850D02*
X108952452Y-40161279D01*
X108952452Y-40161279D02*
X109238166Y-40232707D01*
X109238166Y-40232707D02*
X109452452Y-40232707D01*
X109452452Y-40232707D02*
X109738166Y-40161279D01*
X109738166Y-40161279D02*
X109881023Y-40089850D01*
X109881023Y-40089850D02*
X110023881Y-39946993D01*
X110023881Y-39946993D02*
X110095309Y-39732707D01*
X110095309Y-39732707D02*
X110095309Y-39375564D01*
X112563881Y-31161278D02*
X112635309Y-31304135D01*
X112635309Y-31304135D02*
X112635309Y-31589849D01*
X112635309Y-31589849D02*
X112563881Y-31732706D01*
X112563881Y-31732706D02*
X112421023Y-31804135D01*
X112421023Y-31804135D02*
X112349595Y-31804135D01*
X112349595Y-31804135D02*
X112206738Y-31732706D01*
X112206738Y-31732706D02*
X112135309Y-31589849D01*
X112135309Y-31589849D02*
X112135309Y-31375564D01*
X112135309Y-31375564D02*
X112063881Y-31232706D01*
X112063881Y-31232706D02*
X111921023Y-31161278D01*
X111921023Y-31161278D02*
X111849595Y-31161278D01*
X111849595Y-31161278D02*
X111706738Y-31232706D01*
X111706738Y-31232706D02*
X111635309Y-31375564D01*
X111635309Y-31375564D02*
X111635309Y-31589849D01*
X111635309Y-31589849D02*
X111706738Y-31732706D01*
X112635309Y-32661278D02*
X112563881Y-32518421D01*
X112563881Y-32518421D02*
X112492452Y-32446992D01*
X112492452Y-32446992D02*
X112349595Y-32375564D01*
X112349595Y-32375564D02*
X111921023Y-32375564D01*
X111921023Y-32375564D02*
X111778166Y-32446992D01*
X111778166Y-32446992D02*
X111706738Y-32518421D01*
X111706738Y-32518421D02*
X111635309Y-32661278D01*
X111635309Y-32661278D02*
X111635309Y-32875564D01*
X111635309Y-32875564D02*
X111706738Y-33018421D01*
X111706738Y-33018421D02*
X111778166Y-33089850D01*
X111778166Y-33089850D02*
X111921023Y-33161278D01*
X111921023Y-33161278D02*
X112349595Y-33161278D01*
X112349595Y-33161278D02*
X112492452Y-33089850D01*
X112492452Y-33089850D02*
X112563881Y-33018421D01*
X112563881Y-33018421D02*
X112635309Y-32875564D01*
X112635309Y-32875564D02*
X112635309Y-32661278D01*
X111635309Y-34446993D02*
X112635309Y-34446993D01*
X111635309Y-33804135D02*
X112421023Y-33804135D01*
X112421023Y-33804135D02*
X112563881Y-33875564D01*
X112563881Y-33875564D02*
X112635309Y-34018421D01*
X112635309Y-34018421D02*
X112635309Y-34232707D01*
X112635309Y-34232707D02*
X112563881Y-34375564D01*
X112563881Y-34375564D02*
X112492452Y-34446993D01*
X111635309Y-35161278D02*
X112635309Y-35161278D01*
X111778166Y-35161278D02*
X111706738Y-35232707D01*
X111706738Y-35232707D02*
X111635309Y-35375564D01*
X111635309Y-35375564D02*
X111635309Y-35589850D01*
X111635309Y-35589850D02*
X111706738Y-35732707D01*
X111706738Y-35732707D02*
X111849595Y-35804136D01*
X111849595Y-35804136D02*
X112635309Y-35804136D01*
X112635309Y-37161279D02*
X111135309Y-37161279D01*
X112563881Y-37161279D02*
X112635309Y-37018421D01*
X112635309Y-37018421D02*
X112635309Y-36732707D01*
X112635309Y-36732707D02*
X112563881Y-36589850D01*
X112563881Y-36589850D02*
X112492452Y-36518421D01*
X112492452Y-36518421D02*
X112349595Y-36446993D01*
X112349595Y-36446993D02*
X111921023Y-36446993D01*
X111921023Y-36446993D02*
X111778166Y-36518421D01*
X111778166Y-36518421D02*
X111706738Y-36589850D01*
X111706738Y-36589850D02*
X111635309Y-36732707D01*
X111635309Y-36732707D02*
X111635309Y-37018421D01*
X111635309Y-37018421D02*
X111706738Y-37161279D01*
X112063881Y-39018421D02*
X112063881Y-40161279D01*
X116215309Y-32518421D02*
X116215309Y-32804135D01*
X116215309Y-32804135D02*
X116286738Y-32946992D01*
X116286738Y-32946992D02*
X116429595Y-33089849D01*
X116429595Y-33089849D02*
X116715309Y-33161278D01*
X116715309Y-33161278D02*
X117215309Y-33161278D01*
X117215309Y-33161278D02*
X117501023Y-33089849D01*
X117501023Y-33089849D02*
X117643881Y-32946992D01*
X117643881Y-32946992D02*
X117715309Y-32804135D01*
X117715309Y-32804135D02*
X117715309Y-32518421D01*
X117715309Y-32518421D02*
X117643881Y-32375564D01*
X117643881Y-32375564D02*
X117501023Y-32232706D01*
X117501023Y-32232706D02*
X117215309Y-32161278D01*
X117215309Y-32161278D02*
X116715309Y-32161278D01*
X116715309Y-32161278D02*
X116429595Y-32232706D01*
X116429595Y-32232706D02*
X116286738Y-32375564D01*
X116286738Y-32375564D02*
X116215309Y-32518421D01*
X117715309Y-34518421D02*
X117715309Y-33804135D01*
X117715309Y-33804135D02*
X116215309Y-33804135D01*
X116929595Y-35018421D02*
X116929595Y-35518421D01*
X117715309Y-35732707D02*
X117715309Y-35018421D01*
X117715309Y-35018421D02*
X116215309Y-35018421D01*
X116215309Y-35018421D02*
X116215309Y-35732707D01*
X117715309Y-36375564D02*
X116215309Y-36375564D01*
X116215309Y-36375564D02*
X116215309Y-36732707D01*
X116215309Y-36732707D02*
X116286738Y-36946993D01*
X116286738Y-36946993D02*
X116429595Y-37089850D01*
X116429595Y-37089850D02*
X116572452Y-37161279D01*
X116572452Y-37161279D02*
X116858166Y-37232707D01*
X116858166Y-37232707D02*
X117072452Y-37232707D01*
X117072452Y-37232707D02*
X117358166Y-37161279D01*
X117358166Y-37161279D02*
X117501023Y-37089850D01*
X117501023Y-37089850D02*
X117643881Y-36946993D01*
X117643881Y-36946993D02*
X117715309Y-36732707D01*
X117715309Y-36732707D02*
X117715309Y-36375564D01*
X117143881Y-39018421D02*
X117143881Y-40161279D01*
X117715309Y-39589850D02*
X116572452Y-39589850D01*
X89703881Y-31161278D02*
X89775309Y-31304135D01*
X89775309Y-31304135D02*
X89775309Y-31589849D01*
X89775309Y-31589849D02*
X89703881Y-31732706D01*
X89703881Y-31732706D02*
X89561023Y-31804135D01*
X89561023Y-31804135D02*
X89489595Y-31804135D01*
X89489595Y-31804135D02*
X89346738Y-31732706D01*
X89346738Y-31732706D02*
X89275309Y-31589849D01*
X89275309Y-31589849D02*
X89275309Y-31375564D01*
X89275309Y-31375564D02*
X89203881Y-31232706D01*
X89203881Y-31232706D02*
X89061023Y-31161278D01*
X89061023Y-31161278D02*
X88989595Y-31161278D01*
X88989595Y-31161278D02*
X88846738Y-31232706D01*
X88846738Y-31232706D02*
X88775309Y-31375564D01*
X88775309Y-31375564D02*
X88775309Y-31589849D01*
X88775309Y-31589849D02*
X88846738Y-31732706D01*
X89775309Y-32661278D02*
X89703881Y-32518421D01*
X89703881Y-32518421D02*
X89632452Y-32446992D01*
X89632452Y-32446992D02*
X89489595Y-32375564D01*
X89489595Y-32375564D02*
X89061023Y-32375564D01*
X89061023Y-32375564D02*
X88918166Y-32446992D01*
X88918166Y-32446992D02*
X88846738Y-32518421D01*
X88846738Y-32518421D02*
X88775309Y-32661278D01*
X88775309Y-32661278D02*
X88775309Y-32875564D01*
X88775309Y-32875564D02*
X88846738Y-33018421D01*
X88846738Y-33018421D02*
X88918166Y-33089850D01*
X88918166Y-33089850D02*
X89061023Y-33161278D01*
X89061023Y-33161278D02*
X89489595Y-33161278D01*
X89489595Y-33161278D02*
X89632452Y-33089850D01*
X89632452Y-33089850D02*
X89703881Y-33018421D01*
X89703881Y-33018421D02*
X89775309Y-32875564D01*
X89775309Y-32875564D02*
X89775309Y-32661278D01*
X88775309Y-34446993D02*
X89775309Y-34446993D01*
X88775309Y-33804135D02*
X89561023Y-33804135D01*
X89561023Y-33804135D02*
X89703881Y-33875564D01*
X89703881Y-33875564D02*
X89775309Y-34018421D01*
X89775309Y-34018421D02*
X89775309Y-34232707D01*
X89775309Y-34232707D02*
X89703881Y-34375564D01*
X89703881Y-34375564D02*
X89632452Y-34446993D01*
X88775309Y-35161278D02*
X89775309Y-35161278D01*
X88918166Y-35161278D02*
X88846738Y-35232707D01*
X88846738Y-35232707D02*
X88775309Y-35375564D01*
X88775309Y-35375564D02*
X88775309Y-35589850D01*
X88775309Y-35589850D02*
X88846738Y-35732707D01*
X88846738Y-35732707D02*
X88989595Y-35804136D01*
X88989595Y-35804136D02*
X89775309Y-35804136D01*
X89775309Y-37161279D02*
X88275309Y-37161279D01*
X89703881Y-37161279D02*
X89775309Y-37018421D01*
X89775309Y-37018421D02*
X89775309Y-36732707D01*
X89775309Y-36732707D02*
X89703881Y-36589850D01*
X89703881Y-36589850D02*
X89632452Y-36518421D01*
X89632452Y-36518421D02*
X89489595Y-36446993D01*
X89489595Y-36446993D02*
X89061023Y-36446993D01*
X89061023Y-36446993D02*
X88918166Y-36518421D01*
X88918166Y-36518421D02*
X88846738Y-36589850D01*
X88846738Y-36589850D02*
X88775309Y-36732707D01*
X88775309Y-36732707D02*
X88775309Y-37018421D01*
X88775309Y-37018421D02*
X88846738Y-37161279D01*
X89203881Y-39018421D02*
X89203881Y-40161279D01*
X89775309Y-39589850D02*
X88632452Y-39589850D01*
X74535309Y-37304136D02*
X74463881Y-37161279D01*
X74463881Y-37161279D02*
X74321023Y-37089850D01*
X74321023Y-37089850D02*
X73035309Y-37089850D01*
X74463881Y-38446993D02*
X74535309Y-38304136D01*
X74535309Y-38304136D02*
X74535309Y-38018422D01*
X74535309Y-38018422D02*
X74463881Y-37875564D01*
X74463881Y-37875564D02*
X74321023Y-37804136D01*
X74321023Y-37804136D02*
X73749595Y-37804136D01*
X73749595Y-37804136D02*
X73606738Y-37875564D01*
X73606738Y-37875564D02*
X73535309Y-38018422D01*
X73535309Y-38018422D02*
X73535309Y-38304136D01*
X73535309Y-38304136D02*
X73606738Y-38446993D01*
X73606738Y-38446993D02*
X73749595Y-38518422D01*
X73749595Y-38518422D02*
X73892452Y-38518422D01*
X73892452Y-38518422D02*
X74035309Y-37804136D01*
X73535309Y-38946993D02*
X73535309Y-39518421D01*
X74535309Y-39161278D02*
X73249595Y-39161278D01*
X73249595Y-39161278D02*
X73106738Y-39232707D01*
X73106738Y-39232707D02*
X73035309Y-39375564D01*
X73035309Y-39375564D02*
X73035309Y-39518421D01*
X73535309Y-39804136D02*
X73535309Y-40375564D01*
X73035309Y-40018421D02*
X74321023Y-40018421D01*
X74321023Y-40018421D02*
X74463881Y-40089850D01*
X74463881Y-40089850D02*
X74535309Y-40232707D01*
X74535309Y-40232707D02*
X74535309Y-40375564D01*
X84623881Y-36875564D02*
X84695309Y-37018421D01*
X84695309Y-37018421D02*
X84695309Y-37304135D01*
X84695309Y-37304135D02*
X84623881Y-37446992D01*
X84623881Y-37446992D02*
X84481023Y-37518421D01*
X84481023Y-37518421D02*
X84409595Y-37518421D01*
X84409595Y-37518421D02*
X84266738Y-37446992D01*
X84266738Y-37446992D02*
X84195309Y-37304135D01*
X84195309Y-37304135D02*
X84195309Y-37089850D01*
X84195309Y-37089850D02*
X84123881Y-36946992D01*
X84123881Y-36946992D02*
X83981023Y-36875564D01*
X83981023Y-36875564D02*
X83909595Y-36875564D01*
X83909595Y-36875564D02*
X83766738Y-36946992D01*
X83766738Y-36946992D02*
X83695309Y-37089850D01*
X83695309Y-37089850D02*
X83695309Y-37304135D01*
X83695309Y-37304135D02*
X83766738Y-37446992D01*
X84695309Y-38804136D02*
X83195309Y-38804136D01*
X84623881Y-38804136D02*
X84695309Y-38661278D01*
X84695309Y-38661278D02*
X84695309Y-38375564D01*
X84695309Y-38375564D02*
X84623881Y-38232707D01*
X84623881Y-38232707D02*
X84552452Y-38161278D01*
X84552452Y-38161278D02*
X84409595Y-38089850D01*
X84409595Y-38089850D02*
X83981023Y-38089850D01*
X83981023Y-38089850D02*
X83838166Y-38161278D01*
X83838166Y-38161278D02*
X83766738Y-38232707D01*
X83766738Y-38232707D02*
X83695309Y-38375564D01*
X83695309Y-38375564D02*
X83695309Y-38661278D01*
X83695309Y-38661278D02*
X83766738Y-38804136D01*
X84695309Y-40161279D02*
X83909595Y-40161279D01*
X83909595Y-40161279D02*
X83766738Y-40089850D01*
X83766738Y-40089850D02*
X83695309Y-39946993D01*
X83695309Y-39946993D02*
X83695309Y-39661279D01*
X83695309Y-39661279D02*
X83766738Y-39518421D01*
X84623881Y-40161279D02*
X84695309Y-40018421D01*
X84695309Y-40018421D02*
X84695309Y-39661279D01*
X84695309Y-39661279D02*
X84623881Y-39518421D01*
X84623881Y-39518421D02*
X84481023Y-39446993D01*
X84481023Y-39446993D02*
X84338166Y-39446993D01*
X84338166Y-39446993D02*
X84195309Y-39518421D01*
X84195309Y-39518421D02*
X84123881Y-39661279D01*
X84123881Y-39661279D02*
X84123881Y-40018421D01*
X84123881Y-40018421D02*
X84052452Y-40161279D01*
X79615309Y-37518421D02*
X79615309Y-36804135D01*
X79615309Y-36804135D02*
X78115309Y-36804135D01*
X78829595Y-38018421D02*
X78829595Y-38518421D01*
X79615309Y-38732707D02*
X79615309Y-38018421D01*
X79615309Y-38018421D02*
X78115309Y-38018421D01*
X78115309Y-38018421D02*
X78115309Y-38732707D01*
X79615309Y-39375564D02*
X78115309Y-39375564D01*
X78115309Y-39375564D02*
X78115309Y-39732707D01*
X78115309Y-39732707D02*
X78186738Y-39946993D01*
X78186738Y-39946993D02*
X78329595Y-40089850D01*
X78329595Y-40089850D02*
X78472452Y-40161279D01*
X78472452Y-40161279D02*
X78758166Y-40232707D01*
X78758166Y-40232707D02*
X78972452Y-40232707D01*
X78972452Y-40232707D02*
X79258166Y-40161279D01*
X79258166Y-40161279D02*
X79401023Y-40089850D01*
X79401023Y-40089850D02*
X79543881Y-39946993D01*
X79543881Y-39946993D02*
X79615309Y-39732707D01*
X79615309Y-39732707D02*
X79615309Y-39375564D01*
X103586738Y-37089850D02*
X103515309Y-36946993D01*
X103515309Y-36946993D02*
X103515309Y-36732707D01*
X103515309Y-36732707D02*
X103586738Y-36518421D01*
X103586738Y-36518421D02*
X103729595Y-36375564D01*
X103729595Y-36375564D02*
X103872452Y-36304135D01*
X103872452Y-36304135D02*
X104158166Y-36232707D01*
X104158166Y-36232707D02*
X104372452Y-36232707D01*
X104372452Y-36232707D02*
X104658166Y-36304135D01*
X104658166Y-36304135D02*
X104801023Y-36375564D01*
X104801023Y-36375564D02*
X104943881Y-36518421D01*
X104943881Y-36518421D02*
X105015309Y-36732707D01*
X105015309Y-36732707D02*
X105015309Y-36875564D01*
X105015309Y-36875564D02*
X104943881Y-37089850D01*
X104943881Y-37089850D02*
X104872452Y-37161278D01*
X104872452Y-37161278D02*
X104372452Y-37161278D01*
X104372452Y-37161278D02*
X104372452Y-36875564D01*
X105015309Y-37804135D02*
X103515309Y-37804135D01*
X103515309Y-37804135D02*
X105015309Y-38661278D01*
X105015309Y-38661278D02*
X103515309Y-38661278D01*
X105015309Y-39375564D02*
X103515309Y-39375564D01*
X103515309Y-39375564D02*
X103515309Y-39732707D01*
X103515309Y-39732707D02*
X103586738Y-39946993D01*
X103586738Y-39946993D02*
X103729595Y-40089850D01*
X103729595Y-40089850D02*
X103872452Y-40161279D01*
X103872452Y-40161279D02*
X104158166Y-40232707D01*
X104158166Y-40232707D02*
X104372452Y-40232707D01*
X104372452Y-40232707D02*
X104658166Y-40161279D01*
X104658166Y-40161279D02*
X104801023Y-40089850D01*
X104801023Y-40089850D02*
X104943881Y-39946993D01*
X104943881Y-39946993D02*
X105015309Y-39732707D01*
X105015309Y-39732707D02*
X105015309Y-39375564D01*
X70495309Y-36018422D02*
X70495309Y-36946994D01*
X70495309Y-36946994D02*
X71066738Y-36446994D01*
X71066738Y-36446994D02*
X71066738Y-36661279D01*
X71066738Y-36661279D02*
X71138166Y-36804137D01*
X71138166Y-36804137D02*
X71209595Y-36875565D01*
X71209595Y-36875565D02*
X71352452Y-36946994D01*
X71352452Y-36946994D02*
X71709595Y-36946994D01*
X71709595Y-36946994D02*
X71852452Y-36875565D01*
X71852452Y-36875565D02*
X71923881Y-36804137D01*
X71923881Y-36804137D02*
X71995309Y-36661279D01*
X71995309Y-36661279D02*
X71995309Y-36232708D01*
X71995309Y-36232708D02*
X71923881Y-36089851D01*
X71923881Y-36089851D02*
X71852452Y-36018422D01*
X71852452Y-37589850D02*
X71923881Y-37661279D01*
X71923881Y-37661279D02*
X71995309Y-37589850D01*
X71995309Y-37589850D02*
X71923881Y-37518422D01*
X71923881Y-37518422D02*
X71852452Y-37589850D01*
X71852452Y-37589850D02*
X71995309Y-37589850D01*
X70495309Y-38161279D02*
X70495309Y-39089851D01*
X70495309Y-39089851D02*
X71066738Y-38589851D01*
X71066738Y-38589851D02*
X71066738Y-38804136D01*
X71066738Y-38804136D02*
X71138166Y-38946994D01*
X71138166Y-38946994D02*
X71209595Y-39018422D01*
X71209595Y-39018422D02*
X71352452Y-39089851D01*
X71352452Y-39089851D02*
X71709595Y-39089851D01*
X71709595Y-39089851D02*
X71852452Y-39018422D01*
X71852452Y-39018422D02*
X71923881Y-38946994D01*
X71923881Y-38946994D02*
X71995309Y-38804136D01*
X71995309Y-38804136D02*
X71995309Y-38375565D01*
X71995309Y-38375565D02*
X71923881Y-38232708D01*
X71923881Y-38232708D02*
X71852452Y-38161279D01*
X70995309Y-39589850D02*
X71995309Y-39946993D01*
X71995309Y-39946993D02*
X70995309Y-40304136D01*
M02*
